<?xml version="1.0" encoding="iso-8859-1"?>
<!-- Generator: Adobe Illustrator 19.0.0, SVG Export Plug-In . SVG Version: 6.00 Build 0)  -->
<svg version="1.1" id="Capa_1" xmlns="http://www.w3.org/2000/svg" xmlns:xlink="http://www.w3.org/1999/xlink" x="0px" y="0px"
	 viewBox="0 0 480 480" style="enable-background:new 0 0 480 480;" xml:space="preserve" fill="#017bb0">
<g>
	<g>
		<path d="M40,464V0H24v16H0v16h24v96H0v16h24v96H0v16h24v96H0v16h24v104c0,4.418,3.582,8,8,8h448v-16H40z"/>
	</g>
</g>
<g>
	<g>
		<path d="M424,80c-13.255,0-24,10.745-24,24c0.014,3.564,0.834,7.078,2.4,10.28L298.28,218.4c-3.202-1.566-6.716-2.386-10.28-2.4
			c-10.134,0.042-19.15,6.445-22.528,16h-66.944c-4.393-12.473-18.066-19.023-30.539-14.629
			c-9.596,3.38-16.009,12.455-15.989,22.629c0.014,3.564,0.834,7.078,2.4,10.28l-48.12,48.12c-3.202-1.566-6.716-2.386-10.28-2.4
			c-13.255,0-24,10.745-24,24s10.745,24,24,24s24-10.745,24-24c-0.014-3.564-0.834-7.078-2.4-10.28l48.12-48.12
			c3.202,1.566,6.716,2.386,10.28,2.4c10.134-0.042,19.15-6.445,22.528-16h66.944c4.393,12.473,18.066,19.023,30.539,14.629
			c9.596-3.38,16.009-12.455,15.989-22.629c-0.014-3.564-0.834-7.078-2.4-10.28L413.72,125.6c3.202,1.566,6.716,2.386,10.28,2.4
			c13.255,0,24-10.745,24-24S437.255,80,424,80z M96,328c-4.418,0-8-3.582-8-8s3.582-8,8-8s8,3.582,8,8S100.418,328,96,328z
			 M176,248c-4.418,0-8-3.582-8-8s3.582-8,8-8s8,3.582,8,8S180.418,248,176,248z M288,248c-4.418,0-8-3.582-8-8s3.582-8,8-8
			s8,3.582,8,8S292.418,248,288,248z M424,112c-4.418,0-8-3.582-8-8s3.582-8,8-8s8,3.582,8,8S428.418,112,424,112z"/>
	</g>
</g>
<g>
	<g>
		<rect x="88" y="32" width="16" height="16"/>
	</g>
</g>
<g>
	<g>
		<rect x="120" y="32" width="96" height="16"/>
	</g>
</g>
<g>
	<g>
		<rect x="88" y="64" width="128" height="16"/>
	</g>
</g>
<g>
	<g>
		<rect x="88" y="96" width="128" height="16"/>
	</g>
</g>
<g>
</g>
<g>
</g>
<g>
</g>
<g>
</g>
<g>
</g>
<g>
</g>
<g>
</g>
<g>
</g>
<g>
</g>
<g>
</g>
<g>
</g>
<g>
</g>
<g>
</g>
<g>
</g>
<g>
</g>
</svg>
