<?xml version="1.0" standalone="no"?>
<!DOCTYPE svg PUBLIC "-//W3C//DTD SVG 1.1//EN" "http://www.w3.org/Graphics/SVG/1.1/DTD/svg11.dtd" >
<svg xmlns="http://www.w3.org/2000/svg">
<metadata>
This is a custom SVG webfont generated by Font Squirrel.
Copyright   : Copyright c 2007 by hatayas All rights reserved
Designer    : hatayas
Foundry     : hatayas
Foundry URL : httpwwwhatayascoil
</metadata>
<defs>
<font id="RaananSuperBlack" horiz-adv-x="0" >
<font-face units-per-em="1000" ascent="700" descent="-300" />
<missing-glyph horiz-adv-x="225" />
<glyph unicode=" "  horiz-adv-x="225" />
<glyph unicode="&#x09;" horiz-adv-x="225" />
<glyph unicode="&#xa0;" horiz-adv-x="225" />
<glyph unicode="!" horiz-adv-x="217" d="M35 57q0 29 22 50t52 21q31 0 53 -21t22 -50q0 -30 -22 -51t-53 -21q-30 0 -52 21t-22 51zM42 524q0 34 35 34h63q36 0 35 -34l-12 -323q-1 -34 -35 -34h-40q-33 0 -34 34z" />
<glyph unicode="&#x22;" horiz-adv-x="292" d="M8 397q0 4 2 10l42 143q7 24 30 24q3 0 6 -0.5t7 -1.5l35 -11q26 -8 26 -28q0 -7 -3 -11l-53 -140q-9 -23 -33 -23q-3 0 -11 2l-23 7q-25 7 -25 29zM139 397q0 7 1 10l42 142q7 24 31 24q3 0 6 -0.5t7 -1.5l34 -11q24 -8 24 -30q0 -4 -2 -12l-53 -138q-9 -23 -31 -23 q-5 0 -11 2l-24 8q-24 7 -24 30z" />
<glyph unicode="#" horiz-adv-x="610" d="M26 127q0 6 1 10l7 43q6 35 35 35h83l12 71h-68q-36 0 -36 29q0 6 1 9l7 43q6 35 35 35h80l15 89q4 30 39 30l42 -1q37 0 30 -42l-13 -76h67l15 88q4 30 39 30l42 1q18 0 25.5 -12t4.5 -31l-12 -76h63q35 0 35 -32v-6l-7 -44q-6 -34 -35 -34h-76l-12 -71h61q36 0 36 -32 q0 -4 -1 -6l-7 -43q-6 -35 -35 -35h-74l-15 -91q-5 -30 -39 -30l-42 1q-31 0 -31 30q0 8 1 12l13 78h-68l-15 -91q-5 -29 -39 -29h-41q-31 0 -31 30q0 8 1 12l13 78h-70q-36 0 -36 28zM259 212h77l13 78h-78z" />
<glyph unicode="$" horiz-adv-x="420" d="M37 362q0 61 36 102t100 52v42q0 30 30 30h27q30 0 30 -30v-41q56 -6 90 -17q21 -9 17 -37l-10 -51q-5 -30 -38 -19q-31 8 -59 11v-102q141 -44 141 -158q0 -59 -32 -100q-38 -46 -109 -59v-53q0 -31 -30 -31h-27q-30 0 -30 31v49q-71 4 -117 24q-23 11 -17 37l10 53 q3 13 15 19q13 5 22 1q43 -14 87 -18v116q-136 37 -136 149zM144 365q0 -30 29 -38v75q-29 -6 -29 -37zM260 104q33 9 33 39q0 26 -33 44v-83z" />
<glyph unicode="%" horiz-adv-x="715" d="M25 352q0 166 136 166q134 0 134 -166q0 -82 -33 -125q-35 -48 -101 -48q-67 0 -102 47q-34 44 -34 126zM128 353q0 -49 9 -65q6 -13 23 -13q31 0 31 78q0 73 -30 73q-33 0 -33 -73zM220 -26q0 3 2 11l152 548q8 26 32 26q8 0 11 -1l48 -15q26 -8 26 -33q0 -5 -2 -11 l-152 -548q-8 -26 -33 -26q-7 0 -10 1q-11 4 -23 7t-23 6q-28 13 -28 35zM419 153q0 166 136 166q134 0 134 -166q0 -80 -33 -125q-35 -48 -101 -48q-68 0 -102 48q-34 44 -34 125zM522 154q0 -49 9 -65q6 -12 23 -12q31 0 31 77q0 74 -30 74q-33 0 -33 -74z" />
<glyph unicode="&#x26;" horiz-adv-x="431" d="M15 208v25q0 17 17 17h252q17 0 17 -17v-135q0 -17 -17 -17h-26q-8 0 -12.5 5.5t-4.5 11.5v94h-137v-175q0 -17 -17 -17h-25q-18 0 -18 17v175h-12q-17 0 -17 16zM142 25v127q0 17 17 17h26q8 0 12.5 -5.5t4.5 -11.5v-95h60h43q26 0 35 11q12 10 12 40v84h-10 q-18 0 -18 17v24q0 17 18 17h52q18 0 18 -17v-117q0 -116 -111 -116h-136q-23 0 -23 25z" />
<glyph unicode="'" horiz-adv-x="184" d="M17 396q0 4 2 10l41 147q6 25 32 25q5 0 15 -2l42 -13q25 -7 25 -29q0 -4 -2 -12l-56 -143q-9 -23 -33 -23q-3 0 -11 2l-30 9q-25 7 -25 29z" />
<glyph unicode="(" horiz-adv-x="227" d="M23 251q0 154 78 294q10 18 30 18q7 0 49 -12q22 -6 22 -28q0 -6 -3 -12q-54 -144 -54 -260q0 -124 55 -268q2 -8 2 -12q0 -21 -22 -27q-42 -12 -49 -12q-21 0 -30 17q-78 145 -78 302z" />
<glyph unicode=")" horiz-adv-x="227" d="M24 -30q0 3 0.5 6t1.5 7q55 144 55 268q0 116 -54 260q-3 6 -3 12q0 22 22 28l38 11q27 8 41 -17q77 -140 77 -294q0 -156 -77 -302q-13 -23 -40 -16q-10 2 -19 5t-19 5q-23 11 -23 27z" />
<glyph unicode="*" horiz-adv-x="384" d="M30 366q0 3 2 9l10 31q7 22 31 22q4 0 10 -2l63 -19v62q0 31 32 31h34q32 0 32 -31v-62l64 20q3 1 10 1q22 0 30 -20l11 -31q2 -6 2 -9q0 -22 -22 -29l-64 -19l40 -50q6 -8 6 -18q0 -15 -13 -24l-28 -19q-9 -6 -19 -6q-17 0 -26 12l-38 50l-40 -51q-11 -12 -25 -12 q-10 0 -19 6l-28 19q-14 9 -14 24q0 10 6 18l39 50l-64 19q-22 6 -22 28z" />
<glyph unicode="+" horiz-adv-x="402" d="M33 222v37q0 33 35 33h79v67q0 33 35 33h40q34 0 34 -33v-67h79q35 0 35 -33v-37q0 -33 -35 -33h-79v-72q0 -33 -34 -33h-40q-35 0 -35 33v72h-79q-35 0 -35 33z" />
<glyph unicode="," horiz-adv-x="171" d="M5 -67q0 6 1 9l42 148q6 22 32 22q7 0 57 -12q25 -7 25 -30q0 -5 -2 -11l-56 -144q-9 -22 -33 -22q-7 0 -11 1l-30 9q-25 7 -25 30z" />
<glyph unicode="-" horiz-adv-x="423" d="M53 204v62q0 29 35 29h247q35 0 35 -29v-62q0 -29 -35 -29h-247q-35 0 -35 29z" />
<glyph unicode="." horiz-adv-x="190" d="M19 55q0 30 21.5 52t52.5 22t52.5 -22t21.5 -52q0 -32 -21.5 -53.5t-52.5 -21.5t-52.5 21.5t-21.5 53.5z" />
<glyph unicode="/" horiz-adv-x="359" d="M18 4q0 7 3 15l207 492q9 22 31 22q6 0 14 -3l46 -18q23 -9 23 -30q0 -7 -3 -14l-207 -493q-11 -23 -31 -23q-7 0 -13 3l-51 22q-19 7 -19 27z" />
<glyph unicode="0" horiz-adv-x="411" d="M20 250q0 105 39 173q49 82 147 82q185 0 185 -253q0 -258 -187 -258q-184 0 -184 256zM143 250q0 -143 64 -143q63 0 63 146q0 139 -65 139q-62 0 -62 -142z" />
<glyph unicode="1" horiz-adv-x="316" d="M-7 408q2 5 7 10l78 74q10 9 24 9l101 -1q11 0 22 -9t11 -25v-351h19q17 0 25 -9.5t8 -21.5v-52q0 -16 -9.5 -24t-23.5 -8h-182q-15 0 -24 8t-9 25v48q0 18 12 26t32 8h33v269l-44 -42q-8 -8 -14.5 -5t-11.5 9l-52 52q-4 5 -2 10z" />
<glyph unicode="2" horiz-adv-x="349" d="M18 442q0 17 19 29q55 31 126 33q71 0 115 -43q42 -39 47 -106q4 -62 -35 -123q-32 -45 -108 -117h111q35 0 35 -33v-48q0 -14 -10.5 -24t-24.5 -10h-231q-14 0 -24.5 10t-10.5 24v58q0 19 18 37l124 124q41 48 40 87q0 20 -13 36t-35 16q-42 2 -74 -20q-9 -6 -19 -6 q-21 0 -30 22l-17 40q-3 7 -3 14z" />
<glyph unicode="3" horiz-adv-x="341" d="M17 49q0 7 3 15l17 37q10 22 30 22q9 0 16 -4q40 -18 73 -18q22 0 39 12.5t17 32.5q0 53 -88 52q-35 0 -35 32v38q0 34 36 34q33 0 52 19q17 17 16 36q-2 42 -43 42q-24 0 -55 -17q-10 -5 -18 -5q-18 0 -27 18l-20 39q-4 5 -4 12q0 21 21 32q49 26 108 26 q69 0 110.5 -38.5t41.5 -98.5q0 -61 -50 -97q70 -37 70 -124q0 -35 -12.5 -63t-35 -48.5t-55 -31.5t-71.5 -11q-44 0 -113 26q-23 8 -23 31z" />
<glyph unicode="4" horiz-adv-x="401" d="M22 134v45q0 10 11 35l115 278q9 22 30 22q7 0 15 -3l44 -18q20 -9 20 -26q0 -9 -4 -16l-102 -243h70v102q0 34 35 34h44q35 0 35 -33v-103h16q35 0 35 -34v-40q0 -34 -35 -34h-16v-66q0 -34 -36 -34h-45q-35 0 -35 34v66h-161q-36 0 -36 34z" />
<glyph unicode="5" horiz-adv-x="369" d="M20 46q0 3 2 11l18 46q7 22 30 22q7 0 15 -3q47 -19 75 -19q72 -1 74 70q1 27 -18 45t-43 18q-21 0 -44 -17q-20 -14 -42 -3l-34 18q-19 10 -19 30v202q0 13 10 23.5t24 10.5h215q14 0 24.5 -10t10.5 -24v-43q0 -13 -10 -23t-25 -10h-135v-58q16 6 53 6q63 0 106 -43 q45 -46 44 -122q-2 -88 -51.5 -134t-139.5 -46q-54 0 -117 25q-23 9 -23 28z" />
<glyph unicode="6" horiz-adv-x="369" d="M14 217q0 107 49 189q60 100 162 100q36 0 68 -8q24 -8 24 -32q0 -3 -11 -50q-8 -26 -33 -26q-7 0 -11 1q-11 4 -37 4q-60 0 -79 -69q23 16 55 16q67 0 108 -40q46 -43 46 -127q0 -88 -48 -136q-45 -45 -118 -45q-86 0 -132 64q-43 58 -43 159zM138 173q0 -71 50 -71 q20 0 35 15q18 19 18 54q0 66 -53 66q-20 0 -33 -15q-17 -17 -17 -49z" />
<glyph unicode="7" horiz-adv-x="361" d="M15 417v49q0 34 34 34h249q40 0 40 -41q0 -5 -2 -15l-118 -426q-8 -26 -32 -26q-7 0 -10 1l-50 11q-27 7 -27 32q0 3 2 9l98 338h-150q-34 0 -34 34z" />
<glyph unicode="8" horiz-adv-x="356" d="M13 141q0 81 72 126q-58 54 -58 109q0 60 44 98q41 37 108 37q69 0 111 -36.5t42 -99.5q0 -56 -59 -101q73 -52 73 -130q0 -71 -48 -111q-47 -39 -120 -39t-118 39q-47 41 -47 108zM125 149q0 -24 16.5 -39.5t38.5 -15.5q18 0 34 14q18 16 18 41q0 28 -18 46 q-11 11 -40 27q-29 -22 -32 -28q-17 -20 -17 -45zM134 379q0 -30 50 -65q44 35 44 65q0 20 -15 32t-33 12t-31 -12q-15 -14 -15 -32z" />
<glyph unicode="9" horiz-adv-x="366" d="M14 335q0 81 47 128q44 44 121 44q171 0 171 -232q0 -165 -85 -238q-31 -28 -78 -37q-11 -2 -32 -3.5t-52 -3.5q-34 -1 -37 33l-3 39q-5 38 35 38q53 0 83 15q37 19 48 70q-29 -18 -67 -18q-69 0 -110 43.5t-41 121.5zM126 337q0 -35 20 -52q17 -14 37 -14q21 0 35 15 q18 19 18 51q0 68 -55 68t-55 -68z" />
<glyph unicode=":" horiz-adv-x="186" d="M19 55q0 30 21.5 52t52.5 22t52.5 -22t21.5 -52q0 -32 -21.5 -53.5t-52.5 -21.5t-52.5 21.5t-21.5 53.5zM19 350q0 30 21.5 52t52.5 22t52.5 -22t21.5 -52q0 -31 -21.5 -53t-52.5 -22t-52.5 22t-21.5 53z" />
<glyph unicode=";" horiz-adv-x="186" d="M8 -65q0 7 1 10l42 155q6 24 32 24q6 0 57 -14q25 -7 25 -31q0 -4 -2 -12l-57 -150q-8 -24 -32 -24q-3 0 -11 2l-30 8q-25 7 -25 32zM19 350q0 30 21.5 52t52.5 22t52.5 -22t21.5 -52q0 -31 -21.5 -53t-52.5 -22t-52.5 22t-21.5 53z" />
<glyph unicode="&#x3c;" horiz-adv-x="374" d="M23 250q0 13 11 22l225 217q10 10 25 10q14 0 24 -10l36 -34q11 -11 11 -24t-11 -24l-167 -158l168 -160q10 -10 10 -24q0 -13 -10 -23l-36 -34q-11 -11 -24 -11q-14 0 -25 11l-226 217q-11 11 -11 25z" />
<glyph unicode="=" horiz-adv-x="423" d="M53 177v22q0 32 35 32h247q35 0 35 -32v-22q0 -32 -35 -32h-247q-35 0 -35 32zM53 294v23q0 32 35 32h247q35 0 35 -32v-23q0 -31 -35 -31h-247q-35 0 -35 31z" />
<glyph unicode="&#x3e;" horiz-adv-x="374" d="M22 66q0 12 12 23l170 160l-170 158q-11 11 -11 24t11 24l36 34q10 10 24 10q15 0 25 -10l226 -217q9 -9 9 -22q0 -15 -9 -25l-226 -217q-13 -11 -25 -11t-25 11l-35 34q-12 10 -12 24z" />
<glyph unicode="?" horiz-adv-x="324" d="M22 498q0 19 19 29q53 29 114 29q64 0 104 -37q42 -39 42 -103q0 -43 -18 -74q-5 -10 -45 -59q-26 -32 -26 -68v-14q0 -34 -35 -34h-47q-34 0 -34 34v26q0 44 17 76q11 20 48 59q26 29 26 49q0 29 -35 31q-27 2 -62 -15q-8 -4 -17 -4q-20 0 -30 21l-17 39q-4 7 -4 15z M82 57q0 29 21.5 50t52.5 21t52.5 -21t21.5 -50q0 -30 -21.5 -51t-52.5 -21t-52.5 21t-21.5 51z" />
<glyph unicode="@" horiz-adv-x="511" d="M-2 207q0 84 36 153t96 106t143 37q106 0 172.5 -67.5t66.5 -174.5q0 -63 -26 -116t-76 -83q-39 -23 -73 -23q-20 0 -33 9t-19 30q-23 -22 -41 -31t-40 -9q-45 0 -77 37.5t-32 107.5q0 82 41 149t103 67q23 0 41.5 -11.5t36.5 -39.5l7 39h65l-42 -267q-1 -8 -1 -12 q0 -6 3.5 -9t9.5 -3q16 0 36 14q29 20 47.5 58t18.5 92q0 89 -51 141t-137 52q-63 0 -115 -30.5t-80.5 -88t-28.5 -127.5q0 -108 61.5 -172t157.5 -64q47 0 90.5 16t84.5 47h69q-28 -33 -52 -51q-38 -27 -86 -44.5t-104 -17.5q-78 0 -140 36.5t-97 103t-35 146.5zM165 166 q0 -40 17 -62q13 -17 33 -17q22 0 39.5 18.5t30.5 73.5t13 98q0 33 -14 50t-34 17q-22 0 -39 -16q-23 -23 -34.5 -72t-11.5 -90z" />
<glyph unicode="A" horiz-adv-x="537" d="M1 0l185 494h167l185 -494h-159l-24 81h-174l-24 -81h-156zM214 188h108l-54 178z" />
<glyph unicode="B" horiz-adv-x="537" d="M51 0v494h286q71 0 109 -35.5t38 -87.5q0 -44 -27 -75q-18 -21 -53 -33q53 -13 78 -44t25 -78q0 -39 -17.5 -69.5t-48.5 -48.5q-19 -11 -58 -16q-52 -7 -68 -7h-264zM205 106h78q39 0 55.5 14t16.5 38q0 21 -16.5 34.5t-56.5 13.5h-77v-100zM205 300h66q36 0 50 12.5 t14 35.5q0 22 -14 34t-48 12h-68v-94z" />
<glyph unicode="C" horiz-adv-x="537" d="M32 248q0 123 65.5 188.5t184.5 65.5q93 0 146.5 -37.5t80.5 -116.5l-135 -29q-8 23 -15 33q-13 17 -31.5 26.5t-41.5 9.5q-52 0 -80 -42q-20 -31 -20 -97q0 -82 24.5 -112.5t70.5 -30.5q43 0 65.5 24.5t33.5 70.5l133 -40q-13 -56 -42 -93.5t-72 -57t-110 -19.5 q-80 0 -131 23.5t-88.5 82.5t-37.5 151z" />
<glyph unicode="D" horiz-adv-x="537" d="M52 0v494h227q67 0 108.5 -18.5t68.5 -52.5t39 -79t12 -96q0 -78 -18 -122t-50 -73.5t-68 -38.5q-51 -14 -92 -14h-227zM205 112h38q47 0 67.5 10.5t32 37t11.5 86.5q0 78 -26 107t-84 29h-39v-270z" />
<glyph unicode="E" horiz-adv-x="498" d="M50 0v494h410v-106h-257v-78h238v-101h-238v-97h263v-112h-416z" />
<glyph unicode="F" horiz-adv-x="460" d="M51 0v494h377v-106h-224v-86h192v-101h-192v-201h-153z" />
<glyph unicode="G" horiz-adv-x="575" d="M32 247q0 81 33.5 140.5t97.5 90.5q50 24 135 24q82 0 122.5 -14.5t67.5 -45.5t40 -80l-147 -26q-9 28 -31 43t-55 15q-51 0 -80.5 -35t-29.5 -111q0 -80 30 -114t84 -34q25 0 48.5 7.5t53.5 24.5v47h-102v103h236v-211q-68 -46 -120 -62.5t-124 -16.5q-87 0 -143 30 t-86 89t-30 136z" />
<glyph unicode="H" horiz-adv-x="575" d="M51 0v494h153v-173h167v173h153v-494h-153v200h-167v-200h-153z" />
<glyph unicode="I" horiz-adv-x="268" d="M57 0v494h153v-494h-153z" />
<glyph unicode="J" horiz-adv-x="460" d="M12 167l146 20q0 -33 5.5 -49t17.5 -26q9 -6 25 -6q26 0 38 19t12 64v305h153v-268q0 -85 -15 -129.5t-60.5 -75t-116.5 -30.5q-74 0 -115 20.5t-63.5 59.5t-26.5 96z" />
<glyph unicode="K" horiz-adv-x="575" d="M51 0v494h153v-187l160 187h202l-179 -186l188 -308h-188l-104 203l-79 -82v-121h-153z" />
<glyph unicode="L" horiz-adv-x="460" d="M50 0v494h153v-373h239v-121h-392z" />
<glyph unicode="M" horiz-adv-x="651" d="M49 0v494h201l77 -301l77 301h200v-494h-124v377l-97 -377h-113l-96 377v-377h-125z" />
<glyph unicode="N" horiz-adv-x="575" d="M52 0v494h142l186 -273v273h144v-494h-144l-185 271v-271h-143z" />
<glyph unicode="O" horiz-adv-x="575" d="M31 246q0 122 67.5 189t187.5 67q124 0 190.5 -66t66.5 -186q0 -86 -29 -141.5t-84 -86t-137 -30.5q-84 0 -139 26.5t-89 84t-34 143.5zM184 246q0 -75 27.5 -107.5t76.5 -32.5t76 32t27 115q0 69 -28.5 101.5t-76.5 32.5q-46 0 -74 -32.5t-28 -108.5z" />
<glyph unicode="P" horiz-adv-x="498" d="M50 0v494h254q82 0 123.5 -39.5t41.5 -112.5q0 -74 -45 -116t-137 -42h-84v-184h-153zM203 284h38q44 0 61.5 15t17.5 39q0 23 -15.5 39t-58.5 16h-43v-109z" />
<glyph unicode="Q" horiz-adv-x="575" d="M31 245q0 122 67.5 189.5t187.5 67.5q123 0 190 -65.5t67 -189.5q0 -109 -54 -175q28 -20 37 -25q14 -7 36 -17l-42 -86q-32 16 -63.5 37.5t-43.5 32.5q-51 -22 -127 -22q-113 0 -178 58q-77 69 -77 195zM184 252q0 -81 27.5 -113.5t76.5 -32.5q15 0 29 3q-20 19 -61 35 l24 55q20 -4 31.5 -9.5t43.5 -28.5q8 -5 18 -11q18 33 18 98q0 75 -28 107t-77 32q-45 0 -73.5 -32.5t-28.5 -102.5z" />
<glyph unicode="R" horiz-adv-x="537" d="M52 0v494h255q70 0 108 -12t60.5 -45t22.5 -80q0 -41 -17.5 -71t-47.5 -49q-20 -11 -54 -19q27 -9 40 -18q8 -6 24.5 -26t20.5 -30l74 -144h-172l-82 151q-15 29 -27 38q-17 12 -38 12h-13v-201h-154zM206 294h64q11 0 40 7q16 3 25.5 15t9.5 29q0 23 -15 36t-57 13h-67 v-100z" />
<glyph unicode="S" horiz-adv-x="498" d="M24 164l145 9q5 -36 19 -54q24 -31 68 -31q32 0 50 15.5t18 35.5t-17 35t-78 28q-101 23 -143 60q-43 38 -43 96q0 38 21.5 72t66 53t122.5 19q94 0 143.5 -35t59.5 -112l-144 -9q-6 34 -24 49.5t-51 15.5q-27 0 -40 -11.5t-13 -27.5q0 -13 11 -21q11 -10 51 -19 q100 -22 143.5 -44t63 -54.5t19.5 -72.5q0 -48 -26 -88t-73.5 -60.5t-119.5 -20.5q-125 0 -174 48t-55 124z" />
<glyph unicode="T" horiz-adv-x="498" d="M16 372v122h464v-122h-156v-372h-152v372h-156z" />
<glyph unicode="U" horiz-adv-x="575" d="M51 199v295h152v-301q0 -41 22.5 -64t62.5 -23q39 0 61.5 22.5t22.5 64.5v301h152v-295q0 -43 -13.5 -82t-42.5 -68.5t-62 -40.5q-44 -17 -106 -17q-36 0 -78.5 5t-71.5 20t-52.5 42.5t-32.5 57.5q-14 47 -14 83z" />
<glyph unicode="V" horiz-adv-x="537" d="M1 494h160l112 -355l109 355h155l-183 -494h-166z" />
<glyph unicode="W" horiz-adv-x="690" d="M0 494h144l53 -276l76 276h144l77 -276l52 276h144l-108 -494h-150l-87 311l-86 -311h-149z" />
<glyph unicode="X" horiz-adv-x="537" d="M1 0l171 257l-155 237h168l88 -152l84 152h167l-154 -239l168 -255h-172l-97 159l-97 -159h-171z" />
<glyph unicode="Y" horiz-adv-x="537" d="M1 494h169l100 -167l100 167h168l-192 -287v-207h-153v207z" />
<glyph unicode="Z" horiz-adv-x="498" d="M12 0v102l274 286h-248v106h432v-99l-277 -289h287v-106h-468z" />
<glyph unicode="[" horiz-adv-x="264" d="M66 -134v872q0 11 8 19t19 8h144q11 0 19 -8t8 -19v-36q0 -11 -8 -19t-19 -8h-66v-746h66q11 0 19 -8t8 -19v-36q0 -11 -8 -19t-19 -8h-144q-11 0 -19 8t-8 19z" />
<glyph unicode="\" horiz-adv-x="306" d="M-13 702q-4 14 2 24.5t21 10.5h47q11 0 21.5 -7t13.5 -18l224 -771q4 -14 -2 -24.5t-21 -10.5h-47q-11 0 -21.5 7t-13.5 18z" />
<glyph unicode="]" horiz-adv-x="264" d="M5 -98q0 11 8 19t19 8h66v746h-66q-11 0 -19 8t-8 19v36q0 11 8 19t19 8h144q11 0 19 -8t8 -19v-872q0 -11 -8 -19t-19 -8h-144q-11 0 -19 8t-8 19v36z" />
<glyph unicode="^" horiz-adv-x="385" d="M13 213l154 342h53l155 -342h-58l-123 277l-123 -277h-58z" />
<glyph unicode="_" horiz-adv-x="504" d="M0 -71h504v-55h-504v55z" />
<glyph unicode="`" horiz-adv-x="333" d="M58 679h109l51 -169h-17z" />
<glyph unicode="a" horiz-adv-x="460" d="M25 95q0 40 23 66q24 27 89 40q77 15 99.5 21.5t49.5 16.5q0 25 -11 35t-37 10q-34 0 -50 -11q-13 -8 -22 -31l-131 14q8 34 22 54t40 34q19 11 52 16.5t71 5.5q62 0 99.5 -7t62.5 -28q18 -16 28 -44t10 -53v-158q0 -25 3 -39.5t14 -36.5h-129q-8 14 -10.5 21t-4.5 22 q-27 -25 -54 -36q-36 -15 -84 -15q-64 0 -97 29.5t-33 73.5zM162 105q0 -17 11.5 -27t32.5 -10q24 0 43.5 11t28 27t8.5 42v22q-29 -11 -60 -18q-41 -11 -53 -22q-11 -11 -11 -25z" />
<glyph unicode="b" horiz-adv-x="460" d="M42 0v494h139v-171q20 21 46 32t58 11q66 0 108.5 -47t42.5 -135q0 -58 -19.5 -103t-54 -67t-76.5 -22q-36 0 -67 16q-22 11 -49 45v-53h-128zM179 180q0 -46 18 -67t44 -21q25 0 41.5 20.5t16.5 68.5q0 43 -16.5 63t-39.5 20q-28 0 -46 -21t-18 -63z" />
<glyph unicode="c" horiz-adv-x="460" d="M25 177q0 56 18 92q14 27 38.5 48.5t48.5 31.5q41 17 103 17q88 0 134 -31.5t64 -91.5l-129 -17q-5 22 -21.5 34t-43.5 12q-33 0 -54.5 -24.5t-21.5 -74.5q0 -44 21 -67t53 -23q27 0 45.5 14t27.5 43l131 -15q-11 -41 -35.5 -70.5t-63 -46t-96.5 -16.5t-96 10.5t-65 34 t-42.5 55.5t-15.5 85z" />
<glyph unicode="d" horiz-adv-x="460" d="M24 183q0 89 43 136t108 47q32 0 58 -11t46 -32v171h139v-494h-128v53q-27 -34 -49 -45q-30 -16 -66 -16q-74 0 -112.5 55.5t-38.5 135.5zM161 177q0 -44 17 -64.5t41 -20.5q27 0 44.5 20.5t17.5 67.5q0 42 -18 63t-46 21q-23 0 -39.5 -20t-16.5 -67z" />
<glyph unicode="e" horiz-adv-x="460" d="M24 178q0 84 54 136t148 52q77 0 121.5 -23.5t68 -67.5t23.5 -115v-15h-275q4 -33 17 -49q20 -24 52 -24q21 0 39 11q11 6 24 22l135 -13q-31 -53 -74.5 -76.5t-126.5 -23.5q-71 0 -111.5 20t-67.5 63.5t-27 102.5zM164 210h135q-4 40 -21.5 57.5t-45.5 17.5 q-33 0 -52 -26q-12 -16 -16 -49z" />
<glyph unicode="f" horiz-adv-x="268" d="M6 257v101h51v16q0 22 4.5 48.5t17.5 43t36.5 26.5t68.5 10q36 0 104 -8l-15 -83q-24 4 -39 4q-19 0 -27 -6.5t-11 -19.5q-2 -7 -2 -31h65v-101h-65v-257h-137v257h-51z" />
<glyph unicode="g" horiz-adv-x="460" d="M25 195q0 83 40.5 127t105.5 44q42 0 69 -14.5t50 -46.5v53h129v-338v-16q0 -34 -14 -64t-38 -49t-60.5 -27.5t-83.5 -8.5q-108 0 -148.5 32t-40.5 87q0 7 1 18l133 -15q5 -19 16 -26q15 -10 37 -10q30 0 45 15.5t15 55.5v54q-21 -24 -41 -35q-32 -17 -68 -17 q-72 0 -116 63q-31 44 -31 118zM161 184q0 -38 17 -57t43 -19t43.5 19.5t17.5 58.5t-18.5 59.5t-44.5 20.5t-42 -19t-16 -63z" />
<glyph unicode="h" horiz-adv-x="460" d="M41 0v494h138v-182q27 29 55 41.5t65 12.5q56 0 88.5 -34t32.5 -104v-228h-138v197q0 33 -12.5 47.5t-34.5 14.5q-25 0 -40.5 -19t-15.5 -68v-172h-138z" />
<glyph unicode="i" horiz-adv-x="230" d="M46 0v358h138v-358h-138zM46 401v93h138v-93h-138z" />
<glyph unicode="j" horiz-adv-x="230" d="M-34 -133l21 99q16 -3 24 -3q18 0 27 12t9 48v335h137v-347q0 -67 -9.5 -94.5t-35.5 -44.5t-74 -17q-39 0 -99 12zM47 400v94h137v-94h-137z" />
<glyph unicode="k" horiz-adv-x="460" d="M41 0v494h140v-255l103 119h169l-129 -125l136 -233h-154l-73 144l-52 -51v-93h-140z" />
<glyph unicode="l" horiz-adv-x="230" d="M46 0v494h138v-494h-138z" />
<glyph unicode="m" horiz-adv-x="690" d="M43 0v358h127v-52q28 32 56.5 46t67.5 14q43 0 68 -15.5t40 -44.5q33 35 60 47.5t65 12.5q58 0 90 -34.5t32 -106.5v-225h-137v204q0 24 -9 36q-14 19 -34 19q-25 0 -39.5 -17.5t-14.5 -56.5v-185h-138v197q0 24 -3 32q-4 14 -15 22t-25 8q-24 0 -39 -17.5t-15 -58.5 v-183h-137z" />
<glyph unicode="n" horiz-adv-x="460" d="M41 0v358h128v-59q29 36 58.5 51.5t71.5 15.5q56 0 88.5 -34t32.5 -104v-228h-138v197q0 33 -12.5 47.5t-34.5 14.5q-25 0 -40.5 -19t-15.5 -68v-172h-138z" />
<glyph unicode="o" horiz-adv-x="460" d="M25 178q0 81 55 134.5t149 53.5q108 0 162 -62q44 -51 44 -124q0 -83 -54.5 -135.5t-150.5 -52.5q-86 0 -140 44q-65 54 -65 142zM162 178q0 -48 19.5 -70.5t48.5 -22.5t48.5 22.5t19.5 71.5q0 47 -19.5 70t-47.5 23q-30 0 -49.5 -23t-19.5 -71z" />
<glyph unicode="p" horiz-adv-x="460" d="M42 -136v494h128v-53q27 33 49 45q30 16 67 16q71 0 110.5 -55t39.5 -136q0 -89 -42.5 -136t-108.5 -47q-32 0 -58 11t-46 31v-170h-139zM179 178q0 -43 18 -63t46 -20q23 0 39.5 19.5t16.5 66.5q0 43 -17 63.5t-41 20.5q-26 0 -44 -20.5t-18 -66.5z" />
<glyph unicode="q" horiz-adv-x="460" d="M24 173q0 59 19.5 104t54 67t77.5 22q35 0 66 -16q22 -12 49 -45v53h128v-494h-139v170q-20 -20 -46 -31t-58 -11q-65 0 -108 47t-43 134zM161 177q0 -43 16.5 -62.5t39.5 -19.5q28 0 46 20t18 63q0 46 -17.5 66.5t-44.5 20.5q-24 0 -41 -20.5t-17 -67.5z" />
<glyph unicode="r" horiz-adv-x="306" d="M43 0v358h128v-59q19 38 38.5 52.5t48.5 14.5q30 0 66 -19l-42 -98q-24 10 -38 10q-27 0 -43 -22q-20 -31 -20 -117v-120h-138z" />
<glyph unicode="s" horiz-adv-x="422" d="M17 99l136 13q8 -24 23.5 -34.5t40.5 -10.5q28 0 43 12q12 8 12 22t-15 23q-12 5 -60 13q-71 13 -99 23.5t-47 35.5t-19 58q0 35 20.5 61t57 38.5t96.5 12.5q64 0 94.5 -10t51 -30.5t34.5 -55.5l-131 -13q-5 18 -16 26q-17 10 -40 10t-33.5 -8t-10.5 -20q0 -13 13 -20 q14 -6 59 -12q68 -7 101.5 -21t51 -40t17.5 -56q0 -31 -18.5 -60.5t-59 -46.5t-109.5 -17q-98 0 -139.5 28t-53.5 79z" />
<glyph unicode="t" horiz-adv-x="306" d="M19 258v100h51v66l137 70v-136h75v-100h-75v-128q0 -22 4 -29q7 -12 24 -12q15 0 42 9l11 -95q-51 -11 -95 -11q-52 0 -76.5 13t-35.5 40t-11 87v126h-51z" />
<glyph unicode="u" horiz-adv-x="460" d="M40 130v228h138v-197q0 -33 12.5 -47.5t35.5 -14.5q24 0 40 19t16 68v172h136v-358h-128v58q-28 -36 -57 -51t-72 -15q-57 0 -89 33.5t-32 104.5z" />
<glyph unicode="v" horiz-adv-x="422" d="M1 358h143l69 -227l72 227h138l-152 -358h-121z" />
<glyph unicode="w" horiz-adv-x="651" d="M1 358h133l57 -226l73 226h124l75 -226l58 226h132l-132 -358h-122l-73 215l-69 -215h-123z" />
<glyph unicode="x" horiz-adv-x="460" d="M3 0l131 187l-124 171h163l57 -100l66 100h151l-121 -171l130 -187h-160l-66 115l-78 -115h-149z" />
<glyph unicode="y" horiz-adv-x="422" d="M1 358h145l74 -239l68 239h136l-142 -383q-24 -65 -49 -88q-36 -32 -109 -32q-30 0 -92 8l-11 96q30 -10 66 -10q25 0 39.5 11t25.5 40z" />
<glyph unicode="z" horiz-adv-x="384" d="M12 0v89l172 175h-158v94h332v-81l-181 -183h192v-94h-357z" />
<glyph unicode="{" horiz-adv-x="319" d="M30 302v41q0 19 16 22q30 5 53.5 34t23.5 78v163q0 30 9.5 53.5t24.5 39.5t33.5 24t36.5 8h67q11 0 19 -8t8 -19v-26q0 -11 -8 -19t-19 -8h-17q-16 0 -25.5 -6.5t-15 -18t-7 -25.5t-1.5 -29v-153q0 -34 -10.5 -57.5t-25 -39t-29 -23t-23.5 -9.5q10 -2 25 -8.5t29 -21 t24 -39t10 -61.5v-186q0 -15 1.5 -30.5t7 -28.5t15 -21.5t25.5 -8.5h17q11 0 19 -8t8 -19v-26q0 -11 -8 -19t-19 -8h-67q-19 0 -37.5 8t-33.5 24t-24 39.5t-9 53.5v205q0 25 -7 45.5t-18 35t-25 23t-28 9.5q-15 1 -15 20z" />
<glyph unicode="|" horiz-adv-x="243" d="M66 -222v944q0 11 8.5 19.5t19.5 8.5h60q11 0 19.5 -8.5t8.5 -19.5v-944q0 -11 -8.5 -19.5t-19.5 -8.5h-60q-11 0 -19.5 8.5t-8.5 19.5z" />
<glyph unicode="}" horiz-adv-x="319" d="M5 -108q0 11 8 19t19 8h17q16 0 25.5 8.5t15 21.5t7 28.5t1.5 30.5v186q0 37 10.5 61.5t25 39.5t29 21.5t23.5 7.5q-11 2 -26.5 11t-29 24.5t-23 39t-9.5 54.5v153q0 15 -1.5 29t-7 25.5t-15 18t-25.5 6.5h-17q-11 0 -19 8t-8 19v26q0 11 8 19t19 8h67q18 0 36.5 -8 t33.5 -24t24.5 -39.5t9.5 -53.5v-163q0 -49 23.5 -78t53.5 -34q16 -3 16 -22v-41q0 -19 -15 -20q-14 -1 -28 -9.5t-25 -23t-18 -35t-7 -45.5v-205q0 -30 -9 -53.5t-24 -39.5t-33.5 -24t-37.5 -8h-67q-11 0 -19 8t-8 19v26z" />
<glyph unicode="~" horiz-adv-x="530" d="M34.5 295q1.5 8 6.5 17q8 14 20.5 29t28 27t34.5 19.5t41 7.5q26 0 52.5 -9.5t54.5 -22.5q28 -12 55 -25t52 -13q22 0 35 11t24 23q8 9 18 7.5t17 -9.5l26 -29q8 -9 6.5 -17t-6.5 -17q-8 -14 -20 -29t-28 -27t-35 -19.5t-41 -7.5q-26 0 -53 10.5t-54 22.5 q-28 13 -55.5 25t-51.5 12q-23 0 -35.5 -11.5t-23.5 -22.5q-10 -10 -19.5 -7.5t-15.5 9.5l-26 29q-8 9 -6.5 17z" />
<glyph unicode="&#xa1;" horiz-adv-x="344" d="M117 579q0 25 15.5 41t39.5 16q23 0 39.5 -16.5t16.5 -40.5q0 -23 -16.5 -39t-39.5 -16t-39 16t-16 39zM120 21l20 412q0 6 3 11t11 5h38q5 0 9 -5t5 -10l19 -415q1 -13 -14.5 -23.5t-37.5 -10.5t-38 10.5t-15 25.5z" />
<glyph unicode="&#xa2;" horiz-adv-x="544" d="M65 222q0 48 12.5 89t37.5 72t61.5 50t84.5 22v89q0 9 6 15.5t15 6.5t15.5 -5.5t6.5 -16.5v-89q33 -2 65 -10.5t62 -21.5q4 -2 10 -8t6 -14v-83q0 -5 -4.5 -10t-10.5 -5h-16q-11 0 -13.5 6t-3.5 9q-9 42 -31 66t-64 29v-382q37 5 59 27t33 59q1 4 6.5 10t14.5 6h16 q16 0 19 -11t1 -18q-38 -104 -149 -115v-92q0 -8 -6 -14.5t-15 -6.5t-15.5 6.5t-6.5 14.5v91q-48 3 -84.5 22.5t-61 51t-37.5 72.5t-13 88zM154 222q0 -30 4 -62t15.5 -59t32.5 -46.5t55 -23.5v382q-34 -5 -55 -24t-32.5 -46t-15.5 -59t-4 -62z" />
<glyph unicode="&#xa3;" horiz-adv-x="398" d="M28 14v38q0 8 2.5 10.5t10.5 2.5h51q5 21 10 44t5 66q0 11 -0.5 21t-1.5 19h-63q-9 0 -11.5 2.5t-2.5 11.5v38q0 8 2.5 10.5t11.5 2.5h50q-4 15 -6.5 35t-2.5 37q0 32 11 60t33 48.5t56 32.5t80 12q23 0 45.5 -4.5t40.5 -11t29 -14.5t11 -15q0 -2 -1 -4.5t-2 -4.5 l-19 -38q-4 -6 -8 -6t-10.5 5t-18.5 10.5t-29.5 10.5t-42.5 5q-58 0 -78.5 -20.5t-20.5 -62.5q0 -17 2 -38t6 -37h113q9 0 11.5 -2.5t2.5 -10.5v-38q0 -9 -3 -11.5t-11 -2.5h-100q3 -21 3 -42q0 -41 -5.5 -64.5t-9.5 -43.5h210q5 0 9 -1.5t4 -6.5q0 -6 -3 -13l-15 -34 q-2 -5 -4.5 -7.5t-10.5 -2.5h-317q-8 0 -10.5 2.5t-2.5 11.5z" />
<glyph unicode="&#xa5;" horiz-adv-x="544" d="M2 600q0 10 7 16.5t16 6.5h167q9 0 16 -6t7 -16q0 -9 -7.5 -15.5t-15.5 -6.5h-41l143 -252l142 252h-38q-8 0 -15.5 6.5t-7.5 15.5q0 10 7 16t16 6h116q8 0 15.5 -6.5t7.5 -16.5q0 -9 -7 -15t-16 -6h-27l-117 -207h79q11 0 17.5 -6t6.5 -15q0 -10 -7 -16.5t-16 -6.5h-105 h-1l-31 -53v-33h136q11 0 17.5 -6t6.5 -16q0 -9 -7 -15.5t-16 -6.5h-137v-153h47q9 0 16 -6.5t7 -15.5q0 -10 -7.5 -16.5t-15.5 -6.5h-178q-9 0 -15.5 6t-6.5 16q0 9 7 16t15 7h48v153h-136q-9 0 -16 6t-7 15q0 10 7.5 16.5t15.5 6.5h136v27l-34 59h-102q-9 0 -16 6t-7 16 q0 9 7.5 15.5t15.5 6.5h76l-119 207h-25q-10 0 -17 6t-7 15z" />
<glyph unicode="&#xa7;" horiz-adv-x="427" d="M38 300q0 45 27 71t68 37q-30 18 -48.5 43.5t-18.5 62.5q0 32 13 55t34.5 37.5t49 21.5t55.5 7q29 0 58 -4.5t55 -13.5q3 -2 9 -6.5t6 -14.5v-54q0 -5 -4.5 -10t-9.5 -5h-10q-9 0 -12 6.5t-4 9.5q-6 26 -29.5 37.5t-49.5 11.5q-36 0 -63 -17.5t-27 -57.5q0 -22 18.5 -40 t46.5 -35.5t61 -35t61 -39t46.5 -47.5t18.5 -60q0 -46 -26 -70.5t-66 -40.5q32 -20 48 -46t16 -64q0 -33 -14 -56t-36.5 -37.5t-51 -21t-56.5 -6.5q-30 0 -59.5 4t-58.5 13q-5 2 -12 7.5t-7 13.5v57q0 5 4.5 10.5t9.5 5.5h12q9 0 11.5 -7.5t3.5 -12.5q8 -28 34 -37.5 t55 -9.5q18 0 35 4.5t30 13.5t21 23.5t8 34.5q0 25 -18.5 44.5t-46.5 37t-61 35t-61 38t-46.5 46.5t-18.5 61zM106 314q0 -21 19.5 -43t46.5 -42t55 -36.5t45 -25.5q21 14 34.5 33.5t13.5 46.5q0 25 -18.5 46.5t-44 40t-53 32.5t-45.5 24q-23 -14 -38 -31t-15 -45z" />
<glyph unicode="&#xa8;" horiz-adv-x="427" d="M83 606q0 20 14 34.5t34 14.5q21 0 35 -14t14 -35q0 -22 -13 -35t-36 -13q-20 0 -34 14t-14 34zM247 606q0 21 14.5 35t34.5 14t34.5 -14.5t14.5 -34.5t-14 -34t-35 -14q-22 0 -35.5 13t-13.5 35z" />
<glyph unicode="&#xa9;" horiz-adv-x="556" d="M43 221q0 48 18.5 91t50.5 75t74.5 50.5t91.5 18.5q48 0 91 -18.5t75 -50.5t50.5 -75t18.5 -91q0 -49 -18.5 -91.5t-50.5 -74.5t-75 -50.5t-91 -18.5q-49 0 -91.5 18.5t-74.5 50.5t-50.5 74.5t-18.5 91.5zM78 221q0 -41 16 -77.5t43 -63.5t63.5 -43t77.5 -16t77.5 16 t63.5 43t43 63.5t16 77.5t-16 77.5t-43 63.5t-63.5 43t-77.5 16t-77.5 -16t-63.5 -43t-43 -63.5t-16 -77.5zM153 225q0 29 11.5 53.5t30.5 42.5t43.5 28t50.5 10q21 0 36.5 -4.5t27.5 -11t19.5 -13t11.5 -10.5l-26 -33q-9 8 -26 19.5t-43 11.5q-16 0 -32.5 -6t-30 -18 t-22 -29.5t-8.5 -39.5q0 -23 8.5 -40.5t22 -29t29 -17.5t30.5 -6q32 0 47.5 11t24.5 19l26 -32q-4 -4 -11.5 -10.5t-19 -13t-27.5 -11t-37 -4.5q-27 0 -51.5 10t-43 28t-30 42.5t-11.5 53.5z" />
<glyph unicode="&#xaa;" horiz-adv-x="407" d="M49 409q0 42 23.5 63.5t58.5 29.5t75 8h72v22q0 38 -25 56t-65 18q-30 0 -50.5 -11t-28.5 -37l-3 -6q-2 -4 -8 -4h-11q-6 0 -9 5q-2 2 -2 5v44q0 5 4.5 8.5t7.5 4.5q25 9 49.5 14.5t54.5 5.5q69 0 107.5 -30.5t38.5 -94.5v-163h27q8 0 13 -4.5t5 -11.5t-5 -11t-13 -4h-69 q-8 0 -13 4t-5 11v18q-20 -23 -46.5 -32.5t-58.5 -9.5q-53 0 -88.5 25.5t-35.5 76.5zM115 409q0 -35 22 -53t59 -18q38 0 60 20.5t22 54.5v66h-76q-40 0 -63.5 -15.5t-23.5 -54.5z" />
<glyph unicode="&#xab;" horiz-adv-x="523" d="M66 242v17q0 7 3 12q2 3 4 4l162 143q4 3 8 5.5t9 2.5q15 0 15 -15q0 -9 -5 -16l-124 -144l124 -145q5 -6 5 -16q0 -14 -15 -14q-9 0 -17 8l-162 143q-2 1 -4 4q-3 4 -3 11zM247 242v17q0 6 4 12q2 3 4 4l161 143q4 3 8 5.5t9 2.5q15 0 15 -15q0 -8 -4 -16l-125 -144 l125 -145q2 -4 3 -7t1 -9q0 -14 -15 -14q-9 0 -17 8l-161 143q-2 1 -4 4q-4 6 -4 11z" />
<glyph unicode="&#xac;" horiz-adv-x="716" d="M90 327q0 14 10 23.5t23 9.5h469q14 0 24 -8.5t10 -22.5v-180q0 -14 -9 -24t-23 -10t-23.5 10.5t-9.5 23.5l-1 146h-437q-14 0 -23.5 9t-9.5 23z" />
<glyph unicode="&#xad;" horiz-adv-x="423" d="M53 204v62q0 29 35 29h247q35 0 35 -29v-62q0 -29 -35 -29h-247q-35 0 -35 29z" />
<glyph unicode="&#xae;" horiz-adv-x="855" d="M118 310q0 64 24 120.5t66 98.5t98.5 66.5t120.5 24.5t120.5 -24.5t98.5 -66.5t66.5 -98.5t24.5 -120.5t-24.5 -120.5t-66.5 -98.5t-98.5 -66.5t-120.5 -24.5t-120.5 24.5t-98.5 66.5t-66 98.5t-24 120.5zM161 310q0 -55 21 -103.5t57 -85t84.5 -57.5t103.5 -21 q56 0 104.5 21t84.5 57t57 84.5t21 104.5q0 55 -21 104t-57 85t-84.5 57t-104.5 21q-55 0 -103.5 -21t-84.5 -57.5t-57 -85t-21 -103.5zM269 158q0 5 4.5 8.5t9.5 3.5h27v288h-27q-6 0 -10 3.5t-4 8.5t4.5 9t9.5 4h168q48 0 80.5 -21t32.5 -69q0 -38 -23.5 -56.5 t-61.5 -23.5q20 -5 31.5 -15.5t20.5 -27.5l54 -100h21q13 0 13 -12q0 -5 -4 -8.5t-9 -3.5h-52q-8 0 -11 2.5t-5 5.5l-53 99q-13 23 -25.5 36t-43.5 13h-55v-132h33q13 0 13 -12q0 -5 -4 -8.5t-9 -3.5h-111q-14 0 -14 12zM361 327h73q73 0 73 66q0 65 -73 65h-73v-131z" />
<glyph unicode="&#xb0;" horiz-adv-x="294" d="M43 197q3 27 11.5 46t19 33t22.5 23t24 16q10 5 25.5 9t38.5 1t37 -11t22 -18t11.5 -20.5t4.5 -17.5t2 -19t-2.5 -28.5t-13 -35.5t-29.5 -39q-19 -19 -37.5 -27.5t-34.5 -11.5t-28 -1.5t-17 2.5q-4 1 -14.5 5.5t-21 16t-17.5 30t-3 47.5zM105 206q-7 -21 0.5 -37 t26.5 -15q15 1 27.5 8t21.5 18t14 24.5t4 26.5q-1 26 -25 30q-27 5 -44 -13.5t-25 -41.5z" />
<glyph unicode="&#xb1;" horiz-adv-x="716" d="M91 34q0 14 10.5 24.5t24.5 10.5h466q14 0 24.5 -9.5t10.5 -24.5q0 -14 -9.5 -24.5t-25.5 -10.5l-466 -1q-14 0 -24.5 10t-10.5 25zM91 337q0 15 10.5 25t24.5 10h197v129q0 14 10 24.5t25 10.5q14 0 24.5 -9.5t10.5 -25.5v-129h199q14 0 24.5 -9.5t10.5 -24.5 q0 -14 -9.5 -24.5t-25.5 -10.5h-199v-126q0 -14 -10 -24.5t-24 -10.5q-15 0 -25.5 10.5t-10.5 24.5v126h-197q-14 0 -24.5 9.5t-10.5 24.5z" />
<glyph unicode="&#xb4;" horiz-adv-x="218" d="M46 326.5q0 30.5 5.5 58t13.5 37.5q18 23 48 27.5t57 -6.5q20 -8 24.5 -27t0 -40.5t-13 -41.5t-13.5 -30q-6 -12 -13 -25.5t-17.5 -23.5t-25 -15t-35.5 1q-17 4 -24 29.5t-7 56z" />
<glyph unicode="&#xb5;" horiz-adv-x="556" d="M34 -156q0 10 7.5 16.5t15.5 6.5h41v532h-37q-10 0 -16.5 6t-6.5 16q0 9 7 16t16 7h92q9 0 16 -6.5t7 -15.5v-237q0 -25 2 -50t10.5 -45.5t26.5 -33t51 -12.5q32 0 53 13.5t33.5 35.5t17.5 49.5t5 54.5v202h-34q-9 0 -16 6t-7 16q0 9 7.5 16t15.5 7h88q10 0 16.5 -6.5 t6.5 -15.5v-377h41q9 0 16 -6.5t7 -15.5q0 -10 -7.5 -16.5t-15.5 -6.5h-95q-9 0 -16 6t-7 16v56q-17 -36 -47 -63t-73 -27q-26 0 -44.5 8.5t-34.5 19.5v-149h40q9 0 15.5 -6t6.5 -16q0 -9 -7 -16t-15 -7h-159q-9 0 -16 6.5t-7 15.5z" />
<glyph unicode="&#xb6;" horiz-adv-x="544" d="M66 447q0 44 15.5 77t42.5 55t63 33t77 11h202q12 0 17.5 -6.5t5.5 -16.5q0 -9 -6.5 -15.5t-15.5 -6.5l-28 1l-1 -642q0 -10 -6 -15t-14 -5q-23 0 -23 21v641h-97l1 -641q0 -10 -6.5 -15.5t-15.5 -5.5q-10 0 -16.5 5.5t-6.5 15.5v333q-40 3 -74 14.5t-59.5 33.5t-40 53.5 t-14.5 74.5z" />
<glyph unicode="&#xb7;" horiz-adv-x="272" d="M79 296q0 25 16 40.5t40 15.5q23 0 39.5 -16t16.5 -40q0 -23 -16.5 -39t-39.5 -16t-39.5 15.5t-16.5 39.5z" />
<glyph unicode="&#xb8;" horiz-adv-x="427" d="M120 -134q0 13 7.5 17.5t18.5 5.5q10 0 20.5 -1.5t18.5 -1.5q20 1 36 9.5t15 31.5q0 10 -4 18t-9.5 15.5t-10 14t-4.5 12.5t5 9.5t11 3.5q17 0 31 -15q17 -18 27.5 -37t10.5 -42q0 -21 -9 -35t-23 -22t-32 -11.5t-36 -3.5q-12 0 -24.5 1t-23.5 4.5t-18 9.5t-7 17z" />
<glyph unicode="&#xba;" horiz-adv-x="402" d="M39 471q0 74 43.5 119t117.5 45q75 0 118.5 -45t43.5 -119q0 -75 -43.5 -119t-118.5 -44t-118 44t-43 119zM112 471q0 -22 3.5 -45.5t13 -42.5t27 -31.5t44.5 -12.5q28 0 45.5 12t27.5 31.5t13.5 42.5t3.5 46q0 22 -3.5 45.5t-13.5 43t-27.5 31.5t-45.5 12 q-27 0 -44.5 -12.5t-27 -31.5t-13 -42.5t-3.5 -45.5z" />
<glyph unicode="&#xbb;" horiz-adv-x="523" d="M75 90q0 10 5 16l124 145l-124 144q-5 7 -5 16q0 15 15 15q5 0 9 -2.5t8 -5.5l162 -143q1 -1 3 -4q4 -6 4 -12v-17q0 -5 -4 -11q-2 -3 -3 -4l-162 -143q-8 -8 -17 -8q-15 0 -15 14zM256 90q0 10 5 16l125 145l-125 144q-5 7 -5 16q0 15 16 15q5 0 9 -2.5t8 -5.5l161 -143 q2 -1 4 -4q4 -6 4 -12v-17q0 -5 -4 -11q-2 -3 -4 -4l-161 -143q-8 -8 -17 -8q-16 0 -16 14z" />
<glyph unicode="&#xbf;" horiz-adv-x="459" d="M58 154q0 44 14.5 77t39.5 57t59 39.5t73 23.5v90q0 4 3.5 10.5t11.5 6.5h22q6 0 10.5 -5t4.5 -10v-106q0 -8 -5.5 -13.5t-9.5 -6.5q-59 -18 -97 -57.5t-38 -106.5q0 -55 28.5 -89t85.5 -34q52 0 76.5 26t36.5 64q2 4 4.5 10t11.5 6h14q5 0 9.5 -5t4.5 -10v-80 q0 -7 -5 -12.5t-9 -7.5q-35 -14 -72 -23t-75 -9t-73.5 9.5t-63.5 29.5t-44.5 51t-16.5 75zM214 579q0 24 15.5 40.5t39.5 16.5q25 0 40.5 -15.5t15.5 -41.5q0 -23 -16.5 -39t-39.5 -16t-39 16t-16 39z" />
<glyph unicode="&#xf7;" horiz-adv-x="500" d="M45 211v38q0 8 2.5 12t10.5 4h383q14 0 14 -14v-43q0 -10 -14 -10h-382q-14 0 -14 13zM200 79q0 20 15 34.5t35 14.5t35 -14.5t15 -34.5t-15 -34.5t-35 -14.5t-35 14.5t-15 34.5zM200 384q0 20 15 34.5t35 14.5t35 -14.5t15 -34.5t-15 -34.5t-35 -14.5t-35 14.5t-15 34.5 z" />
<glyph unicode="&#x192;" horiz-adv-x="525" d="M10 334q0 13 9.5 22t22.5 9q17 0 26 -16l100 -175l55 -130h26l35 129l216 532q8 20 27 20q13 0 23 -9t10 -22q0 -5 -3 -12l-274 -663q-2 -6 -11.5 -12.5t-16.5 -6.5h-34q-17 0 -26 15l-180 303q-5 8 -5 16z" />
<glyph unicode="&#x2c6;" horiz-adv-x="427" d="M92 542q0 5 5 12.5t8 12.5l68 108q2 2 5 4q2 2 5.5 3.5t8.5 1.5h44q5 0 8.5 -1.5t5.5 -3.5q3 -2 5 -4l68 -108q3 -5 8 -12.5t5 -12.5q0 -8 -6 -11.5t-14 -3.5t-13.5 1t-10.5 8l-78 100l-78 -101q-4 -5 -10.5 -6.5t-13.5 -1.5q-8 0 -14 3.5t-6 11.5z" />
<glyph unicode="&#x2da;" horiz-adv-x="450" d="M105 670q0 25 9 47t25.5 38.5t38 25.5t47.5 9q25 0 47 -9t38.5 -25.5t25.5 -38.5t9 -47q0 -26 -9 -48t-25.5 -38t-38.5 -25.5t-47 -9.5q-26 0 -47.5 9.5t-38 25.5t-25.5 38t-9 48zM158 670q0 -29 19 -48t48 -19t48 19t19 48q0 28 -19.5 47t-47.5 19q-29 0 -48 -18.5 t-19 -47.5z" />
<glyph unicode="&#x2dc;" horiz-adv-x="427" d="M77 567q0 16 5 33t14.5 31t25 23.5t36.5 9.5q22 0 37 -10t27.5 -22.5t24 -22.5t25.5 -10q20 0 27.5 15t9.5 32q1 5 5 11.5t15 6.5q8 0 15 -6t7 -15q0 -16 -5 -33t-15 -31.5t-25 -23.5t-36 -9q-22 0 -37 10t-27 22.5t-23.5 22.5t-25.5 10q-20 0 -28 -15t-10 -32 q-1 -5 -5 -11.5t-15 -6.5q-9 0 -15.5 6t-6.5 15z" />
<glyph unicode="&#x5b0;" d="M-40 -116q0 17 11.5 28.5t28.5 11.5t28.5 -11.5t11.5 -28.5t-11.5 -28.5t-28.5 -11.5t-28.5 11.5t-11.5 28.5zM-40 -237q0 17 11.5 28.5t28.5 11.5t28.5 -11.5t11.5 -28.5t-11.5 -28.5t-28.5 -11.5t-28.5 11.5t-11.5 28.5z" />
<glyph unicode="&#x5b1;" d="M-170 -116q0 17 11.5 28.5t28.5 11.5t28.5 -11.5t11.5 -28.5t-11.5 -28.5t-28.5 -11.5t-28.5 11.5t-11.5 28.5zM-104 -237q0 17 11.5 28.5t28.5 11.5t28.5 -11.5t11.5 -28.5t-11.5 -28.5t-28.5 -11.5t-28.5 11.5t-11.5 28.5zM-38 -116q0 17 11.5 28.5t28.5 11.5 t28.5 -11.5t11.5 -28.5t-11.5 -28.5t-28.5 -11.5t-28.5 11.5t-11.5 28.5zM88 -116q0 17 11.5 28.5t28.5 11.5t28.5 -11.5t11.5 -28.5t-11.5 -28.5t-28.5 -11.5t-28.5 11.5t-11.5 28.5zM88 -237q0 17 11.5 28.5t28.5 11.5t28.5 -11.5t11.5 -28.5t-11.5 -28.5t-28.5 -11.5 t-28.5 11.5t-11.5 28.5z" />
<glyph unicode="&#x5b2;" d="M-154 -100q0 9 2.5 11.5t11.5 2.5h160q8 0 11 -2.5t3 -11.5v-22q0 -8 -2.5 -11t-11.5 -3h-160q-9 0 -11.5 3t-2.5 11v22zM74 -116q0 17 11.5 28.5t28.5 11.5t28.5 -11.5t11.5 -28.5t-11.5 -28.5t-28.5 -11.5t-28.5 11.5t-11.5 28.5zM74 -237q0 17 11.5 28.5t28.5 11.5 t28.5 -11.5t11.5 -28.5t-11.5 -28.5t-28.5 -11.5t-28.5 11.5t-11.5 28.5z" />
<glyph unicode="&#x5b3;" d="M-154 -100q0 9 2.5 11.5t11.5 2.5h160q8 0 11 -2.5t3 -11.5v-22q0 -8 -2.5 -11t-11.5 -3h-58l5 -39v-81q0 -8 -2.5 -10t-10.5 -2h-28q-8 0 -10.5 2t-2.5 10v81l5 39h-58q-9 0 -11.5 3t-2.5 11v22zM74 -116q0 17 11.5 28.5t28.5 11.5t28.5 -11.5t11.5 -28.5t-11.5 -28.5 t-28.5 -11.5t-28.5 11.5t-11.5 28.5zM74 -237q0 17 11.5 28.5t28.5 11.5t28.5 -11.5t11.5 -28.5t-11.5 -28.5t-28.5 -11.5t-28.5 11.5t-11.5 28.5z" />
<glyph unicode="&#x5b4;" d="M-40 -116q0 17 11.5 28.5t28.5 11.5t28.5 -11.5t11.5 -28.5t-11.5 -28.5t-28.5 -11.5t-28.5 11.5t-11.5 28.5z" />
<glyph unicode="&#x5b5;" d="M-110 -116q0 17 11.5 28.5t28.5 11.5t28.5 -11.5t11.5 -28.5t-11.5 -28.5t-28.5 -11.5t-28.5 11.5t-11.5 28.5zM30 -116q0 17 11.5 28.5t28.5 11.5t28.5 -11.5t11.5 -28.5t-11.5 -28.5t-28.5 -11.5t-28.5 11.5t-11.5 28.5z" />
<glyph unicode="&#x5b6;" d="M-108 -116q0 17 11.5 28.5t28.5 11.5t28.5 -11.5t11.5 -28.5t-11.5 -28.5t-28.5 -11.5t-28.5 11.5t-11.5 28.5zM-40 -237q0 17 11.5 28.5t28.5 11.5t28.5 -11.5t11.5 -28.5t-11.5 -28.5t-28.5 -11.5t-28.5 11.5t-11.5 28.5zM28 -116q0 17 11.5 28.5t28.5 11.5t28.5 -11.5 t11.5 -28.5t-11.5 -28.5t-28.5 -11.5t-28.5 11.5t-11.5 28.5z" />
<glyph unicode="&#x5b7;" d="M-94 -100q0 9 2.5 11.5t11.5 2.5h160q8 0 11 -2.5t3 -11.5v-22q0 -8 -2.5 -11t-11.5 -3h-160q-9 0 -11.5 3t-2.5 11v22z" />
<glyph unicode="&#x5b8;" d="M-94 -100q0 9 2.5 11.5t11.5 2.5h160q8 0 11 -2.5t3 -11.5v-22q0 -8 -2.5 -11t-11.5 -3h-58l5 -39v-81q0 -8 -2.5 -10t-10.5 -2h-28q-8 0 -10.5 2t-2.5 10v81l5 39h-58q-9 0 -11.5 3t-2.5 11v22z" />
<glyph unicode="&#x5b9;" d="M-40 582q0 17 11.5 28.5t28.5 11.5t28.5 -11.5t11.5 -28.5t-11.5 -28.5t-28.5 -11.5t-28.5 11.5t-11.5 28.5z" />
<glyph unicode="&#x5bb;" d="M-144 -113q0 17 11.5 28.5t28.5 11.5t28.5 -11.5t11.5 -28.5t-11.5 -28.5t-28.5 -11.5t-28.5 11.5t-11.5 28.5zM-40 -175q0 17 11.5 28.5t28.5 11.5t28.5 -11.5t11.5 -28.5t-11.5 -28.5t-28.5 -11.5t-28.5 11.5t-11.5 28.5zM64 -237q0 17 11.5 28.5t28.5 11.5t28.5 -11.5 t11.5 -28.5t-11.5 -28.5t-28.5 -11.5t-28.5 11.5t-11.5 28.5z" />
<glyph unicode="&#x5bc;" d="M-40 240q0 17 11.5 28.5t28.5 11.5t28.5 -11.5t11.5 -28.5t-11.5 -28.5t-28.5 -11.5t-28.5 11.5t-11.5 28.5z" />
<glyph unicode="&#x5bd;" horiz-adv-x="1000" />
<glyph unicode="&#x5be;" horiz-adv-x="399" d="M71 455v26q0 19 15 19h227q15 0 15 -19v-26q0 -18 -15 -18h-227q-15 0 -15 18z" />
<glyph unicode="&#x5bf;" horiz-adv-x="477" d="M61 220v27q0 18 15 18h326q15 0 15 -18v-27q0 -18 -15 -18h-327q-14 0 -14 18z" />
<glyph unicode="&#x5c1;" d="M-40 582q0 17 11.5 28.5t28.5 11.5t28.5 -11.5t11.5 -28.5t-11.5 -28.5t-28.5 -11.5t-28.5 11.5t-11.5 28.5z" />
<glyph unicode="&#x5c2;" d="M-40 582q0 17 11.5 28.5t28.5 11.5t28.5 -11.5t11.5 -28.5t-11.5 -28.5t-28.5 -11.5t-28.5 11.5t-11.5 28.5z" />
<glyph unicode="&#x5d0;" horiz-adv-x="503" d="M31 452q3 13 15 21l36 27q14 11 28 10t26 -16l177 -229q10 7 19 19.5t9 28.5v70h-41q-14 0 -26.5 7.5t-12.5 26.5v49q0 19 12 26t27 7h121q20 0 30.5 -13t10.5 -26v-142q0 -49 -20 -83t-58 -59l75 -96q13 -17 12.5 -29.5t-17.5 -26.5l-33 -25q-13 -9 -27.5 -9t-27.5 17 l-190 244q-11 -13 -14 -34t-3 -63v-41l35 1q20 0 28 -11.5t8 -25.5v-39q0 -16 -8 -27t-27 -11h-117q-16 0 -27.5 9.5t-11.5 25.5l1 143q0 56 13 101t45 71l-18 22q-10 13 -18 24q-11 13 -20 26q-14 17 -11 30z" />
<glyph unicode="&#x5d1;" horiz-adv-x="451" d="M28 33v49q0 33 35 33h222q-37 13 -37 61v208h-178q-35 0 -35 33v50q0 33 35 33h263q15 0 26 -11q9 -11 9 -22v-352h31q35 0 35 -33v-48q0 -34 -35 -34h-336q-35 0 -35 33z" />
<glyph unicode="&#x5d2;" horiz-adv-x="360" d="M12 44q0 8 5 18l93 163q21 39 51 39q14 0 29 -9l7 -4v133h-48q-35 0 -35 33v50q0 33 35 33h133q15 0 26 -11q9 -11 9 -23v-297q0 -76 22 -97q9 -9 9 -21q0 -11 -7 -18l-29 -29q-20 -18 -40 -11q-72 31 -75 144l-75 -132q-11 -17 -28 -17q-12 0 -64 28q-18 9 -18 28z" />
<glyph unicode="&#x5d3;" horiz-adv-x="424" d="M17 417v49q0 34 35 34h317q35 0 35 -34v-49q0 -33 -35 -33h-41v-351q0 -34 -36 -34h-50q-34 0 -34 34v288q0 53 40 63h-196q-35 0 -35 33z" />
<glyph unicode="&#x5d4;" horiz-adv-x="446" d="M30 417v49q0 34 35 34h238q109 0 109 -105v-361q0 -34 -35 -34h-50q-35 0 -35 34v350h-227q-35 0 -35 33zM53 33v248q0 33 35 33h50q35 0 35 -33v-248q0 -33 -35 -33h-50q-35 0 -35 33z" />
<glyph unicode="&#x5d5;" horiz-adv-x="272" d="M25 417v49q0 34 36 34h132q16 0 26 -10.5t10 -23.5l-1 -433q0 -33 -35 -33h-50q-35 0 -35 33v351h-47q-36 0 -36 33z" />
<glyph unicode="&#x5d6;" horiz-adv-x="325" d="M28 417v49q0 34 35 34h201q35 0 35 -34v-49q0 -33 -35 -33h-46l36 -349q3 -28 -29 -36l-53 -5q-34 -3 -37 30l-31 303q-3 30 15 57h-56q-35 0 -35 33z" />
<glyph unicode="&#x5d7;" horiz-adv-x="483" d="M27 418v49q0 33 35 33h345q15 0 25 -10.5t10 -22.5v-433q0 -34 -35 -34h-50q-35 0 -35 34v350h-126v-351q0 -33 -35 -33h-50q-35 0 -35 33v292q0 50 32 59h-46q-35 0 -35 34z" />
<glyph unicode="&#x5d8;" horiz-adv-x="474" d="M42 34v432q0 34 35 34h50q35 0 35 -34v-351h68q48 0 70 20q23 23 23 81l-1 168h-49q-35 0 -35 33v50q0 33 35 33h135q35 0 35 -33v-235q0 -232 -223 -232h-143q-35 0 -35 34z" />
<glyph unicode="&#x5d9;" horiz-adv-x="266" d="M30 417v50q0 33 35 33h133q16 0 25.5 -10.5t9.5 -22.5v-237q0 -33 -35 -33h-50q-35 0 -35 33v154h-48q-35 0 -35 33z" />
<glyph unicode="&#x5da;" horiz-adv-x="392" d="M20 418v48q0 34 35 34h270q15 0 26 -12q8 -10 8 -22v-588q0 -34 -34 -34h-51q-35 0 -35 34v506h-184q-35 0 -35 34z" />
<glyph unicode="&#x5db;" horiz-adv-x="415" d="M24 417v49q0 34 35 34h288q35 0 35 -34v-229q0 -237 -222 -237h-97q-35 0 -35 34v47q0 34 35 34h107q92 0 92 107v162h-203q-35 0 -35 33z" />
<glyph unicode="&#x5dc;" horiz-adv-x="421" d="M19 418v87q0 80 32 126q12 17 32 17q9 0 17 -3l28 -13q22 -10 22 -29q0 -8 -3 -15q-11 -33 -11 -57v-31h219q35 0 35 -34v-269q0 -108 -61 -157q-52 -43 -140 -40q-35 2 -35 34v47q0 34 35 34q58 0 73 29q9 16 9 79v161h-217q-35 0 -35 34z" />
<glyph unicode="&#x5dd;" horiz-adv-x="482" d="M20 420v43q0 37 35 37h287q58 0 83.5 -23.5t25.5 -80.5v-283q0 -113 -109 -113h-235q-34 0 -34 36v348h-18q-35 0 -35 36zM161 384q31 -9 31 -53v-216h139v269h-170z" />
<glyph unicode="&#x5de;" horiz-adv-x="471" d="M24 417v49q0 34 35 34h272q109 0 109 -105v-291q0 -105 -109 -105h-76q-35 0 -35 34v48q0 34 35 34h64v269h-150q29 -6 29 -49q0 -7 -1 -11l-45 -303q-5 -29 -32 -29q-5 0 -8 1l-56 8q-28 4 -23 37l51 346h-25q-35 0 -35 33z" />
<glyph unicode="&#x5df;" horiz-adv-x="251" d="M15 418v48q0 34 35 34h133q15 0 26 -12q9 -9 9 -22v-588q0 -34 -35 -34h-50q-35 0 -35 34v507h-48q-34 0 -35 33z" />
<glyph unicode="&#x5e0;" horiz-adv-x="294" d="M17 34v47q0 32 35 34h23q44 0 57 22q14 23 14 93v154h-36q-35 0 -35 33v49q0 34 35 34h119q37 0 37 -34v-260q0 -206 -174 -206h-40q-35 0 -35 34z" />
<glyph unicode="&#x5e1;" horiz-adv-x="440" d="M38 47v415q0 16 10.5 27t25.5 11h235q106 0 106 -112v-152q0 -114 -43 -169q-52 -67 -179 -67h-110q-45 0 -45 47zM158 115h45q48 0 69 24q23 28 23 90v155h-137v-269z" />
<glyph unicode="&#x5e2;" horiz-adv-x="451" d="M23 34v48q0 13 10 23t25 10h72l-56 253q-9 42 -27 64q-8 11 -8 21q0 17 16 27l34 20q13 7 25 7q14 0 25 -10q36 -33 54 -114l47 -204q1 -5 1.5 -9t0.5 -9q0 -36 -22 -46q58 0 73 29q9 16 9 78l-1 244q0 34 35 34h51q34 0 34 -34l1 -277q0 -98 -63 -147q-54 -42 -143 -42 h-158q-35 0 -35 34z" />
<glyph unicode="&#x5e3;" horiz-adv-x="431" d="M19 261v205q0 34 35 34h236q107 0 107 -105v-517q0 -34 -34 -34h-51q-35 0 -35 34v506h-138v-73h47q35 0 35 -34v-49q0 -34 -35 -34h-103q-30 0 -47 19t-17 48z" />
<glyph unicode="&#x5e4;" horiz-adv-x="444" d="M27 263v202q0 35 38 35h242q109 0 109 -104v-163q0 -233 -223 -233h-97q-35 0 -35 33v47q0 34 35 34h106q49 1 70 22q23 23 23 81v167h-148v-72h47q35 0 35 -34v-49q0 -33 -35 -33h-103q-30 0 -48 20q-16 17 -16 47z" />
<glyph unicode="&#x5e5;" horiz-adv-x="436" d="M2 464q0 28 35 36l39 7q35 4 40 -31q1 -21 27 -63l97 -165q26 5 35 28q11 28 11 97v11h-36q-35 0 -35 34v49q0 33 35 33h120q35 0 35 -34l1 -117q0 -167 -109 -198l142 -240q5 -10 5 -18q0 -18 -17 -29l-44 -25q-10 -5 -19 -5q-19 0 -29 18l-292 495q-41 70 -41 117z" />
<glyph unicode="&#x5e6;" horiz-adv-x="461" d="M23 33v48q0 34 36 34h159q8 0 27 -1.5t48 -5.5q-67 36 -78 50l-144 184q-41 53 -46 111q-2 28 30 39l38 12q3 1 10 1q27 0 33 -26q9 -41 25 -60l127 -163q26 17 26 118v10h-35q-35 0 -35 34v48q0 34 35 34h119q36 0 36 -34v-116q0 -139 -77 -183l35 -44q4 -4 7.5 -6 t5.5 -4q18 -18 18 -32v-48q0 -33 -35 -33h-329q-36 0 -36 33z" />
<glyph unicode="&#x5e7;" horiz-adv-x="448" d="M22 422v42q0 36 38 36h324q16 0 25.5 -10.5t9.5 -23.5v-263q0 -200 -174 -200h-11q-30 0 -30 33v48q0 31 30 31h8q33 0 45 24t12 86v159h-239q-38 0 -38 38zM52 -120v395q0 35 34 35h51q35 0 35 -35v-395q0 -33 -35 -33h-51q-34 0 -34 33z" />
<glyph unicode="&#x5e8;" horiz-adv-x="412" d="M21 417v49q0 34 35 34h208q110 0 110 -105v-361q0 -34 -35 -34h-50q-36 0 -36 34v350h-197q-35 0 -35 33z" />
<glyph unicode="&#x5e9;" horiz-adv-x="612" d="M44 50v289v110v17q0 34 35 34h50q16 0 25.5 -10.5t9.5 -23.5v-351h113q-35 12 -35 63v288q0 34 35 34h50q35 0 35 -34v-351h9q49 0 69 20q23 23 23 81v168h-20q-35 0 -35 33v49q0 34 35 34h105q35 0 35 -34v-234q0 -232 -222 -232h-271q-46 0 -46 50z" />
<glyph unicode="&#x5ea;" horiz-adv-x="524" d="M17 27v47q0 34 35 34h4q49 0 62 28q7 15 7 79v169h-33q-35 0 -35 33v49q0 15 10.5 24.5t24.5 9.5h360q16 0 25.5 -10.5t9.5 -23.5l1 -432q0 -34 -35 -34h-51q-34 0 -34 34v350h-41h-74h-41q34 -13 34 -55v-150q0 -90 -44 -138.5t-129 -47.5h-21q-35 2 -35 34z" />
<glyph unicode="&#x5f0;" horiz-adv-x="544" d="M297 417v49q0 34 36 34h132q16 0 26 -10.5t10 -23.5l-1 -433q0 -33 -35 -33h-50q-35 0 -35 33v351h-47q-36 0 -36 33zM25 417v49q0 34 36 34h132q16 0 26 -10.5t10 -23.5l-1 -433q0 -33 -35 -33h-50q-35 0 -35 33v351h-47q-36 0 -36 33z" />
<glyph unicode="&#x5f1;" horiz-adv-x="538" d="M291 417v49q0 34 36 34h132q16 0 26 -10.5t10 -23.5l-1 -433q0 -33 -35 -33h-50q-35 0 -35 33v351h-47q-36 0 -36 33zM30 417v50q0 33 35 33h133q16 0 25.5 -10.5t9.5 -22.5v-237q0 -33 -35 -33h-50q-35 0 -35 33v154h-48q-35 0 -35 33z" />
<glyph unicode="&#x5f2;" horiz-adv-x="532" d="M296 417v50q0 33 35 33h133q16 0 25.5 -10.5t9.5 -22.5v-237q0 -33 -35 -33h-50q-35 0 -35 33v154h-48q-35 0 -35 33zM30 417v50q0 33 35 33h133q16 0 25.5 -10.5t9.5 -22.5v-237q0 -33 -35 -33h-50q-35 0 -35 33v154h-48q-35 0 -35 33z" />
<glyph unicode="&#x5f3;" horiz-adv-x="184" d="M17 396q0 4 2 10l41 147q6 25 32 25q5 0 15 -2l42 -13q25 -7 25 -29q0 -4 -2 -12l-56 -143q-9 -23 -33 -23q-3 0 -11 2l-30 9q-25 7 -25 29z" />
<glyph unicode="&#x5f4;" horiz-adv-x="292" d="M8 397q0 4 2 10l42 143q7 24 30 24q3 0 6 -0.5t7 -1.5l35 -11q26 -8 26 -28q0 -7 -3 -11l-53 -140q-9 -23 -33 -23q-3 0 -11 2l-23 7q-25 7 -25 29zM139 397q0 7 1 10l42 142q7 24 31 24q3 0 6 -0.5t7 -1.5l34 -11q24 -8 24 -30q0 -4 -2 -12l-53 -138q-9 -23 -31 -23 q-5 0 -11 2l-24 8q-24 7 -24 30z" />
<glyph unicode="&#x2000;" horiz-adv-x="395" />
<glyph unicode="&#x2001;" horiz-adv-x="790" />
<glyph unicode="&#x2002;" horiz-adv-x="395" />
<glyph unicode="&#x2003;" horiz-adv-x="790" />
<glyph unicode="&#x2004;" horiz-adv-x="263" />
<glyph unicode="&#x2005;" horiz-adv-x="197" />
<glyph unicode="&#x2006;" horiz-adv-x="131" />
<glyph unicode="&#x2007;" horiz-adv-x="131" />
<glyph unicode="&#x2008;" horiz-adv-x="98" />
<glyph unicode="&#x2009;" horiz-adv-x="158" />
<glyph unicode="&#x200a;" horiz-adv-x="43" />
<glyph unicode="&#x2010;" horiz-adv-x="423" d="M53 204v62q0 29 35 29h247q35 0 35 -29v-62q0 -29 -35 -29h-247q-35 0 -35 29z" />
<glyph unicode="&#x2011;" horiz-adv-x="423" d="M53 204v62q0 29 35 29h247q35 0 35 -29v-62q0 -29 -35 -29h-247q-35 0 -35 29z" />
<glyph unicode="&#x2012;" horiz-adv-x="423" d="M53 204v62q0 29 35 29h247q35 0 35 -29v-62q0 -29 -35 -29h-247q-35 0 -35 29z" />
<glyph unicode="&#x2013;" horiz-adv-x="399" d="M71 455v26q0 19 15 19h227q15 0 15 -19v-26q0 -18 -15 -18h-227q-15 0 -15 18z" />
<glyph unicode="&#x2014;" horiz-adv-x="477" d="M61 220v27q0 18 15 18h326q15 0 15 -18v-27q0 -18 -15 -18h-327q-14 0 -14 18z" />
<glyph unicode="&#x2018;" horiz-adv-x="184" d="M17 396q0 4 2 10l41 147q6 25 32 25q5 0 15 -2l42 -13q25 -7 25 -29q0 -4 -2 -12l-56 -143q-9 -23 -33 -23q-3 0 -11 2l-30 9q-25 7 -25 29z" />
<glyph unicode="&#x2019;" horiz-adv-x="184" d="M17 396q0 4 2 10l41 147q6 25 32 25q5 0 15 -2l42 -13q25 -7 25 -29q0 -4 -2 -12l-56 -143q-9 -23 -33 -23q-3 0 -11 2l-30 9q-25 7 -25 29z" />
<glyph unicode="&#x201a;" horiz-adv-x="218" d="M46 326.5q0 30.5 5.5 58t13.5 37.5q18 23 48 27.5t57 -6.5q20 -8 24.5 -27t0 -40.5t-13 -41.5t-13.5 -30q-6 -12 -13 -25.5t-17.5 -23.5t-25 -15t-35.5 1q-17 4 -24 29.5t-7 56z" />
<glyph unicode="&#x201c;" horiz-adv-x="292" d="M8 397q0 4 2 10l42 143q7 24 30 24q3 0 6 -0.5t7 -1.5l35 -11q26 -8 26 -28q0 -7 -3 -11l-53 -140q-9 -23 -33 -23q-3 0 -11 2l-23 7q-25 7 -25 29zM139 397q0 7 1 10l42 142q7 24 31 24q3 0 6 -0.5t7 -1.5l34 -11q24 -8 24 -30q0 -4 -2 -12l-53 -138q-9 -23 -31 -23 q-5 0 -11 2l-24 8q-24 7 -24 30z" />
<glyph unicode="&#x201d;" horiz-adv-x="292" d="M8 397q0 4 2 10l42 143q7 24 30 24q3 0 6 -0.5t7 -1.5l35 -11q26 -8 26 -28q0 -7 -3 -11l-53 -140q-9 -23 -33 -23q-3 0 -11 2l-23 7q-25 7 -25 29zM139 397q0 7 1 10l42 142q7 24 31 24q3 0 6 -0.5t7 -1.5l34 -11q24 -8 24 -30q0 -4 -2 -12l-53 -138q-9 -23 -31 -23 q-5 0 -11 2l-24 8q-24 7 -24 30z" />
<glyph unicode="&#x201e;" horiz-adv-x="292" d="M8 397q0 4 2 10l42 143q7 24 30 24q3 0 6 -0.5t7 -1.5l35 -11q26 -8 26 -28q0 -7 -3 -11l-53 -140q-9 -23 -33 -23q-3 0 -11 2l-23 7q-25 7 -25 29zM139 397q0 7 1 10l42 142q7 24 31 24q3 0 6 -0.5t7 -1.5l34 -11q24 -8 24 -30q0 -4 -2 -12l-53 -138q-9 -23 -31 -23 q-5 0 -11 2l-24 8q-24 7 -24 30z" />
<glyph unicode="&#x2020;" horiz-adv-x="427" d="M23 417q0 14 11 26t26 10l130 -15l-12 149q-2 14 9.5 25t25.5 11q15 0 26.5 -10.5t9.5 -25.5l-12 -148l131 14q15 2 25.5 -9t10.5 -26t-11 -27t-26 -10l-130 12l12 -441q0 -14 -10.5 -24.5t-25.5 -10.5q-14 0 -25.5 10.5t-10.5 25.5l14 440l-132 -12q-13 -2 -24.5 9.5 t-11.5 26.5z" />
<glyph unicode="&#x2021;" horiz-adv-x="427" d="M23 125q0 15 11 27t26 10l130 -15q-2 31 -8 61.5t-6 61.5q0 32 6.5 62t8.5 61l-132 -12q-13 -2 -24.5 9.5t-11.5 26.5q0 14 11 26t26 10l130 -15l-12 149q-2 14 9.5 25t25.5 11q15 0 26.5 -10.5t9.5 -25.5l-12 -148l131 14q15 2 25.5 -9t10.5 -26t-11 -27t-26 -10 l-130 12q4 -30 9.5 -61t5.5 -62q0 -30 -5.5 -61.5t-9.5 -60.5l131 14q15 2 25.5 -9.5t10.5 -25.5q0 -15 -11 -27t-26 -10l-130 12l12 -150q1 -14 -10 -24.5t-26 -10.5q-14 0 -26 10.5t-10 25.5l14 149l-132 -12q-13 -2 -24.5 9.5t-11.5 25.5z" />
<glyph unicode="&#x2022;" horiz-adv-x="350" d="M55 331q0 51 35 86q34 36 87 36q52 0 87 -36q36 -35 36 -86q0 -26 -9.5 -48.5t-26 -39t-39 -26t-48.5 -9.5t-48 9.5t-38.5 26t-26 39t-9.5 48.5z" />
<glyph unicode="&#x2026;" horiz-adv-x="535" d="M20 31v28q0 44 44 44t44 -44v-28q0 -44 -44 -44t-44 44zM199 31v28q0 45 44 45t44 -45v-28q0 -46 -44 -46t-44 46zM377 31v28q0 44 44 44t44 -44v-28q0 -44 -44 -44t-44 44z" />
<glyph unicode="&#x202f;" horiz-adv-x="158" />
<glyph unicode="&#x2030;" horiz-adv-x="1148" d="M47 465q0 34 8.5 65t26.5 54t45 37t64 14t64 -14t45 -37t26.5 -54t8.5 -65t-8.5 -65t-26 -54t-45 -37t-64.5 -14q-38 0 -65 14t-44.5 37.5t-26 54t-8.5 64.5zM114 465q0 -19 3 -42t12 -43t24 -33.5t39 -13.5t39 13.5t23.5 33.5t11.5 43t3 42q0 18 -3 41t-11.5 43 t-23.5 33.5t-39 13.5q-25 0 -40 -13.5t-23.5 -33.5t-11.5 -42.5t-3 -41.5zM199 13q0 4 2 10q1 3 2 5l357 591q9 16 27 16q11 0 18 -8t7 -18q0 -9 -6 -18l-354 -589q-10 -15 -27 -15q-12 0 -19 8t-7 18zM477 158q0 34 8.5 65t26.5 54t45 37t64 14t64.5 -14t45.5 -37.5 t26.5 -54t8.5 -64.5t-8.5 -65t-26.5 -54t-45.5 -37t-64.5 -14t-64 13.5t-45 37t-26.5 54t-8.5 65.5zM544 158q0 -19 3 -41.5t11.5 -42.5t23.5 -33.5t39 -13.5t39.5 13.5t23.5 33.5t11 42.5t3 41.5t-3 41.5t-11 42.5t-23.5 33.5t-39.5 13.5t-39.5 -13.5t-23.5 -33.5 t-11 -42.5t-3 -41.5zM812 158q0 34 8.5 65t26.5 54t45 37t65 14q37 0 64 -14t44.5 -37.5t26 -54t8.5 -64.5t-8.5 -65t-26 -54t-44.5 -37t-64 -14q-38 0 -65 13.5t-45 37t-26.5 54t-8.5 65.5zM879 158q0 -19 3 -41.5t12 -42.5t24 -33.5t39 -13.5t39 13.5t23.5 33.5t11.5 42.5 t3 41.5q0 18 -3 41t-11.5 43.5t-23.5 34t-39 13.5t-39 -13.5t-24 -34t-12 -43.5t-3 -41z" />
<glyph unicode="&#x2039;" horiz-adv-x="342" d="M66 242v17q0 7 3 12q2 3 4 4l162 143q4 3 8 5.5t9 2.5q15 0 15 -15q0 -9 -5 -16l-124 -144l124 -145q5 -6 5 -16q0 -14 -15 -14q-9 0 -17 8l-162 143q-2 1 -4 4q-3 4 -3 11z" />
<glyph unicode="&#x203a;" horiz-adv-x="342" d="M75 90q0 10 5 16l124 145l-124 144q-5 7 -5 16q0 15 15 15q5 0 9 -2.5t8 -5.5l162 -143q1 -1 3 -4q4 -6 4 -12v-17q0 -5 -4 -11q-2 -3 -3 -4l-162 -143q-8 -8 -17 -8q-15 0 -15 14z" />
<glyph unicode="&#x205f;" horiz-adv-x="197" />
<glyph unicode="&#x20ac;" horiz-adv-x="473" d="M27 278v16q0 9 2 13t13 4h51q17 87 68.5 135t126.5 48q25 0 50.5 -7.5t46.5 -18t34 -20.5t13 -16q0 -2 -1 -4l-2 -4l-21 -39q-4 -6 -6 -6t-10.5 7.5t-23 16.5t-33.5 16.5t-41 7.5q-57 0 -85 -31t-37 -85h166q11 0 13 -4t2 -13v-16q0 -11 -17 -11h-168q-1 -7 -1 -13v-14 v-14q0 -6 1 -13h172q11 0 13 -4t2 -13v-16q0 -11 -17 -11h-166q7 -48 32 -82t78 -34q24 0 45.5 6.5t38 14t27 14t12.5 6.5t6 -6l17 -42l2 -4q1 -2 1 -4q0 -4 -14.5 -12.5t-37 -17.5t-50.5 -15.5t-56 -6.5q-78 0 -125.5 49t-58.5 134h-48q-8 0 -10 2.5t-2 8.5v16q0 9 2 13 t13 4h41v12q0 11 0.5 21.5t1.5 20.5h-48q-8 0 -10 2.5t-2 8.5z" />
<glyph unicode="&#x2122;" horiz-adv-x="1000" d="M110 657v59h325v-59h-130v-339h-66v339h-129zM479 318v398h98l101 -318l97 318h96v-398h-61v334l-102 -334h-61l-106 339v-339h-62z" />
<glyph unicode="&#x2260;" horiz-adv-x="423" d="M50 8q0 7 3 15l207 492q9 22 31 22q6 0 14 -3l46 -18q23 -9 23 -30q0 -7 -3 -14l-207 -493q-11 -23 -31 -23q-7 0 -13 3l-51 22q-19 7 -19 27zM53 177v22q0 32 35 32h247q35 0 35 -32v-22q0 -32 -35 -32h-247q-35 0 -35 32zM53 294v23q0 32 35 32h247q35 0 35 -32v-23 q0 -31 -35 -31h-247q-35 0 -35 31z" />
<glyph unicode="&#xe000;" horiz-adv-x="360" d="M0 360h360v-360h-360v360z" />
<glyph unicode="&#xfb00;" horiz-adv-x="536" d="M274 257v101h51v16q0 22 4.5 48.5t17.5 43t36.5 26.5t68.5 10q36 0 104 -8l-15 -83q-24 4 -39 4q-19 0 -27 -6.5t-11 -19.5q-2 -7 -2 -31h65v-101h-65v-257h-137v257h-51zM6 257v101h51v16q0 22 4.5 48.5t17.5 43t36.5 26.5t68.5 10q36 0 104 -8l-15 -83q-24 4 -39 4 q-19 0 -27 -6.5t-11 -19.5q-2 -7 -2 -31h65v-101h-65v-257h-137v257h-51z" />
<glyph unicode="&#xfb01;" horiz-adv-x="570" d="M30 22q0 9 7.5 16t15.5 7h51v354h-50q-9 0 -16 6t-7 16q0 9 7.5 16t15.5 7h50q0 30 1 59t14 57q12 27 31.5 44.5t42.5 27.5t50 14t54 4q39 0 75.5 -5.5t58.5 -13.5q5 -2 10.5 -7.5t5.5 -14.5v-54q0 -6 -4.5 -10t-10.5 -4h-12q-8 0 -10.5 6t-3.5 10q-6 29 -35 40.5 t-67 11.5q-44 0 -69 -12t-37 -34t-14.5 -52.5t-2.5 -66.5h274q9 0 16 -6.5t7 -15.5v-377h51q9 0 16 -6.5t7 -15.5q0 -10 -7 -16.5t-16 -6.5h-178q-10 0 -16.5 6t-6.5 16q0 9 7 16t16 7h50v354h-220v-354h51q9 0 16 -6.5t7 -15.5q0 -10 -7.5 -16.5t-15.5 -6.5h-179 q-9 0 -16 6t-7 16z" />
<glyph unicode="&#xfb02;" horiz-adv-x="570" d="M30 22q0 9 7.5 16t15.5 7h51v354h-50q-9 0 -16 6t-7 16q0 9 7.5 16t15.5 7h50q0 30 1 59t14 57q12 27 31.5 44.5t42.5 27.5t50 14t54 4h152q10 0 16.5 -6.5t6.5 -15.5v-583h50q10 0 16.5 -6.5t6.5 -15.5q0 -10 -7 -16.5t-16 -6.5h-177q-10 0 -16.5 6t-6.5 16q0 9 7 16 t16 7h50v560h-91q-44 0 -69 -10.5t-37 -30.5t-14.5 -50.5t-2.5 -69.5h100q10 0 16.5 -6.5t6.5 -15.5q0 -10 -7 -16.5t-16 -6.5h-100v-354h51q9 0 16 -6.5t7 -15.5q0 -10 -7.5 -16.5t-15.5 -6.5h-179q-9 0 -16 6t-7 16z" />
<glyph unicode="&#xfb03;" horiz-adv-x="766" d="M582 0v358h138v-358h-138zM582 401v93h138v-93h-138zM274 257v101h51v16q0 22 4.5 48.5t17.5 43t36.5 26.5t68.5 10q36 0 104 -8l-15 -83q-24 4 -39 4q-19 0 -27 -6.5t-11 -19.5q-2 -7 -2 -31h65v-101h-65v-257h-137v257h-51zM6 257v101h51v16q0 22 4.5 48.5t17.5 43 t36.5 26.5t68.5 10q36 0 104 -8l-15 -83q-24 4 -39 4q-19 0 -27 -6.5t-11 -19.5q-2 -7 -2 -31h65v-101h-65v-257h-137v257h-51z" />
<glyph unicode="&#xfb04;" horiz-adv-x="766" d="M582 0v494h138v-494h-138zM274 257v101h51v16q0 22 4.5 48.5t17.5 43t36.5 26.5t68.5 10q36 0 104 -8l-15 -83q-24 4 -39 4q-19 0 -27 -6.5t-11 -19.5q-2 -7 -2 -31h65v-101h-65v-257h-137v257h-51zM6 257v101h51v16q0 22 4.5 48.5t17.5 43t36.5 26.5t68.5 10 q36 0 104 -8l-15 -83q-24 4 -39 4q-19 0 -27 -6.5t-11 -19.5q-2 -7 -2 -31h65v-101h-65v-257h-137v257h-51z" />
<glyph unicode="&#xfb06;" horiz-adv-x="728" d="M441 258v100h51v66l137 70v-136h75v-100h-75v-128q0 -22 4 -29q7 -12 24 -12q15 0 42 9l11 -95q-51 -11 -95 -11q-52 0 -76.5 13t-35.5 40t-11 87v126h-51zM17 99l136 13q8 -24 23.5 -34.5t40.5 -10.5q28 0 43 12q12 8 12 22t-15 23q-12 5 -60 13q-71 13 -99 23.5 t-47 35.5t-19 58q0 35 20.5 61t57 38.5t96.5 12.5q64 0 94.5 -10t51 -30.5t34.5 -55.5l-131 -13q-5 18 -16 26q-17 10 -40 10t-33.5 -8t-10.5 -20q0 -13 13 -20q14 -6 59 -12q68 -7 101.5 -21t51 -40t17.5 -56q0 -31 -18.5 -60.5t-59 -46.5t-109.5 -17q-98 0 -139.5 28 t-53.5 79z" />
<glyph unicode="&#xfb1d;" horiz-adv-x="266" d="M30 417v50q0 33 35 33h133q16 0 25.5 -10.5t9.5 -22.5v-237q0 -33 -35 -33h-50q-35 0 -35 33v154h-48q-35 0 -35 33zM-40 -116q0 17 11.5 28.5t28.5 11.5t28.5 -11.5t11.5 -28.5t-11.5 -28.5t-28.5 -11.5t-28.5 11.5t-11.5 28.5z" />
<glyph unicode="&#xfb1f;" horiz-adv-x="1000" />
<glyph unicode="&#xfb20;" horiz-adv-x="451" d="M23 34v48q0 13 10 23t25 10h72l-56 253q-9 42 -27 64q-8 11 -8 21q0 17 16 27l34 20q13 7 25 7q14 0 25 -10q36 -33 54 -114l47 -204q1 -5 1.5 -9t0.5 -9q0 -36 -22 -46q58 0 73 29q9 16 9 78l-1 244q0 34 35 34h51q34 0 34 -34l1 -277q0 -98 -63 -147q-54 -42 -143 -42 h-158q-35 0 -35 34z" />
<glyph unicode="&#xfb21;" horiz-adv-x="503" d="M31 452q3 13 15 21l36 27q14 11 28 10t26 -16l177 -229q10 7 19 19.5t9 28.5v70h-41q-14 0 -26.5 7.5t-12.5 26.5v49q0 19 12 26t27 7h121q20 0 30.5 -13t10.5 -26v-142q0 -49 -20 -83t-58 -59l75 -96q13 -17 12.5 -29.5t-17.5 -26.5l-33 -25q-13 -9 -27.5 -9t-27.5 17 l-190 244q-11 -13 -14 -34t-3 -63v-41l35 1q20 0 28 -11.5t8 -25.5v-39q0 -16 -8 -27t-27 -11h-117q-16 0 -27.5 9.5t-11.5 25.5l1 143q0 56 13 101t45 71l-18 22q-10 13 -18 24q-11 13 -20 26q-14 17 -11 30z" />
<glyph unicode="&#xfb22;" horiz-adv-x="424" d="M17 417v49q0 34 35 34h317q35 0 35 -34v-49q0 -33 -35 -33h-41v-351q0 -34 -36 -34h-50q-34 0 -34 34v288q0 53 40 63h-196q-35 0 -35 33z" />
<glyph unicode="&#xfb23;" horiz-adv-x="446" d="M30 417v49q0 34 35 34h238q109 0 109 -105v-361q0 -34 -35 -34h-50q-35 0 -35 34v350h-227q-35 0 -35 33zM53 33v248q0 33 35 33h50q35 0 35 -33v-248q0 -33 -35 -33h-50q-35 0 -35 33z" />
<glyph unicode="&#xfb24;" horiz-adv-x="415" d="M24 417v49q0 34 35 34h288q35 0 35 -34v-229q0 -237 -222 -237h-97q-35 0 -35 34v47q0 34 35 34h107q92 0 92 107v162h-203q-35 0 -35 33z" />
<glyph unicode="&#xfb25;" horiz-adv-x="421" d="M19 418v87q0 80 32 126q12 17 32 17q9 0 17 -3l28 -13q22 -10 22 -29q0 -8 -3 -15q-11 -33 -11 -57v-31h219q35 0 35 -34v-269q0 -108 -61 -157q-52 -43 -140 -40q-35 2 -35 34v47q0 34 35 34q58 0 73 29q9 16 9 79v161h-217q-35 0 -35 34z" />
<glyph unicode="&#xfb26;" horiz-adv-x="482" d="M20 420v43q0 37 35 37h287q58 0 83.5 -23.5t25.5 -80.5v-283q0 -113 -109 -113h-235q-34 0 -34 36v348h-18q-35 0 -35 36zM161 384q31 -9 31 -53v-216h139v269h-170z" />
<glyph unicode="&#xfb27;" horiz-adv-x="412" d="M21 417v49q0 34 35 34h208q110 0 110 -105v-361q0 -34 -35 -34h-50q-36 0 -36 34v350h-197q-35 0 -35 33z" />
<glyph unicode="&#xfb28;" horiz-adv-x="524" d="M17 27v47q0 34 35 34h4q49 0 62 28q7 15 7 79v169h-33q-35 0 -35 33v49q0 15 10.5 24.5t24.5 9.5h360q16 0 25.5 -10.5t9.5 -23.5l1 -432q0 -34 -35 -34h-51q-34 0 -34 34v350h-41h-74h-41q34 -13 34 -55v-150q0 -90 -44 -138.5t-129 -47.5h-21q-35 2 -35 34z" />
<glyph unicode="&#xfb29;" horiz-adv-x="402" d="M33 222v37q0 33 35 33h79v67q0 33 35 33h40q34 0 34 -33v-67h79q35 0 35 -33v-37q0 -33 -35 -33h-79v-72q0 -33 -34 -33h-40q-35 0 -35 33v72h-79q-35 0 -35 33z" />
<glyph unicode="&#xfb2a;" d="M-40 -116q0 17 11.5 28.5t28.5 11.5t28.5 -11.5t11.5 -28.5t-11.5 -28.5t-28.5 -11.5t-28.5 11.5t-11.5 28.5z" />
<glyph unicode="&#xfb2b;" d="M-40 -116q0 17 11.5 28.5t28.5 11.5t28.5 -11.5t11.5 -28.5t-11.5 -28.5t-28.5 -11.5t-28.5 11.5t-11.5 28.5z" />
<glyph unicode="&#xfb2c;" d="M-40 -116q0 17 11.5 28.5t28.5 11.5t28.5 -11.5t11.5 -28.5t-11.5 -28.5t-28.5 -11.5t-28.5 11.5t-11.5 28.5z" />
<glyph unicode="&#xfb2d;" d="M-40 -116q0 17 11.5 28.5t28.5 11.5t28.5 -11.5t11.5 -28.5t-11.5 -28.5t-28.5 -11.5t-28.5 11.5t-11.5 28.5z" />
<glyph unicode="&#xfb2e;" horiz-adv-x="503" d="M31 452q3 13 15 21l36 27q14 11 28 10t26 -16l177 -229q10 7 19 19.5t9 28.5v70h-41q-14 0 -26.5 7.5t-12.5 26.5v49q0 19 12 26t27 7h121q20 0 30.5 -13t10.5 -26v-142q0 -49 -20 -83t-58 -59l75 -96q13 -17 12.5 -29.5t-17.5 -26.5l-33 -25q-13 -9 -27.5 -9t-27.5 17 l-190 244q-11 -13 -14 -34t-3 -63v-41l35 1q20 0 28 -11.5t8 -25.5v-39q0 -16 -8 -27t-27 -11h-117q-16 0 -27.5 9.5t-11.5 25.5l1 143q0 56 13 101t45 71l-18 22q-10 13 -18 24q-11 13 -20 26q-14 17 -11 30zM-94 -100q0 9 2.5 11.5t11.5 2.5h160q8 0 11 -2.5t3 -11.5v-22 q0 -8 -2.5 -11t-11.5 -3h-160q-9 0 -11.5 3t-2.5 11v22z" />
<glyph unicode="&#xfb2f;" horiz-adv-x="503" d="M31 452q3 13 15 21l36 27q14 11 28 10t26 -16l177 -229q10 7 19 19.5t9 28.5v70h-41q-14 0 -26.5 7.5t-12.5 26.5v49q0 19 12 26t27 7h121q20 0 30.5 -13t10.5 -26v-142q0 -49 -20 -83t-58 -59l75 -96q13 -17 12.5 -29.5t-17.5 -26.5l-33 -25q-13 -9 -27.5 -9t-27.5 17 l-190 244q-11 -13 -14 -34t-3 -63v-41l35 1q20 0 28 -11.5t8 -25.5v-39q0 -16 -8 -27t-27 -11h-117q-16 0 -27.5 9.5t-11.5 25.5l1 143q0 56 13 101t45 71l-18 22q-10 13 -18 24q-11 13 -20 26q-14 17 -11 30zM-94 -100q0 9 2.5 11.5t11.5 2.5h160q8 0 11 -2.5t3 -11.5v-22 q0 -8 -2.5 -11t-11.5 -3h-58l5 -39v-81q0 -8 -2.5 -10t-10.5 -2h-28q-8 0 -10.5 2t-2.5 10v81l5 39h-58q-9 0 -11.5 3t-2.5 11v22z" />
<glyph unicode="&#xfb30;" horiz-adv-x="503" d="M31 452q3 13 15 21l36 27q14 11 28 10t26 -16l177 -229q10 7 19 19.5t9 28.5v70h-41q-14 0 -26.5 7.5t-12.5 26.5v49q0 19 12 26t27 7h121q20 0 30.5 -13t10.5 -26v-142q0 -49 -20 -83t-58 -59l75 -96q13 -17 12.5 -29.5t-17.5 -26.5l-33 -25q-13 -9 -27.5 -9t-27.5 17 l-190 244q-11 -13 -14 -34t-3 -63v-41l35 1q20 0 28 -11.5t8 -25.5v-39q0 -16 -8 -27t-27 -11h-117q-16 0 -27.5 9.5t-11.5 25.5l1 143q0 56 13 101t45 71l-18 22q-10 13 -18 24q-11 13 -20 26q-14 17 -11 30zM-40 240q0 17 11.5 28.5t28.5 11.5t28.5 -11.5t11.5 -28.5 t-11.5 -28.5t-28.5 -11.5t-28.5 11.5t-11.5 28.5z" />
<glyph unicode="&#xfb31;" d="M-40 -116q0 17 11.5 28.5t28.5 11.5t28.5 -11.5t11.5 -28.5t-11.5 -28.5t-28.5 -11.5t-28.5 11.5t-11.5 28.5z" />
<glyph unicode="&#xfb32;" d="M-40 -116q0 17 11.5 28.5t28.5 11.5t28.5 -11.5t11.5 -28.5t-11.5 -28.5t-28.5 -11.5t-28.5 11.5t-11.5 28.5z" />
<glyph unicode="&#xfb33;" d="M-40 -116q0 17 11.5 28.5t28.5 11.5t28.5 -11.5t11.5 -28.5t-11.5 -28.5t-28.5 -11.5t-28.5 11.5t-11.5 28.5z" />
<glyph unicode="&#xfb34;" d="M-40 -116q0 17 11.5 28.5t28.5 11.5t28.5 -11.5t11.5 -28.5t-11.5 -28.5t-28.5 -11.5t-28.5 11.5t-11.5 28.5z" />
<glyph unicode="&#xfb35;" d="M-40 -116q0 17 11.5 28.5t28.5 11.5t28.5 -11.5t11.5 -28.5t-11.5 -28.5t-28.5 -11.5t-28.5 11.5t-11.5 28.5z" />
<glyph unicode="&#xfb36;" d="M-40 -116q0 17 11.5 28.5t28.5 11.5t28.5 -11.5t11.5 -28.5t-11.5 -28.5t-28.5 -11.5t-28.5 11.5t-11.5 28.5z" />
<glyph unicode="&#xfb38;" d="M-40 -116q0 17 11.5 28.5t28.5 11.5t28.5 -11.5t11.5 -28.5t-11.5 -28.5t-28.5 -11.5t-28.5 11.5t-11.5 28.5z" />
<glyph unicode="&#xfb39;" d="M-40 -116q0 17 11.5 28.5t28.5 11.5t28.5 -11.5t11.5 -28.5t-11.5 -28.5t-28.5 -11.5t-28.5 11.5t-11.5 28.5z" />
<glyph unicode="&#xfb3a;" d="M-40 -116q0 17 11.5 28.5t28.5 11.5t28.5 -11.5t11.5 -28.5t-11.5 -28.5t-28.5 -11.5t-28.5 11.5t-11.5 28.5z" />
<glyph unicode="&#xfb3b;" d="M-40 -116q0 17 11.5 28.5t28.5 11.5t28.5 -11.5t11.5 -28.5t-11.5 -28.5t-28.5 -11.5t-28.5 11.5t-11.5 28.5z" />
<glyph unicode="&#xfb3c;" d="M-40 -116q0 17 11.5 28.5t28.5 11.5t28.5 -11.5t11.5 -28.5t-11.5 -28.5t-28.5 -11.5t-28.5 11.5t-11.5 28.5z" />
<glyph unicode="&#xfb3e;" d="M-40 -116q0 17 11.5 28.5t28.5 11.5t28.5 -11.5t11.5 -28.5t-11.5 -28.5t-28.5 -11.5t-28.5 11.5t-11.5 28.5z" />
<glyph unicode="&#xfb40;" d="M-40 -116q0 17 11.5 28.5t28.5 11.5t28.5 -11.5t11.5 -28.5t-11.5 -28.5t-28.5 -11.5t-28.5 11.5t-11.5 28.5z" />
<glyph unicode="&#xfb41;" d="M-40 -116q0 17 11.5 28.5t28.5 11.5t28.5 -11.5t11.5 -28.5t-11.5 -28.5t-28.5 -11.5t-28.5 11.5t-11.5 28.5z" />
<glyph unicode="&#xfb43;" horiz-adv-x="431" d="M19 261v205q0 34 35 34h236q107 0 107 -105v-517q0 -34 -34 -34h-51q-35 0 -35 34v506h-138v-73h47q35 0 35 -34v-49q0 -34 -35 -34h-103q-30 0 -47 19t-17 48zM-40 240q0 17 11.5 28.5t28.5 11.5t28.5 -11.5t11.5 -28.5t-11.5 -28.5t-28.5 -11.5t-28.5 11.5t-11.5 28.5z " />
<glyph unicode="&#xfb44;" d="M-40 -116q0 17 11.5 28.5t28.5 11.5t28.5 -11.5t11.5 -28.5t-11.5 -28.5t-28.5 -11.5t-28.5 11.5t-11.5 28.5z" />
<glyph unicode="&#xfb46;" d="M-40 -116q0 17 11.5 28.5t28.5 11.5t28.5 -11.5t11.5 -28.5t-11.5 -28.5t-28.5 -11.5t-28.5 11.5t-11.5 28.5z" />
<glyph unicode="&#xfb47;" d="M-40 -116q0 17 11.5 28.5t28.5 11.5t28.5 -11.5t11.5 -28.5t-11.5 -28.5t-28.5 -11.5t-28.5 11.5t-11.5 28.5z" />
<glyph unicode="&#xfb48;" horiz-adv-x="412" d="M21 417v49q0 34 35 34h208q110 0 110 -105v-361q0 -34 -35 -34h-50q-36 0 -36 34v350h-197q-35 0 -35 33zM-40 240q0 17 11.5 28.5t28.5 11.5t28.5 -11.5t11.5 -28.5t-11.5 -28.5t-28.5 -11.5t-28.5 11.5t-11.5 28.5z" />
<glyph unicode="&#xfb49;" d="M-40 -116q0 17 11.5 28.5t28.5 11.5t28.5 -11.5t11.5 -28.5t-11.5 -28.5t-28.5 -11.5t-28.5 11.5t-11.5 28.5z" />
<glyph unicode="&#xfb4a;" d="M-40 -116q0 17 11.5 28.5t28.5 11.5t28.5 -11.5t11.5 -28.5t-11.5 -28.5t-28.5 -11.5t-28.5 11.5t-11.5 28.5z" />
<glyph unicode="&#xfb4b;" d="M-40 -116q0 17 11.5 28.5t28.5 11.5t28.5 -11.5t11.5 -28.5t-11.5 -28.5t-28.5 -11.5t-28.5 11.5t-11.5 28.5z" />
<glyph unicode="&#xfb4c;" horiz-adv-x="928" d="M505 33v49q0 33 35 33h222q-37 13 -37 61v208h-178q-35 0 -35 33v50q0 33 35 33h263q15 0 26 -11q9 -11 9 -22v-352h31q35 0 35 -33v-48q0 -34 -35 -34h-336q-35 0 -35 33zM61 220v27q0 18 15 18h326q15 0 15 -18v-27q0 -18 -15 -18h-327q-14 0 -14 18z" />
<glyph unicode="&#xfb4d;" horiz-adv-x="892" d="M501 417v49q0 34 35 34h288q35 0 35 -34v-229q0 -237 -222 -237h-97q-35 0 -35 34v47q0 34 35 34h107q92 0 92 107v162h-203q-35 0 -35 33zM61 220v27q0 18 15 18h326q15 0 15 -18v-27q0 -18 -15 -18h-327q-14 0 -14 18z" />
<glyph unicode="&#xfb4e;" horiz-adv-x="921" d="M504 263v202q0 35 38 35h242q109 0 109 -104v-163q0 -233 -223 -233h-97q-35 0 -35 33v47q0 34 35 34h106q49 1 70 22q23 23 23 81v167h-148v-72h47q35 0 35 -34v-49q0 -33 -35 -33h-103q-30 0 -48 20q-16 17 -16 47zM61 220v27q0 18 15 18h326q15 0 15 -18v-27 q0 -18 -15 -18h-327q-14 0 -14 18z" />
<glyph unicode="&#xfb4f;" horiz-adv-x="924" d="M452 452q3 13 15 21l36 27q14 11 28 10t26 -16l177 -229q10 7 19 19.5t9 28.5v70h-41q-14 0 -26.5 7.5t-12.5 26.5v49q0 19 12 26t27 7h121q20 0 30.5 -13t10.5 -26v-142q0 -49 -20 -83t-58 -59l75 -96q13 -17 12.5 -29.5t-17.5 -26.5l-33 -25q-13 -9 -27.5 -9t-27.5 17 l-190 244q-11 -13 -14 -34t-3 -63v-41l35 1q20 0 28 -11.5t8 -25.5v-39q0 -16 -8 -27t-27 -11h-117q-16 0 -27.5 9.5t-11.5 25.5l1 143q0 56 13 101t45 71l-18 22q-10 13 -18 24q-11 13 -20 26q-14 17 -11 30zM19 418v87q0 80 32 126q12 17 32 17q9 0 17 -3l28 -13 q22 -10 22 -29q0 -8 -3 -15q-11 -33 -11 -57v-31h219q35 0 35 -34v-269q0 -108 -61 -157q-52 -43 -140 -40q-35 2 -35 34v47q0 34 35 34q58 0 73 29q9 16 9 79v161h-217q-35 0 -35 34z" />
</font>
</defs>
</svg>
