<?xml version="1.0" standalone="no"?>
<!DOCTYPE svg PUBLIC "-//W3C//DTD SVG 1.1//EN" "http://www.w3.org/Graphics/SVG/1.1/DTD/svg11.dtd" >
<svg xmlns="http://www.w3.org/2000/svg">
<metadata>
This is a custom SVG webfont generated by Font Squirrel.
Copyright   : Copyright c 2007 by hatayas All rights reserved
Designer    : hatayas
Foundry     : hatayas
Foundry URL : httpwwwhatayascoil
</metadata>
<defs>
<font id="RaananSuperLight" horiz-adv-x="0" >
<font-face units-per-em="1000" ascent="700" descent="-300" />
<missing-glyph horiz-adv-x="222" />
<glyph unicode=" "  horiz-adv-x="222" />
<glyph unicode="&#x09;" horiz-adv-x="222" />
<glyph unicode="&#xa0;" horiz-adv-x="222" />
<glyph unicode="!" horiz-adv-x="193" d="M47 40q0 20 14 33.5t34 13.5t34 -13.5t14 -33.5t-14 -34t-34 -14t-34 14t-14 34zM61 518q-2 15 14 15h39q16 0 15 -15l-10 -340q-1 -16 -15 -16h-20q-14 0 -15 16z" />
<glyph unicode="&#x22;" horiz-adv-x="239" d="M21 385l36 173q5 18 21 14l28 -7q16 -3 11 -21l-53 -172q-4 -16 -16 -12l-19 7q-11 3 -8 18zM117 385l35 172q5 18 21 14l29 -6q15 -4 10 -21l-52 -173q-4 -16 -17 -11l-19 6q-11 5 -7 19z" />
<glyph unicode="#" horiz-adv-x="586" d="M45 158l5 22q3 11 17 11h98l22 119h-97q-12 0 -10 12l4 22q1 12 17 12h95l18 94q3 12 14 12h26q5 0 9 -3.5t3 -7.5l-18 -95h128l18 93q1 12 15 12h26q12 0 11 -12l-17 -93h94q12 0 9 -14l-5 -21q-2 -11 -16 -11h-92l-22 -119h91q14 0 11 -14l-6 -22q-3 -10 -16 -10h-89 l-18 -96q-1 -13 -15 -13h-26q-13 0 -12 13q4 19 9 43t10 53h-128l-18 -92q-3 -15 -15 -15h-24q-15 0 -12 15l17 92h-100q-14 0 -11 13zM216 191h129l23 119h-129z" />
<glyph unicode="$" horiz-adv-x="396" d="M51 56l7 19q4 12 13 9q29 -8 56.5 -13t53.5 -6v173q-122 30 -122 123q0 105 122 120v39q0 9 9 9h23q11 0 11 -9v-40q60 -2 100 -15q10 -3 7 -15l-5 -18q-4 -11 -14 -10q-37 10 -88 13v-160q68 -18 97 -46q33 -32 33 -86q0 -111 -130 -124v-49q0 -10 -11 -10h-23 q-9 0 -9 10v48q-74 3 -122 22q-11 5 -8 16zM107 364q0 -62 74 -85v156q-74 -9 -74 -71zM224 64q81 18 81 79q0 63 -81 89v-168z" />
<glyph unicode="%" horiz-adv-x="678" d="M74 341q0 60 28 90.5t77 30.5q104 0 104 -121q0 -128 -104 -128q-105 0 -105 128zM117 342q0 -88 61 -88t61 88q0 80 -60 80q-62 0 -62 -80zM239 19l143 469q5 14 19 11l29 -10q14 -5 10 -19l-144 -469q-4 -15 -18 -10l-29 9q-14 4 -10 19zM397 162q0 59 29 91 q28 31 77 31q104 0 104 -122q0 -127 -104 -127q-106 0 -106 127zM440 163q0 -88 62 -88q61 0 61 88q0 80 -60 80q-63 0 -63 -80z" />
<glyph unicode="&#x26;" horiz-adv-x="421" d="M30 226v16q0 8 7 8h237q8 0 8 -8v-154q0 -8 -8 -8h-15q-7 0 -7 8v130h-168v-210q0 -8 -8 -8h-15q-7 0 -7 8v180q0 23 14 30h-31q-7 0 -7 8zM148 150q0 8 8 8h15q7 0 7 -8v-119h88h31q61 0 61 74v113h-21q-7 0 -7 8v16q0 8 7 8h44q7 0 7 -9v-127q0 -55 -18 -82 q-23 -32 -78 -32h-130q-13 0 -13 14z" />
<glyph unicode="'" horiz-adv-x="133" d="M20 385l36 172q5 18 21 14l28 -6q16 -4 10 -21l-52 -173q-4 -15 -17 -11l-18 6q-11 5 -8 19z" />
<glyph unicode="(" horiz-adv-x="203" d="M42 252q0 153 70 302q7 13 19 8l18 -6q11 -5 8 -16q-54 -174 -54 -288q0 -136 53 -295q4 -13 -7 -18l-17 -7q-12 -5 -19 8q-71 147 -71 312z" />
<glyph unicode=")" horiz-adv-x="203" d="M46 540q-3 11 8 16l17 6q13 4 19 -8q71 -151 71 -302q0 -165 -71 -312q-7 -12 -20 -8l-16 7q-12 4 -7 18q53 159 53 295q0 114 -54 288z" />
<glyph unicode="*" horiz-adv-x="334" d="M32 386l6 17q5 16 19 11l85 -30v97q0 14 14 14h17q15 0 15 -14v-97l88 31q14 5 18 -8l7 -17q4 -13 -9 -17l-87 -34l56 -82q8 -13 -4 -20l-16 -10q-11 -8 -19 5l-54 79l-55 -79q-8 -12 -19 -4l-16 10q-12 8 -4 19l54 81l-87 30q-14 4 -9 18z" />
<glyph unicode="+" horiz-adv-x="378" d="M52 233v21q0 17 15 17h97v87q0 17 15 17h23q15 0 15 -17v-87h95q15 0 15 -17v-20q0 -17 -15 -17h-95v-90q0 -16 -15 -16l-23 -1q-15 0 -15 17v90h-97q-15 0 -15 16z" />
<glyph unicode="," horiz-adv-x="134" d="M18 -78l36 173q3 18 21 14l28 -6q15 -4 10 -21l-52 -173q-5 -15 -17 -12l-19 7q-10 3 -7 18z" />
<glyph unicode="-" horiz-adv-x="399" d="M71 233v24q0 18 15 18h227q15 0 15 -18v-24q0 -18 -15 -18h-227q-15 0 -15 18z" />
<glyph unicode="." horiz-adv-x="164" d="M33 40q0 20 14 33.5t34 13.5t34 -13.5t14 -33.5t-14 -34t-34 -14t-34 14t-14 34z" />
<glyph unicode="/" horiz-adv-x="335" d="M39 -13l200 532q6 15 20 10l28 -11q14 -5 8 -20l-200 -532q-5 -15 -19 -9l-29 10q-13 6 -8 20z" />
<glyph unicode="0" horiz-adv-x="360" d="M31 250q0 250 151 250t151 -250q0 -251 -151 -251t-151 251zM94 250q0 -188 87 -188q89 0 89 188q0 189 -88 189t-88 -189z" />
<glyph unicode="1" horiz-adv-x="292" d="M41 419q-9 11 5 20l71 53q7 5 11.5 7t12.5 2l35 -1q18 0 18 -20v-417h38q14 0 14 -16v-31q0 -16 -16 -16h-158q-14 0 -14 16v31q0 16 14 16h63v368l-53 -38q-9 -7 -14 -4.5t-10 8.5z" />
<glyph unicode="2" horiz-adv-x="325" d="M35 446q-9 14 7 24q49 32 104 32q56 0 92 -33q41 -36 45 -103q3 -67 -38 -134q-19 -29 -55 -71.5t-91 -98.5h172q16 0 16 -16v-27q0 -19 -16 -19h-213q-15 0 -15 16v50q0 17 9 28q42 48 73.5 83t52.5 59q42 54 47 115q3 33 -17 59q-21 30 -58 31q-40 1 -82 -22 q-13 -7 -21 7z" />
<glyph unicode="3" horiz-adv-x="317" d="M39 38l11 27q6 16 19 9q37 -18 75 -18q33 0 56 19q28 22 28 61q0 36 -29 58t-78 23q-15 0 -15 13v41q0 14 15 14q41 0 67 27q22 22 22 58q0 30 -18 51q-20 23 -54 23q-32 0 -57 -15q-15 -10 -22 3q-4 7 -7 13t-7 13q-7 13 9 23q35 23 89 23q56 0 91 -39q36 -38 36 -93 q0 -38 -20 -70q-27 -44 -79 -48q55 -2 87 -39q27 -33 27 -81q0 -66 -37.5 -103t-104.5 -37q-41 0 -96 23q-14 6 -8 21z" />
<glyph unicode="4" horiz-adv-x="377" d="M46 129v35q0 10 8 34l108 301q5 15 20 9l26 -9q14 -5 8 -19l-116 -311l138 1v138q0 15 15 15h24q16 0 16 -15v-138h36q15 0 15 -16v-25q0 -16 -15 -16h-36v-97q0 -16 -16 -16h-26q-15 0 -15 16v97h-175q-15 0 -15 16z" />
<glyph unicode="5" horiz-adv-x="345" d="M43 42l14 31q5 12 19 6q45 -20 79 -20q47 0 74 32q24 28 24 72q0 36 -24 68q-27 36 -68 36q-31 0 -53 -15q-17 -11 -24 -6l-23 9q-11 5 -11 18v210q0 17 14 17h197q16 0 16 -15v-28q0 -19 -15 -19h-156v-142q23 22 74 22q55 0 94 -43q40 -43 40 -106q0 -86 -45 -129 q-44 -42 -121 -42q-45 0 -100 23q-11 5 -5 21z" />
<glyph unicode="6" horiz-adv-x="345" d="M36 221q0 113 40 189q47 87 135 89q21 0 56 -9q6 -1 5 -10l-8 -35q-3 -9 -11 -7q-10 2 -43 4q-46 1 -79 -52q-35 -58 -35 -152q19 67 93 67q50 0 86 -39q38 -43 38 -107q0 -68 -37 -114q-38 -45 -97 -45q-70 0 -108 62q-35 59 -35 159zM104 161q0 -45 21 -74t53 -29 q35 0 57.5 29t22.5 74q0 39 -20 65q-23 26 -58 26q-31 0 -53.5 -27t-22.5 -64z" />
<glyph unicode="7" horiz-adv-x="345" d="M40 452v32q0 16 15 16h230q17 0 17 -18q0 -4 -1 -7l-114 -468q-4 -16 -19 -13l-29 7q-17 3 -12 21l106 415h-178q-15 0 -15 15z" />
<glyph unicode="8" horiz-adv-x="330" d="M32 130q0 89 90 136q-78 52 -78 121q0 46 34 79q34 36 87 36q27 0 49.5 -9t39 -25t25.5 -37t9 -45q0 -75 -79 -118q93 -50 93 -133q0 -58 -32 -96q-38 -41 -102 -41t-101 40q-35 38 -35 92zM94 134q0 -35 19.5 -57t53.5 -22q32 0 52.5 22t20.5 57q0 68 -74 103 q-72 -48 -72 -103zM102 384q0 -33 19 -53q6 -7 18 -15.5t30 -19.5q31 21 43 35q18 22 18 52q0 29 -18 46.5t-46 17.5q-27 0 -45.5 -18t-18.5 -45z" />
<glyph unicode="9" horiz-adv-x="330" d="M32 344q0 66 36 110q37 45 98 45q148 0 146 -227q0 -119 -50 -190q-57 -81 -173 -81q-6 0 -6 4q0 1 -3 16q-3 13 -3 21q0 14 7 14q171 4 174 210q-28 -61 -103 -61q-52 0 -89 43q-34 41 -34 96zM90 349q0 -91 77 -91q35 0 56 31q18 27 18 61q0 91 -77 91q-31 0 -52 -25 q-22 -25 -22 -67z" />
<glyph unicode=":" horiz-adv-x="162" d="M33 40q0 20 14 33.5t34 13.5t34 -13.5t14 -33.5t-14 -34t-34 -14t-34 14t-14 34zM33 368q0 20 14 34t34 14t34 -14t14 -34t-14 -34t-34 -14t-34 14t-14 34z" />
<glyph unicode=";" horiz-adv-x="162" d="M21 -77l36 173q3 17 21 13l28 -6q15 -3 10 -21l-52 -172q-5 -17 -17 -12l-19 6q-10 4 -7 19zM33 368q0 20 14 34t34 14t34 -14t14 -34t-14 -34t-34 -14t-34 14t-14 34z" />
<glyph unicode="&#x3c;" horiz-adv-x="350" d="M49 239q-9 10 0 21l210 229q12 12 24 0l22 -20q12 -12 1 -23l-189 -197l187 -195q12 -13 2 -23l-23 -24q-11 -11 -22 1z" />
<glyph unicode="=" horiz-adv-x="399" d="M71 189v17q0 18 15 18h227q15 0 15 -18v-17q0 -18 -15 -18h-227q-15 0 -15 18zM71 284v17q0 18 15 18h227q15 0 15 -18v-17q0 -17 -15 -17h-227q-15 0 -15 17z" />
<glyph unicode="&#x3e;" horiz-adv-x="350" d="M54 31q-11 10 2 23l187 195l-189 197q-11 11 1 23l22 20q13 12 24 0l210 -229q10 -11 0 -21l-212 -231q-11 -12 -22 -1z" />
<glyph unicode="?" horiz-adv-x="300" d="M44 487q-6 14 6 20q46 25 93 25q51 0 83.5 -31.5t32.5 -88.5q0 -55 -45 -116q-44 -61 -44 -112v-7q0 -17 -15 -15h-28q-15 0 -15 16v18q0 57 45 117q45 61 45 97q0 58 -56 61q-25 1 -70 -18q-14 -8 -20 6zM96 40q0 20 14 33.5t34 13.5t34 -13.5t14 -33.5t-14 -34t-34 -14 t-34 14t-14 34z" />
<glyph unicode="@" horiz-adv-x="755" d="M40 205q0 117 76 208q127 154 322 154q144 0 222 -107q62 -86 62 -193v-14l-2 -14q0 -39 -46 -109q-58 -91 -132 -91q-28 0 -40 4q-38 12 -64 54q-42 -60 -114 -60q-96 0 -100 106q-1 5 -1 9v7q0 59 26 113q14 29 47 70q42 51 107 51q54 0 87 -51l7 39h70l-65 -278 q19 -28 45 -28q58 0 98 82q33 69 33 133q-14 100 -84 164q-71 65 -170 65h-12q-6 0 -11 -1q-223 -22 -279 -260q-9 -39 -9 -74q0 -120 90 -196q86 -71 208 -71q99 0 183 51l12 -33q-113 -57 -222 -57q-156 0 -262 115q-82 88 -82 212zM302 160q0 -30 9 -52q12 -31 37 -31 q89 17 116 149q8 37 8 58q0 64 -46 71q-30 0 -67 -43q-30 -36 -42 -69q-15 -47 -15 -83z" />
<glyph unicode="A" horiz-adv-x="382" d="M-1 0l158 501h58l168 -501h-63l-46 151h-172l-45 -151h-58zM117 206h139l-43 137q-19 64 -28 105q-8 -48 -22 -96z" />
<glyph unicode="B" horiz-adv-x="382" d="M43 0v501h153q47 0 74.5 -15.5t45 -46t17.5 -67.5q0 -34 -15 -61.5t-43 -44.5q35 -13 56 -44t21 -77q0 -45 -18.5 -79.5t-49.5 -50t-86 -15.5h-155zM96 58h102q35 0 50 7q24 9 36 29t12 51q0 29 -11.5 48.5t-31.5 28.5t-62 9h-95v-173zM96 290h89q35 0 50 5q21 7 32 24 t11 46q0 27 -10 45t-27.5 24t-62.5 6h-82v-150z" />
<glyph unicode="C" horiz-adv-x="413" d="M27 253q0 83 26 140t70 86t98 29q59 0 102 -36.5t60 -108.5l-53 -15q-27 104 -110 104q-42 0 -72 -21t-47.5 -65.5t-17.5 -112.5q0 -102 36.5 -153.5t95.5 -51.5q45 0 77 31.5t44 96.5l54 -18q-18 -84 -63.5 -125.5t-110.5 -41.5q-56 0 -96.5 28t-66.5 89.5t-26 144.5z " />
<glyph unicode="D" horiz-adv-x="413" d="M44 0v501h140q53 0 80 -10q37 -12 63 -44t40.5 -80t14.5 -114q0 -85 -24.5 -144.5t-64 -84t-102.5 -24.5h-147zM97 58h87q54 0 81 17.5t42 55.5q19 51 19 122q0 77 -20.5 120t-53.5 58q-21 9 -69 9h-86v-382z" />
<glyph unicode="E" horiz-adv-x="382" d="M46 0v501h295v-61h-241v-152h226v-59h-226v-171h251v-58h-305z" />
<glyph unicode="F" horiz-adv-x="350" d="M48 0v501h277v-61h-223v-154h193v-59h-193v-227h-54z" />
<glyph unicode="G" horiz-adv-x="445" d="M31 247q0 83 28 143.5t72.5 89t106.5 28.5q44 0 78 -16.5t55.5 -47.5t32.5 -83l-49 -18q-10 43 -25 64t-39 33t-55 12q-45 0 -77 -22t-52 -67.5t-20 -111.5q0 -100 42.5 -150t109.5 -50q32 0 65.5 15t53.5 37v93h-120v59h172v-185q-39 -39 -82 -59t-87 -20q-61 0 -108 30 t-74.5 88t-27.5 138z" />
<glyph unicode="H" horiz-adv-x="413" d="M44 0v501h55v-206h212v206h55v-501h-55v236h-212v-236h-55z" />
<glyph unicode="I" horiz-adv-x="159" d="M54 0v501h55v-501h-55z" />
<glyph unicode="J" horiz-adv-x="286" d="M16 142l48 8q2 -57 18 -78.5t43 -21.5q20 0 35 11t19 27q7 23 7 68v345h55v-342q0 -92 -30.5 -130t-84.5 -38t-80 35q-30 38 -30 116z" />
<glyph unicode="K" horiz-adv-x="382" d="M43 0v501h53v-249l205 249h72l-171 -203l179 -298h-72l-146 253l-67 -79v-174h-53z" />
<glyph unicode="L" horiz-adv-x="318" d="M41 0v501h54v-443h202v-58h-256z" />
<glyph unicode="M" horiz-adv-x="477" d="M43 0v501h81l97 -356l20 -73q7 28 22 80l98 349h73v-501h-53v418l-119 -418h-49l-118 425v-425h-52z" />
<glyph unicode="N" horiz-adv-x="413" d="M43 0v501h56l214 -393v393h53v-501h-56l-215 393v-393h-52z" />
<glyph unicode="O" horiz-adv-x="445" d="M29 243q0 129 56.5 197.5t140.5 68.5q53 0 98 -30.5t71 -89t26 -140.5q0 -110 -50 -180q-56 -78 -146 -78q-91 0 -146 80q-50 72 -50 172zM85 242q0 -92 40.5 -143t99.5 -51t100 51.5t41 150.5q0 65 -22 116q-16 39 -48 62.5t-70 23.5q-62 0 -101.5 -51.5t-39.5 -158.5z " />
<glyph unicode="P" horiz-adv-x="382" d="M44 0v501h155q54 0 80 -11q36 -13 57 -48t21 -86q0 -68 -34.5 -110t-118.5 -42h-105v-204h-55zM99 262h106q50 0 73 22.5t23 68.5q0 30 -11.5 51t-28 28.5t-57.5 7.5h-105v-178z" />
<glyph unicode="Q" horiz-adv-x="445" d="M26 249q0 82 27 141.5t71 89t98 29.5t99 -30.5t71 -89t26 -139.5q0 -62 -16.5 -112.5t-45.5 -84.5q38 -32 70 -46l-16 -46q-45 21 -88 61q-46 -31 -101 -31q-90 0 -145 80q-50 70 -50 178zM81 249q0 -98 41 -149.5t101 -51.5q28 0 54 13q-25 20 -54 29l14 49 q46 -17 77 -49q48 55 48 160q0 65 -18 110t-50.5 68.5t-70.5 23.5q-61 0 -101.5 -51t-40.5 -152z" />
<glyph unicode="R" horiz-adv-x="413" d="M44 0v501h182q57 0 84 -14.5t44.5 -47t17.5 -75.5q0 -57 -29.5 -92t-86.5 -44q23 -15 35 -28q24 -29 43 -64l71 -136h-67l-55 104q-33 61 -49 82.5t-31 28.5t-42 7h-62v-222h-55zM99 279h116q38 0 58 9.5t31 29.5t11 46q0 38 -21.5 59.5t-65.5 21.5h-129v-166z" />
<glyph unicode="S" horiz-adv-x="382" d="M26 161l51 5q4 -41 19 -64t41.5 -37t60.5 -14q48 0 75 24t27 61q0 22 -10 38.5t-29.5 27t-84.5 30.5q-58 16 -82.5 33.5t-38 44.5t-13.5 61q0 61 39 99t105 38q47 0 81 -18t53 -51.5t20 -79.5l-52 -5q-5 49 -30 72.5t-70 23.5t-70 -21t-25 -53q0 -31 19 -47 q17 -17 79 -33q61 -18 85 -30q38 -19 57 -50t19 -74t-20 -78.5t-54.5 -54t-83.5 -18.5q-76 0 -121 45.5t-47 124.5z" />
<glyph unicode="T" horiz-adv-x="350" d="M15 440v61h324v-61h-135v-440h-55v440h-134z" />
<glyph unicode="U" horiz-adv-x="413" d="M44 210v291h55v-290q0 -67 10 -97.5t34.5 -46.5t58.5 -16q58 0 84 32.5t26 127.5v290h55v-291q0 -71 -14.5 -117.5t-52 -74t-94.5 -27.5q-81 0 -121.5 48.5t-40.5 170.5z" />
<glyph unicode="V" horiz-adv-x="382" d="M3 501h58l108 -364q11 -43 20 -82q10 41 22 82l111 364h56l-161 -501h-56z" />
<glyph unicode="W" horiz-adv-x="540" d="M8 501h56l62 -328q10 -52 18 -103l17 92l79 339h66l58 -254q21 -93 32 -177q8 48 20 108l64 323h55l-112 -501h-52l-88 380l-12 59q-6 -32 -12 -59l-87 -380h-56z" />
<glyph unicode="X" horiz-adv-x="382" d="M3 0l158 261l-140 240h65l75 -129q22 -39 32 -62q14 27 33 58l82 133h60l-145 -237l155 -264h-67l-102 178q-9 15 -18 33q-14 -27 -20 -36l-103 -175h-65z" />
<glyph unicode="Y" horiz-adv-x="382" d="M1 501h67l80 -152q25 -44 42 -84q19 39 45 88l79 148h64l-165 -290v-211h-53v211z" />
<glyph unicode="Z" horiz-adv-x="361" d="M13 0v61l210 321q23 34 43 59h-230v61h295v-61l-231 -347l-25 -36h262v-58h-324z" />
<glyph unicode="[" horiz-adv-x="299" d="M100 -129v875q0 22 22 22h121q22 0 22 -22v-17q0 -21 -22 -21h-72v-799h72q22 0 22 -21v-17q0 -22 -22 -22h-121q-22 0 -22 22z" />
<glyph unicode="\" horiz-adv-x="328" d="M26 669q-6 20 13 20h32q11 0 16 -4.5t7 -12.5l215 -744q6 -22 -12 -22h-34q-17 0 -22 17z" />
<glyph unicode="]" horiz-adv-x="299" d="M40 -112q0 21 22 21h70v799h-70q-22 0 -22 21v17q0 22 22 22h121q22 0 22 -22v-875q0 -22 -22 -22h-121q-22 0 -22 22v17z" />
<glyph unicode="^" horiz-adv-x="385" d="M13 213l154 342h53l155 -342h-58l-123 277l-123 -277h-58z" />
<glyph unicode="_" horiz-adv-x="504" d="M0 -71h504v-55h-504v55z" />
<glyph unicode="`" horiz-adv-x="333" d="M58 679h109l51 -169h-17z" />
<glyph unicode="a" horiz-adv-x="318" d="M19 95q0 31 13.5 55.5t36 38.5t67.5 20q62 9 90 21l1 15q0 38 -14 53q-18 22 -57 22q-35 0 -52.5 -14.5t-25.5 -55.5l-49 9q10 58 42.5 85t91.5 27q47 0 73.5 -17.5t33.5 -44t7 -76.5v-82q0 -85 3 -107.5t13 -43.5h-52q-8 18 -10 45q-25 -27 -52.5 -40.5t-57.5 -13.5 q-46 0 -74 28.5t-28 75.5zM74 97q0 -26 16 -41.5t44 -15.5q27 0 49 14t32.5 37t10.5 68v22q-27 -12 -81 -23q-32 -5 -45 -12t-19.5 -20t-6.5 -29z" />
<glyph unicode="b" horiz-adv-x="318" d="M36 0v501h50v-180q17 25 37.5 37.5t45.5 12.5q35 0 63 -21t45 -63.5t17 -103.5q0 -92 -38.5 -142t-89.5 -50q-26 0 -46.5 13.5t-36.5 41.5v-46h-47zM82 183q0 -55 10.5 -83t29.5 -42.5t41 -14.5q31 0 55 35t24 103q0 72 -23 105.5t-57 33.5q-31 0 -55.5 -35t-24.5 -102z " />
<glyph unicode="c" horiz-adv-x="286" d="M22 181q0 94 38.5 142t97.5 48q46 0 77.5 -29t39.5 -86l-48 -10q-7 37 -25 55.5t-42 18.5q-38 0 -62 -33t-24 -105q0 -73 23 -106t60 -33q29 0 49 21.5t26 68.5l48 -8q-7 -65 -41.5 -99.5t-82.5 -34.5q-58 0 -96 48t-38 142z" />
<glyph unicode="d" horiz-adv-x="318" d="M18 180q0 63 17.5 106t46 64t63.5 21q25 0 46 -13.5t35 -37.5v181h50v-501h-46v46q-15 -27 -35.5 -41t-46.5 -14q-52 0 -91 50t-39 139zM71 180q0 -69 23.5 -103t56.5 -34q32 0 56 32.5t24 98.5q0 76 -24 111t-60 35q-31 0 -53.5 -33.5t-22.5 -106.5z" />
<glyph unicode="e" horiz-adv-x="318" d="M19 178q0 94 40 143.5t100 49.5q57 0 95.5 -48.5t38.5 -141.5v-15h-221q3 -62 28 -92.5t61 -30.5q57 0 80 73l51 -7q-14 -58 -48 -88t-83 -30q-63 0 -102.5 48t-39.5 139zM75 215h166q-4 48 -21 71q-24 34 -62 34q-33 0 -57 -28.5t-26 -76.5z" />
<glyph unicode="f" horiz-adv-x="159" d="M6 314v49h45v38q0 42 9 63.5t27.5 32.5t45.5 11q21 0 47 -6l-7 -53q-16 3 -29 3q-24 0 -33.5 -11.5t-9.5 -44.5v-33h58v-49h-58v-314h-50v314h-45z" />
<glyph unicode="g" horiz-adv-x="318" d="M17 183q0 59 18 103t47 64.5t63 20.5q28 0 49 -13.5t39 -39.5v45h45v-315q0 -82 -13.5 -118t-44.5 -56t-75 -20q-57 0 -88 30.5t-30 85.5l49 -9q4 -29 20.5 -43t48.5 -14q33 0 52 16t26 47q5 19 5 81q-17 -25 -37 -36.5t-46 -11.5q-52 0 -87 45q-41 52 -41 138zM69 188 q0 -72 23.5 -104.5t57.5 -32.5t58.5 32t24.5 102q0 68 -25 101.5t-60 33.5q-32 0 -55.5 -33.5t-23.5 -98.5z" />
<glyph unicode="h" horiz-adv-x="318" d="M37 0v501h50v-181q18 25 40 38t49 13q47 0 74.5 -30.5t27.5 -110.5v-230h-50v230q0 46 -16.5 67t-45.5 21q-33 0 -56 -26.5t-23 -93.5v-198h-50z" />
<glyph unicode="i" horiz-adv-x="127" d="M37 0v363h50v-363h-50zM37 430v71h50v-71h-50z" />
<glyph unicode="j" horiz-adv-x="127" d="M-27 -141l10 53q14 -5 23 -5q15 0 22.5 12.5t7.5 62.5v381h50v-382q0 -74 -19 -100.5t-54 -26.5q-22 0 -40 5zM36 429v72h50v-72h-50z" />
<glyph unicode="k" horiz-adv-x="286" d="M39 0v501h49v-286l120 148h66l-115 -135l125 -228h-62l-99 185l-35 -41v-144h-49z" />
<glyph unicode="l" horiz-adv-x="127" d="M36 0v501h50v-501h-50z" />
<glyph unicode="m" horiz-adv-x="477" d="M38 0v363h44v-52q16 28 39.5 44t51.5 16q31 0 52.5 -16.5t30.5 -47.5q19 32 41.5 48t50.5 16q43 0 67.5 -29.5t24.5 -93.5v-248h-50v228q0 39 -6 55.5t-18.5 25t-27.5 8.5q-32 0 -53 -25.5t-21 -81.5v-210h-51v236q0 44 -13.5 62.5t-37.5 18.5q-34 0 -54.5 -27.5 t-20.5 -101.5v-188h-49z" />
<glyph unicode="n" horiz-adv-x="318" d="M37 0v363h45v-53q17 30 40 45.5t55 15.5q24 0 44 -10t32.5 -25t18.5 -38.5t6 -74.5v-223h-50v220q0 41 -7 59t-21.5 28t-33.5 10q-36 0 -57.5 -27t-21.5 -92v-198h-50z" />
<glyph unicode="o" horiz-adv-x="318" d="M18 180q0 95 39.5 143t99.5 48q59 0 99 -48t40 -138q0 -98 -39 -146t-100 -48q-59 0 -99 48t-40 141zM70 180q0 -69 25.5 -103t62.5 -34q36 0 61.5 34.5t25.5 102.5q0 70 -26 105t-63 35q-36 0 -61 -35t-25 -105z" />
<glyph unicode="p" horiz-adv-x="318" d="M37 -139v502h46v-48q17 29 38 42.5t48 13.5q35 0 63.5 -21t45.5 -64t17 -102q0 -93 -39 -143t-91 -50q-23 0 -43 12.5t-35 34.5v-177h-50zM82 178q0 -69 23.5 -102t57.5 -33q32 0 56 34t24 106q0 71 -23.5 105t-57.5 34q-30 0 -55 -37t-25 -107z" />
<glyph unicode="q" horiz-adv-x="318" d="M18 184q0 80 33 133.5t94 53.5q28 0 49 -14.5t37 -43.5v50h45v-502h-50v178q-12 -22 -33 -35t-43 -13q-53 0 -92.5 51t-39.5 142zM71 182q0 -70 24 -104.5t58 -34.5q31 0 54.5 33t23.5 99q0 74 -25 110.5t-59 36.5q-31 0 -53.5 -34t-22.5 -106z" />
<glyph unicode="r" horiz-adv-x="191" d="M37 0v363h45v-56q18 38 32 51t32 13q26 0 52 -21l-18 -57q-18 14 -35 14t-30 -11.5t-19 -31.5q-9 -35 -9 -75v-189h-50z" />
<glyph unicode="s" horiz-adv-x="286" d="M17 109l51 8q4 -37 24 -55.5t53 -18.5q32 0 50 16t18 41q0 21 -15 33q-11 8 -53 20q-58 19 -77.5 31.5t-30.5 33.5t-11 48q0 46 30 75.5t83 29.5q32 0 57 -12.5t38.5 -32.5t18.5 -57l-49 -8q-7 59 -64 59q-33 0 -49 -13.5t-16 -32.5q0 -21 15 -32q9 -7 55 -23 q62 -19 80 -31t28.5 -32t10.5 -48q0 -52 -33 -84.5t-89 -32.5q-107 0 -125 118z" />
<glyph unicode="t" horiz-adv-x="159" d="M12 314v49h36v89l51 37v-126h49v-49h-49v-211q0 -29 4 -38q6 -13 24 -13q9 0 21 3l8 -54q-21 -6 -38 -6q-26 0 -42 10.5t-22 28.5t-6 72v208h-36z" />
<glyph unicode="u" horiz-adv-x="318" d="M36 138v225h50v-202q0 -55 5.5 -74t21 -30.5t33.5 -11.5q37 0 60 29q20 26 20 95v194h50v-363h-44v53q-18 -31 -41.5 -46.5t-52.5 -15.5q-36 0 -61 19t-33 48t-8 80z" />
<glyph unicode="v" horiz-adv-x="286" d="M7 363h53l64 -218q11 -36 20 -72q5 28 17 68l67 222h51l-112 -363h-47z" />
<glyph unicode="w" horiz-adv-x="413" d="M1 363h52l47 -210l17 -77l16 74l47 213h52l44 -211l15 -69l17 70l51 210h48l-92 -363h-52l-48 217l-11 61l-59 -278h-54z" />
<glyph unicode="x" horiz-adv-x="286" d="M4 0l109 188l-100 175h62l46 -86q13 -24 21 -40q12 23 22 39l50 87h61l-103 -172l110 -191h-62l-61 113l-15 31l-79 -144h-61z" />
<glyph unicode="y" horiz-adv-x="286" d="M9 363h55l62 -211q11 -39 20 -83q10 42 22 82l63 212h50l-112 -369q-24 -72 -36 -96t-28.5 -34t-36.5 -10q-15 0 -32 6l-6 59q17 -6 28 -6q17 0 27.5 6.5t16.5 19.5q3 5 20 60z" />
<glyph unicode="z" horiz-adv-x="398" d="M16 1v49l188 265q-32 -2 -56 -2h-122v50h245v-43l-163 -230l-30 -40q33 3 63 3h137v-52h-262z" />
<glyph unicode="{" horiz-adv-x="341" d="M40 310v20q0 19 16 22q30 5 53.5 34t23.5 78v179q0 30 10 53.5t25 39.5t33.5 24t36.5 8h38q22 0 22 -22v-17q0 -21 -22 -21h-22q-16 0 -25.5 -6.5t-15 -18t-7 -25.5t-1.5 -29v-179q0 -33 -10 -56.5t-24 -39t-28.5 -23t-23.5 -9.5v-2q9 -1 23.5 -7.5t28.5 -21t24 -39 t10 -61.5v-203q0 -15 1.5 -29t7 -25t15 -18t25.5 -7h22q22 0 22 -21v-17q0 -22 -22 -22h-38q-19 0 -37.5 8t-33.5 24t-24.5 39.5t-9.5 53.5v203q0 25 -7 45.5t-18 35t-25 23t-28 9.5q-15 1 -15 20z" />
<glyph unicode="|" horiz-adv-x="251" d="M95 -230v960q0 9 6.5 14.5t14.5 5.5h24q8 0 14.5 -5.5t6.5 -14.5v-960q0 -8 -6.5 -14t-14.5 -6h-24q-8 0 -14.5 6t-6.5 14z" />
<glyph unicode="}" horiz-adv-x="341" d="M40 -112q0 21 22 21h22q16 0 25.5 7t15 18t7 25t1.5 29v203q0 37 10 61.5t24 39t28.5 21t23.5 7.5v2q-9 2 -23.5 9.5t-28.5 23t-24 39t-10 56.5v179q0 15 -1.5 29t-7 25.5t-15 18t-25.5 6.5h-22q-22 0 -22 21v17q0 22 22 22h38q18 0 36.5 -8t33.5 -24t25 -39.5t10 -53.5 v-179q0 -49 23.5 -78t53.5 -34q16 -3 16 -22v-20q0 -19 -15 -20q-14 -1 -28 -9.5t-25 -23t-18 -35t-7 -45.5v-203q0 -30 -9.5 -53.5t-24.5 -39.5t-33.5 -24t-37.5 -8h-38q-22 0 -22 22v17z" />
<glyph unicode="~" horiz-adv-x="554" d="M62.5 300.5q0.5 5.5 10.5 15.5q26 24 56.5 37.5t76.5 13.5q31 0 52 -8.5t39 -18t37 -18t48 -8.5q25 0 42.5 9t31.5 20q7 5 16 6.5t14 -6.5l11 -16q11 -17 -4 -29q-29 -24 -58.5 -38.5t-76.5 -14.5q-32 0 -53 8.5t-39 18t-37 18t-48 8.5q-26 0 -42.5 -9.5t-32.5 -21.5 q-7 -5 -15.5 -4t-14.5 10l-9 14q-5 8 -4.5 13.5z" />
<glyph unicode="&#xa1;" horiz-adv-x="344" d="M117 579q0 25 15.5 41t39.5 16q23 0 39.5 -16.5t16.5 -40.5q0 -23 -16.5 -39t-39.5 -16t-39 16t-16 39zM120 21l20 412q0 6 3 11t11 5h38q5 0 9 -5t5 -10l19 -415q1 -13 -14.5 -23.5t-37.5 -10.5t-38 10.5t-15 25.5z" />
<glyph unicode="&#xa2;" horiz-adv-x="544" d="M65 222q0 48 12.5 89t37.5 72t61.5 50t84.5 22v89q0 9 6 15.5t15 6.5t15.5 -5.5t6.5 -16.5v-89q33 -2 65 -10.5t62 -21.5q4 -2 10 -8t6 -14v-83q0 -5 -4.5 -10t-10.5 -5h-16q-11 0 -13.5 6t-3.5 9q-9 42 -31 66t-64 29v-382q37 5 59 27t33 59q1 4 6.5 10t14.5 6h16 q16 0 19 -11t1 -18q-38 -104 -149 -115v-92q0 -8 -6 -14.5t-15 -6.5t-15.5 6.5t-6.5 14.5v91q-48 3 -84.5 22.5t-61 51t-37.5 72.5t-13 88zM154 222q0 -30 4 -62t15.5 -59t32.5 -46.5t55 -23.5v382q-34 -5 -55 -24t-32.5 -46t-15.5 -59t-4 -62z" />
<glyph unicode="&#xa3;" horiz-adv-x="398" d="M28 14v38q0 8 2.5 10.5t10.5 2.5h51q5 21 10 44t5 66q0 11 -0.5 21t-1.5 19h-63q-9 0 -11.5 2.5t-2.5 11.5v38q0 8 2.5 10.5t11.5 2.5h50q-4 15 -6.5 35t-2.5 37q0 32 11 60t33 48.5t56 32.5t80 12q23 0 45.5 -4.5t40.5 -11t29 -14.5t11 -15q0 -2 -1 -4.5t-2 -4.5 l-19 -38q-4 -6 -8 -6t-10.5 5t-18.5 10.5t-29.5 10.5t-42.5 5q-58 0 -78.5 -20.5t-20.5 -62.5q0 -17 2 -38t6 -37h113q9 0 11.5 -2.5t2.5 -10.5v-38q0 -9 -3 -11.5t-11 -2.5h-100q3 -21 3 -42q0 -41 -5.5 -64.5t-9.5 -43.5h210q5 0 9 -1.5t4 -6.5q0 -6 -3 -13l-15 -34 q-2 -5 -4.5 -7.5t-10.5 -2.5h-317q-8 0 -10.5 2.5t-2.5 11.5z" />
<glyph unicode="&#xa5;" horiz-adv-x="544" d="M2 600q0 10 7 16.5t16 6.5h167q9 0 16 -6t7 -16q0 -9 -7.5 -15.5t-15.5 -6.5h-41l143 -252l142 252h-38q-8 0 -15.5 6.5t-7.5 15.5q0 10 7 16t16 6h116q8 0 15.5 -6.5t7.5 -16.5q0 -9 -7 -15t-16 -6h-27l-117 -207h79q11 0 17.5 -6t6.5 -15q0 -10 -7 -16.5t-16 -6.5h-105 h-1l-31 -53v-33h136q11 0 17.5 -6t6.5 -16q0 -9 -7 -15.5t-16 -6.5h-137v-153h47q9 0 16 -6.5t7 -15.5q0 -10 -7.5 -16.5t-15.5 -6.5h-178q-9 0 -15.5 6t-6.5 16q0 9 7 16t15 7h48v153h-136q-9 0 -16 6t-7 15q0 10 7.5 16.5t15.5 6.5h136v27l-34 59h-102q-9 0 -16 6t-7 16 q0 9 7.5 15.5t15.5 6.5h76l-119 207h-25q-10 0 -17 6t-7 15z" />
<glyph unicode="&#xa7;" horiz-adv-x="427" d="M38 300q0 45 27 71t68 37q-30 18 -48.5 43.5t-18.5 62.5q0 32 13 55t34.5 37.5t49 21.5t55.5 7q29 0 58 -4.5t55 -13.5q3 -2 9 -6.5t6 -14.5v-54q0 -5 -4.5 -10t-9.5 -5h-10q-9 0 -12 6.5t-4 9.5q-6 26 -29.5 37.5t-49.5 11.5q-36 0 -63 -17.5t-27 -57.5q0 -22 18.5 -40 t46.5 -35.5t61 -35t61 -39t46.5 -47.5t18.5 -60q0 -46 -26 -70.5t-66 -40.5q32 -20 48 -46t16 -64q0 -33 -14 -56t-36.5 -37.5t-51 -21t-56.5 -6.5q-30 0 -59.5 4t-58.5 13q-5 2 -12 7.5t-7 13.5v57q0 5 4.5 10.5t9.5 5.5h12q9 0 11.5 -7.5t3.5 -12.5q8 -28 34 -37.5 t55 -9.5q18 0 35 4.5t30 13.5t21 23.5t8 34.5q0 25 -18.5 44.5t-46.5 37t-61 35t-61 38t-46.5 46.5t-18.5 61zM106 314q0 -21 19.5 -43t46.5 -42t55 -36.5t45 -25.5q21 14 34.5 33.5t13.5 46.5q0 25 -18.5 46.5t-44 40t-53 32.5t-45.5 24q-23 -14 -38 -31t-15 -45z" />
<glyph unicode="&#xa8;" horiz-adv-x="427" d="M83 606q0 20 14 34.5t34 14.5q21 0 35 -14t14 -35q0 -22 -13 -35t-36 -13q-20 0 -34 14t-14 34zM247 606q0 21 14.5 35t34.5 14t34.5 -14.5t14.5 -34.5t-14 -34t-35 -14q-22 0 -35.5 13t-13.5 35z" />
<glyph unicode="&#xa9;" horiz-adv-x="556" d="M43 221q0 48 18.5 91t50.5 75t74.5 50.5t91.5 18.5q48 0 91 -18.5t75 -50.5t50.5 -75t18.5 -91q0 -49 -18.5 -91.5t-50.5 -74.5t-75 -50.5t-91 -18.5q-49 0 -91.5 18.5t-74.5 50.5t-50.5 74.5t-18.5 91.5zM78 221q0 -41 16 -77.5t43 -63.5t63.5 -43t77.5 -16t77.5 16 t63.5 43t43 63.5t16 77.5t-16 77.5t-43 63.5t-63.5 43t-77.5 16t-77.5 -16t-63.5 -43t-43 -63.5t-16 -77.5zM153 225q0 29 11.5 53.5t30.5 42.5t43.5 28t50.5 10q21 0 36.5 -4.5t27.5 -11t19.5 -13t11.5 -10.5l-26 -33q-9 8 -26 19.5t-43 11.5q-16 0 -32.5 -6t-30 -18 t-22 -29.5t-8.5 -39.5q0 -23 8.5 -40.5t22 -29t29 -17.5t30.5 -6q32 0 47.5 11t24.5 19l26 -32q-4 -4 -11.5 -10.5t-19 -13t-27.5 -11t-37 -4.5q-27 0 -51.5 10t-43 28t-30 42.5t-11.5 53.5z" />
<glyph unicode="&#xaa;" horiz-adv-x="407" d="M49 409q0 42 23.5 63.5t58.5 29.5t75 8h72v22q0 38 -25 56t-65 18q-30 0 -50.5 -11t-28.5 -37l-3 -6q-2 -4 -8 -4h-11q-6 0 -9 5q-2 2 -2 5v44q0 5 4.5 8.5t7.5 4.5q25 9 49.5 14.5t54.5 5.5q69 0 107.5 -30.5t38.5 -94.5v-163h27q8 0 13 -4.5t5 -11.5t-5 -11t-13 -4h-69 q-8 0 -13 4t-5 11v18q-20 -23 -46.5 -32.5t-58.5 -9.5q-53 0 -88.5 25.5t-35.5 76.5zM115 409q0 -35 22 -53t59 -18q38 0 60 20.5t22 54.5v66h-76q-40 0 -63.5 -15.5t-23.5 -54.5z" />
<glyph unicode="&#xab;" horiz-adv-x="523" d="M66 242v17q0 7 3 12q2 3 4 4l162 143q4 3 8 5.5t9 2.5q15 0 15 -15q0 -9 -5 -16l-124 -144l124 -145q5 -6 5 -16q0 -14 -15 -14q-9 0 -17 8l-162 143q-2 1 -4 4q-3 4 -3 11zM247 242v17q0 6 4 12q2 3 4 4l161 143q4 3 8 5.5t9 2.5q15 0 15 -15q0 -8 -4 -16l-125 -144 l125 -145q2 -4 3 -7t1 -9q0 -14 -15 -14q-9 0 -17 8l-161 143q-2 1 -4 4q-4 6 -4 11z" />
<glyph unicode="&#xac;" horiz-adv-x="716" d="M90 327q0 14 10 23.5t23 9.5h469q14 0 24 -8.5t10 -22.5v-180q0 -14 -9 -24t-23 -10t-23.5 10.5t-9.5 23.5l-1 146h-437q-14 0 -23.5 9t-9.5 23z" />
<glyph unicode="&#xad;" horiz-adv-x="399" d="M71 233v24q0 18 15 18h227q15 0 15 -18v-24q0 -18 -15 -18h-227q-15 0 -15 18z" />
<glyph unicode="&#xae;" horiz-adv-x="855" d="M118 310q0 64 24 120.5t66 98.5t98.5 66.5t120.5 24.5t120.5 -24.5t98.5 -66.5t66.5 -98.5t24.5 -120.5t-24.5 -120.5t-66.5 -98.5t-98.5 -66.5t-120.5 -24.5t-120.5 24.5t-98.5 66.5t-66 98.5t-24 120.5zM161 310q0 -55 21 -103.5t57 -85t84.5 -57.5t103.5 -21 q56 0 104.5 21t84.5 57t57 84.5t21 104.5q0 55 -21 104t-57 85t-84.5 57t-104.5 21q-55 0 -103.5 -21t-84.5 -57.5t-57 -85t-21 -103.5zM269 158q0 5 4.5 8.5t9.5 3.5h27v288h-27q-6 0 -10 3.5t-4 8.5t4.5 9t9.5 4h168q48 0 80.5 -21t32.5 -69q0 -38 -23.5 -56.5 t-61.5 -23.5q20 -5 31.5 -15.5t20.5 -27.5l54 -100h21q13 0 13 -12q0 -5 -4 -8.5t-9 -3.5h-52q-8 0 -11 2.5t-5 5.5l-53 99q-13 23 -25.5 36t-43.5 13h-55v-132h33q13 0 13 -12q0 -5 -4 -8.5t-9 -3.5h-111q-14 0 -14 12zM361 327h73q73 0 73 66q0 65 -73 65h-73v-131z" />
<glyph unicode="&#xb0;" horiz-adv-x="294" d="M43 197q3 27 11.5 46t19 33t22.5 23t24 16q10 5 25.5 9t38.5 1t37 -11t22 -18t11.5 -20.5t4.5 -17.5t2 -19t-2.5 -28.5t-13 -35.5t-29.5 -39q-19 -19 -37.5 -27.5t-34.5 -11.5t-28 -1.5t-17 2.5q-4 1 -14.5 5.5t-21 16t-17.5 30t-3 47.5zM105 206q-7 -21 0.5 -37 t26.5 -15q15 1 27.5 8t21.5 18t14 24.5t4 26.5q-1 26 -25 30q-27 5 -44 -13.5t-25 -41.5z" />
<glyph unicode="&#xb1;" horiz-adv-x="716" d="M91 34q0 14 10.5 24.5t24.5 10.5h466q14 0 24.5 -9.5t10.5 -24.5q0 -14 -9.5 -24.5t-25.5 -10.5l-466 -1q-14 0 -24.5 10t-10.5 25zM91 337q0 15 10.5 25t24.5 10h197v129q0 14 10 24.5t25 10.5q14 0 24.5 -9.5t10.5 -25.5v-129h199q14 0 24.5 -9.5t10.5 -24.5 q0 -14 -9.5 -24.5t-25.5 -10.5h-199v-126q0 -14 -10 -24.5t-24 -10.5q-15 0 -25.5 10.5t-10.5 24.5v126h-197q-14 0 -24.5 9.5t-10.5 24.5z" />
<glyph unicode="&#xb4;" horiz-adv-x="218" d="M46 326.5q0 30.5 5.5 58t13.5 37.5q18 23 48 27.5t57 -6.5q20 -8 24.5 -27t0 -40.5t-13 -41.5t-13.5 -30q-6 -12 -13 -25.5t-17.5 -23.5t-25 -15t-35.5 1q-17 4 -24 29.5t-7 56z" />
<glyph unicode="&#xb5;" horiz-adv-x="556" d="M34 -156q0 10 7.5 16.5t15.5 6.5h41v532h-37q-10 0 -16.5 6t-6.5 16q0 9 7 16t16 7h92q9 0 16 -6.5t7 -15.5v-237q0 -25 2 -50t10.5 -45.5t26.5 -33t51 -12.5q32 0 53 13.5t33.5 35.5t17.5 49.5t5 54.5v202h-34q-9 0 -16 6t-7 16q0 9 7.5 16t15.5 7h88q10 0 16.5 -6.5 t6.5 -15.5v-377h41q9 0 16 -6.5t7 -15.5q0 -10 -7.5 -16.5t-15.5 -6.5h-95q-9 0 -16 6t-7 16v56q-17 -36 -47 -63t-73 -27q-26 0 -44.5 8.5t-34.5 19.5v-149h40q9 0 15.5 -6t6.5 -16q0 -9 -7 -16t-15 -7h-159q-9 0 -16 6.5t-7 15.5z" />
<glyph unicode="&#xb6;" horiz-adv-x="544" d="M66 447q0 44 15.5 77t42.5 55t63 33t77 11h202q12 0 17.5 -6.5t5.5 -16.5q0 -9 -6.5 -15.5t-15.5 -6.5l-28 1l-1 -642q0 -10 -6 -15t-14 -5q-23 0 -23 21v641h-97l1 -641q0 -10 -6.5 -15.5t-15.5 -5.5q-10 0 -16.5 5.5t-6.5 15.5v333q-40 3 -74 14.5t-59.5 33.5t-40 53.5 t-14.5 74.5z" />
<glyph unicode="&#xb7;" horiz-adv-x="272" d="M79 296q0 25 16 40.5t40 15.5q23 0 39.5 -16t16.5 -40q0 -23 -16.5 -39t-39.5 -16t-39.5 15.5t-16.5 39.5z" />
<glyph unicode="&#xb8;" horiz-adv-x="427" d="M120 -134q0 13 7.5 17.5t18.5 5.5q10 0 20.5 -1.5t18.5 -1.5q20 1 36 9.5t15 31.5q0 10 -4 18t-9.5 15.5t-10 14t-4.5 12.5t5 9.5t11 3.5q17 0 31 -15q17 -18 27.5 -37t10.5 -42q0 -21 -9 -35t-23 -22t-32 -11.5t-36 -3.5q-12 0 -24.5 1t-23.5 4.5t-18 9.5t-7 17z" />
<glyph unicode="&#xba;" horiz-adv-x="402" d="M39 471q0 74 43.5 119t117.5 45q75 0 118.5 -45t43.5 -119q0 -75 -43.5 -119t-118.5 -44t-118 44t-43 119zM112 471q0 -22 3.5 -45.5t13 -42.5t27 -31.5t44.5 -12.5q28 0 45.5 12t27.5 31.5t13.5 42.5t3.5 46q0 22 -3.5 45.5t-13.5 43t-27.5 31.5t-45.5 12 q-27 0 -44.5 -12.5t-27 -31.5t-13 -42.5t-3.5 -45.5z" />
<glyph unicode="&#xbb;" horiz-adv-x="523" d="M75 90q0 10 5 16l124 145l-124 144q-5 7 -5 16q0 15 15 15q5 0 9 -2.5t8 -5.5l162 -143q1 -1 3 -4q4 -6 4 -12v-17q0 -5 -4 -11q-2 -3 -3 -4l-162 -143q-8 -8 -17 -8q-15 0 -15 14zM256 90q0 10 5 16l125 145l-125 144q-5 7 -5 16q0 15 16 15q5 0 9 -2.5t8 -5.5l161 -143 q2 -1 4 -4q4 -6 4 -12v-17q0 -5 -4 -11q-2 -3 -4 -4l-161 -143q-8 -8 -17 -8q-16 0 -16 14z" />
<glyph unicode="&#xbf;" horiz-adv-x="459" d="M58 154q0 44 14.5 77t39.5 57t59 39.5t73 23.5v90q0 4 3.5 10.5t11.5 6.5h22q6 0 10.5 -5t4.5 -10v-106q0 -8 -5.5 -13.5t-9.5 -6.5q-59 -18 -97 -57.5t-38 -106.5q0 -55 28.5 -89t85.5 -34q52 0 76.5 26t36.5 64q2 4 4.5 10t11.5 6h14q5 0 9.5 -5t4.5 -10v-80 q0 -7 -5 -12.5t-9 -7.5q-35 -14 -72 -23t-75 -9t-73.5 9.5t-63.5 29.5t-44.5 51t-16.5 75zM214 579q0 24 15.5 40.5t39.5 16.5q25 0 40.5 -15.5t15.5 -41.5q0 -23 -16.5 -39t-39.5 -16t-39 16t-16 39z" />
<glyph unicode="&#xf7;" horiz-adv-x="500" d="M45 211v38q0 8 2.5 12t10.5 4h383q14 0 14 -14v-43q0 -10 -14 -10h-382q-14 0 -14 13zM200 79q0 20 15 34.5t35 14.5t35 -14.5t15 -34.5t-15 -34.5t-35 -14.5t-35 14.5t-15 34.5zM200 384q0 20 15 34.5t35 14.5t35 -14.5t15 -34.5t-15 -34.5t-35 -14.5t-35 14.5t-15 34.5 z" />
<glyph unicode="&#x192;" horiz-adv-x="525" d="M10 334q0 13 9.5 22t22.5 9q17 0 26 -16l100 -175l55 -130h26l35 129l216 532q8 20 27 20q13 0 23 -9t10 -22q0 -5 -3 -12l-274 -663q-2 -6 -11.5 -12.5t-16.5 -6.5h-34q-17 0 -26 15l-180 303q-5 8 -5 16z" />
<glyph unicode="&#x2c6;" horiz-adv-x="427" d="M92 542q0 5 5 12.5t8 12.5l68 108q2 2 5 4q2 2 5.5 3.5t8.5 1.5h44q5 0 8.5 -1.5t5.5 -3.5q3 -2 5 -4l68 -108q3 -5 8 -12.5t5 -12.5q0 -8 -6 -11.5t-14 -3.5t-13.5 1t-10.5 8l-78 100l-78 -101q-4 -5 -10.5 -6.5t-13.5 -1.5q-8 0 -14 3.5t-6 11.5z" />
<glyph unicode="&#x2da;" horiz-adv-x="450" d="M105 670q0 25 9 47t25.5 38.5t38 25.5t47.5 9q25 0 47 -9t38.5 -25.5t25.5 -38.5t9 -47q0 -26 -9 -48t-25.5 -38t-38.5 -25.5t-47 -9.5q-26 0 -47.5 9.5t-38 25.5t-25.5 38t-9 48zM158 670q0 -29 19 -48t48 -19t48 19t19 48q0 28 -19.5 47t-47.5 19q-29 0 -48 -18.5 t-19 -47.5z" />
<glyph unicode="&#x2dc;" horiz-adv-x="427" d="M77 567q0 16 5 33t14.5 31t25 23.5t36.5 9.5q22 0 37 -10t27.5 -22.5t24 -22.5t25.5 -10q20 0 27.5 15t9.5 32q1 5 5 11.5t15 6.5q8 0 15 -6t7 -15q0 -16 -5 -33t-15 -31.5t-25 -23.5t-36 -9q-22 0 -37 10t-27 22.5t-23.5 22.5t-25.5 10q-20 0 -28 -15t-10 -32 q-1 -5 -5 -11.5t-15 -6.5q-9 0 -15.5 6t-6.5 15z" />
<glyph unicode="&#x5b0;" d="M-40 -116q0 17 11.5 28.5t28.5 11.5t28.5 -11.5t11.5 -28.5t-11.5 -28.5t-28.5 -11.5t-28.5 11.5t-11.5 28.5zM-40 -237q0 17 11.5 28.5t28.5 11.5t28.5 -11.5t11.5 -28.5t-11.5 -28.5t-28.5 -11.5t-28.5 11.5t-11.5 28.5z" />
<glyph unicode="&#x5b1;" d="M-170 -116q0 17 11.5 28.5t28.5 11.5t28.5 -11.5t11.5 -28.5t-11.5 -28.5t-28.5 -11.5t-28.5 11.5t-11.5 28.5zM-104 -237q0 17 11.5 28.5t28.5 11.5t28.5 -11.5t11.5 -28.5t-11.5 -28.5t-28.5 -11.5t-28.5 11.5t-11.5 28.5zM-38 -116q0 17 11.5 28.5t28.5 11.5 t28.5 -11.5t11.5 -28.5t-11.5 -28.5t-28.5 -11.5t-28.5 11.5t-11.5 28.5zM88 -116q0 17 11.5 28.5t28.5 11.5t28.5 -11.5t11.5 -28.5t-11.5 -28.5t-28.5 -11.5t-28.5 11.5t-11.5 28.5zM88 -237q0 17 11.5 28.5t28.5 11.5t28.5 -11.5t11.5 -28.5t-11.5 -28.5t-28.5 -11.5 t-28.5 11.5t-11.5 28.5z" />
<glyph unicode="&#x5b2;" d="M-154 -100q0 9 2.5 11.5t11.5 2.5h160q8 0 11 -2.5t3 -11.5v-22q0 -8 -2.5 -11t-11.5 -3h-160q-9 0 -11.5 3t-2.5 11v22zM74 -116q0 17 11.5 28.5t28.5 11.5t28.5 -11.5t11.5 -28.5t-11.5 -28.5t-28.5 -11.5t-28.5 11.5t-11.5 28.5zM74 -237q0 17 11.5 28.5t28.5 11.5 t28.5 -11.5t11.5 -28.5t-11.5 -28.5t-28.5 -11.5t-28.5 11.5t-11.5 28.5z" />
<glyph unicode="&#x5b3;" d="M-154 -100q0 9 2.5 11.5t11.5 2.5h160q8 0 11 -2.5t3 -11.5v-22q0 -8 -2.5 -11t-11.5 -3h-58l5 -39v-81q0 -8 -2.5 -10t-10.5 -2h-28q-8 0 -10.5 2t-2.5 10v81l5 39h-58q-9 0 -11.5 3t-2.5 11v22zM74 -116q0 17 11.5 28.5t28.5 11.5t28.5 -11.5t11.5 -28.5t-11.5 -28.5 t-28.5 -11.5t-28.5 11.5t-11.5 28.5zM74 -237q0 17 11.5 28.5t28.5 11.5t28.5 -11.5t11.5 -28.5t-11.5 -28.5t-28.5 -11.5t-28.5 11.5t-11.5 28.5z" />
<glyph unicode="&#x5b4;" d="M-40 -116q0 17 11.5 28.5t28.5 11.5t28.5 -11.5t11.5 -28.5t-11.5 -28.5t-28.5 -11.5t-28.5 11.5t-11.5 28.5z" />
<glyph unicode="&#x5b5;" d="M-110 -116q0 17 11.5 28.5t28.5 11.5t28.5 -11.5t11.5 -28.5t-11.5 -28.5t-28.5 -11.5t-28.5 11.5t-11.5 28.5zM30 -116q0 17 11.5 28.5t28.5 11.5t28.5 -11.5t11.5 -28.5t-11.5 -28.5t-28.5 -11.5t-28.5 11.5t-11.5 28.5z" />
<glyph unicode="&#x5b6;" d="M-108 -116q0 17 11.5 28.5t28.5 11.5t28.5 -11.5t11.5 -28.5t-11.5 -28.5t-28.5 -11.5t-28.5 11.5t-11.5 28.5zM-40 -237q0 17 11.5 28.5t28.5 11.5t28.5 -11.5t11.5 -28.5t-11.5 -28.5t-28.5 -11.5t-28.5 11.5t-11.5 28.5zM28 -116q0 17 11.5 28.5t28.5 11.5t28.5 -11.5 t11.5 -28.5t-11.5 -28.5t-28.5 -11.5t-28.5 11.5t-11.5 28.5z" />
<glyph unicode="&#x5b7;" d="M-94 -100q0 9 2.5 11.5t11.5 2.5h160q8 0 11 -2.5t3 -11.5v-22q0 -8 -2.5 -11t-11.5 -3h-160q-9 0 -11.5 3t-2.5 11v22z" />
<glyph unicode="&#x5b8;" d="M-94 -100q0 9 2.5 11.5t11.5 2.5h160q8 0 11 -2.5t3 -11.5v-22q0 -8 -2.5 -11t-11.5 -3h-58l5 -39v-81q0 -8 -2.5 -10t-10.5 -2h-28q-8 0 -10.5 2t-2.5 10v81l5 39h-58q-9 0 -11.5 3t-2.5 11v22z" />
<glyph unicode="&#x5b9;" d="M-40 582q0 17 11.5 28.5t28.5 11.5t28.5 -11.5t11.5 -28.5t-11.5 -28.5t-28.5 -11.5t-28.5 11.5t-11.5 28.5z" />
<glyph unicode="&#x5bb;" d="M-144 -113q0 17 11.5 28.5t28.5 11.5t28.5 -11.5t11.5 -28.5t-11.5 -28.5t-28.5 -11.5t-28.5 11.5t-11.5 28.5zM-40 -175q0 17 11.5 28.5t28.5 11.5t28.5 -11.5t11.5 -28.5t-11.5 -28.5t-28.5 -11.5t-28.5 11.5t-11.5 28.5zM64 -237q0 17 11.5 28.5t28.5 11.5t28.5 -11.5 t11.5 -28.5t-11.5 -28.5t-28.5 -11.5t-28.5 11.5t-11.5 28.5z" />
<glyph unicode="&#x5bc;" d="M-40 240q0 17 11.5 28.5t28.5 11.5t28.5 -11.5t11.5 -28.5t-11.5 -28.5t-28.5 -11.5t-28.5 11.5t-11.5 28.5z" />
<glyph unicode="&#x5bd;" horiz-adv-x="1000" />
<glyph unicode="&#x5be;" horiz-adv-x="399" d="M71 455v26q0 19 15 19h227q15 0 15 -19v-26q0 -18 -15 -18h-227q-15 0 -15 18z" />
<glyph unicode="&#x5bf;" horiz-adv-x="477" d="M61 220v27q0 18 15 18h326q15 0 15 -18v-27q0 -18 -15 -18h-327q-14 0 -14 18z" />
<glyph unicode="&#x5c1;" d="M-40 582q0 17 11.5 28.5t28.5 11.5t28.5 -11.5t11.5 -28.5t-11.5 -28.5t-28.5 -11.5t-28.5 11.5t-11.5 28.5z" />
<glyph unicode="&#x5c2;" d="M-40 582q0 17 11.5 28.5t28.5 11.5t28.5 -11.5t11.5 -28.5t-11.5 -28.5t-28.5 -11.5t-28.5 11.5t-11.5 28.5z" />
<glyph unicode="&#x5d0;" horiz-adv-x="465" d="M46 466q-3 5 0 10t9 10t13.5 9.5t13.5 8.5q8 6 15 -2l189 -274q18 10 32 24q12 11 22.5 27.5t10.5 36.5v121h-71q-10 0 -10 11v41q0 11 10 11h122q11 0 11 -13v-165q0 -26 -5.5 -46t-14 -35t-19 -25.5t-20.5 -17.5l-31 -21l96 -141q4 -5 3 -10t-3 -6l-34 -25q-2 -2 -8 -1 t-8 5l-209 303q-33 -29 -41 -66.5t-8 -92.5v-80h61q3 0 6.5 -3.5t3.5 -7.5v-41q0 -4 -3.5 -7.5t-6.5 -3.5h-110q-4 0 -7.5 3.5t-3.5 7.5v159q0 67 16.5 111.5t53.5 76.5z" />
<glyph unicode="&#x5d1;" horiz-adv-x="427" d="M46 16v31q0 16 15 16h233q-28 4 -28 68v306h-198q-15 0 -15 16v31q0 16 15 16h241q17 0 17 -17v-420h50q16 0 16 -16v-31q0 -16 -15 -16h-316q-15 0 -15 16z" />
<glyph unicode="&#x5d2;" horiz-adv-x="336" d="M38 30l119 232q10 17 28 7l29 -18v186h-67q-15 0 -15 16v31q0 16 15 16h112q16 0 16 -17v-323q0 -97 27 -125q2 -4 2 -8q0 -10 -11 -21t-22 -11q-4 0 -8 2q-32 16 -43 62q-2 12 -3.5 32t-1.5 48v106l-123 -245q-8 -16 -22 -6l-27 15q-13 7 -5 21z" />
<glyph unicode="&#x5d3;" horiz-adv-x="399" d="M35 453v31q0 16 15 16h297q15 0 15 -16v-31q0 -16 -15 -16h-61v-421q0 -16 -15 -16h-31q-14 0 -14 16v366q0 26 12 43q10 12 18 12h-206q-15 0 -15 16z" />
<glyph unicode="&#x5d4;" horiz-adv-x="422" d="M48 453v31q0 16 15 16h228q79 0 79 -86v-398q0 -16 -15 -16h-30q-15 0 -15 16v421h-247q-15 0 -15 16zM71 16v258q0 17 14 17h31q15 0 15 -17v-258q0 -16 -15 -16h-30q-15 0 -15 16z" />
<glyph unicode="&#x5d5;" horiz-adv-x="249" d="M43 454v30q0 16 16 16h110q17 0 17 -17l1 -467q0 -16 -16 -16h-29q-16 0 -16 16v421h-67q-16 0 -16 17z" />
<glyph unicode="&#x5d6;" horiz-adv-x="295" d="M46 453v30q0 17 15 17h176q15 0 15 -17v-30q0 -16 -16 -16h-64l40 -422q2 -17 -11 -18l-32 -3q-16 -1 -17 14l-34 370q-1 4 -1 12q0 45 23 47h-79q-15 0 -15 16z" />
<glyph unicode="&#x5d7;" horiz-adv-x="462" d="M45 453v31q0 16 15 16h323q16 0 16 -18v-466q0 -16 -15 -16h-30q-15 0 -15 16l1 421h-186v-421q0 -16 -15 -16h-30q-15 0 -15 16v360q0 44 27 61h-61q-15 0 -15 16z" />
<glyph unicode="&#x5d8;" horiz-adv-x="450" d="M60 17v467q0 16 15 16h30q15 0 15 -16v-421h98q123 0 123 147v227h-70q-15 0 -15 16v30q0 17 15 17h112q17 0 17 -19l1 -253q0 -228 -193 -228h-133q-15 0 -15 17z" />
<glyph unicode="&#x5d9;" horiz-adv-x="242" d="M48 454v29q0 17 15 17h112q16 0 16 -19v-256q0 -17 -15 -17h-30q-15 0 -15 17v212h-68q-15 0 -15 17z" />
<glyph unicode="&#x5da;" horiz-adv-x="368" d="M38 453v31q0 16 15 16h247q17 0 17 -18v-622q0 -16 -14 -16h-31q-15 0 -15 16v577h-204q-15 0 -15 16z" />
<glyph unicode="&#x5db;" horiz-adv-x="388" d="M42 453v31q0 16 15 16h268q16 0 16 -17v-246q0 -115 -37 -170q-46 -67 -155 -67h-87q-16 0 -16 16v31q0 16 16 16h97q57 0 89.5 40.5t32.5 115.5v218h-224q-15 0 -15 16z" />
<glyph unicode="&#x5dc;" horiz-adv-x="397" d="M36 453v59q0 78 25 116q8 14 19 7l8 -4q4 -2 9 -4q11 -5 11 -14q0 -3 -1 -4q-11 -25 -14 -53q-1 -5 -1 -19v-37h240q16 0 16 -17v-298q0 -189 -161 -184q-14 0 -15 16v29q0 14 15 16q62 1 84 37q18 28 18 114v224h-239q-14 0 -14 16z" />
<glyph unicode="&#x5dd;" horiz-adv-x="458" d="M37 454v32q0 14 14 14h297q61 0 61 -67v-369q0 -64 -62 -64h-242q-15 0 -15 14v423h-38q-15 0 -15 17zM129 437q21 -20 21 -68v-306h199l1 374h-221z" />
<glyph unicode="&#x5de;" horiz-adv-x="446" d="M42 452v33q0 15 15 15h278q63 0 63 -64v-372q0 -64 -62 -64h-83q-15 0 -15 15v33q0 15 15 15h84v374h-201q26 -14 26 -54q0 -5 -0.5 -10t-1.5 -10l-49 -352q-2 -17 -18 -14l-31 4q-14 3 -12 20l56 416h-49q-15 0 -15 15z" />
<glyph unicode="&#x5df;" horiz-adv-x="228" d="M33 453v31q0 16 15 16h112q15 0 15 -17v-623q0 -15 -14 -15h-31q-15 0 -15 15l1 577h-68q-15 0 -15 16z" />
<glyph unicode="&#x5e0;" horiz-adv-x="275" d="M41 16v30q0 17 14 17h14q61 0 83 43q17 36 17 121v210h-55q-15 0 -15 16v31q0 16 15 16h97q18 0 18 -18v-281q0 -104 -33 -152q-34 -49 -111 -49h-30q-14 0 -14 16z" />
<glyph unicode="&#x5e1;" horiz-adv-x="416" d="M55 483q0 17 17 17h238q28 0 46 -19q17 -19 17 -45v-236q0 -96 -37 -142q-46 -58 -155 -58h-95q-30 0 -30 29zM115 63h75q64 0 92 25q31 28 31 95v254h-198v-374z" />
<glyph unicode="&#x5e2;" horiz-adv-x="427" d="M41 16v31q0 16 15 16h110l-75 325q-10 50 -29 77q-9 12 4 21l24 14q12 7 22 -3q21 -24 40 -105l65 -276q8 -33 -12 -41l-28 -12q80 0 111 29q32 34 32 126v266q0 16 15 16h31q14 0 14 -16v-293q0 -100 -54 -149q-47 -42 -121 -42h-149q-15 0 -15 16z" />
<glyph unicode="&#x5e3;" horiz-adv-x="406" d="M37 270v214q0 16 15 16h237q30 0 48 -19.5t18 -47.5v-573q0 -16 -14 -16h-30q-16 0 -16 16v577h-198v-145h67q15 1 15 -15v-34q0 -15 -15 -15h-88q-39 0 -39 42z" />
<glyph unicode="&#x5e4;" horiz-adv-x="420" d="M45 265v218q0 17 18 17h231q80 0 80 -84v-187q0 -111 -38 -164q-45 -65 -155 -65h-87q-15 0 -15 16v31q0 16 15 16h97q122 0 122 148v226h-208v-149h67q15 0 15 -16v-35q0 -16 -15 -16h-83q-44 0 -44 44z" />
<glyph unicode="&#x5e5;" horiz-adv-x="412" d="M20 482q2 14 14 18q28 9 30 9q11 0 11 -12q0 -22 29 -78l106 -194q58 7 78 48q16 32 16 119v45h-55q-15 0 -15 16v31q0 16 15 16h98q16 0 16 -18l1 -117q0 -167 -125 -194l158 -294q8 -16 -5 -23l-28 -14q-13 -7 -21 8l-286 531q-38 72 -37 103z" />
<glyph unicode="&#x5e6;" horiz-adv-x="437" d="M41 16v31q0 16 15 16h188q52 0 85 -10q-38 20 -68 62l-179 259q-35 52 -40 102q0 14 15 19q25 9 29 9q8 0 10 -8q12 -52 29 -75l140 -203q43 18 56 63q10 30 10 109v47h-55q-15 0 -15 16v31q0 16 15 16h99q16 0 16 -18v-119q0 -78 -21.5 -123.5t-70.5 -70.5l43 -59 q17 -25 28 -40q7 -10 7 -22v-32q0 -16 -15 -16h-306q-15 0 -15 16z" />
<glyph unicode="&#x5e7;" horiz-adv-x="421" d="M44 457v25q0 18 18 18h294q16 0 16 -16v-287q0 -192 -151 -192h-5q-13 0 -13 15v33q0 11 13 11h5q52 0 75 48q16 33 16 108v217h-250q-18 0 -18 20zM80 -140v413q0 16 14 16h31q15 0 15 -16v-413q0 -15 -15 -15h-31q-14 0 -14 15z" />
<glyph unicode="&#x5e8;" horiz-adv-x="380" d="M32 455v29q0 16 14 16h215q62 0 62 -65v-419q0 -16 -14 -16h-31q-14 0 -14 16v421h-217q-15 0 -15 18z" />
<glyph unicode="&#x5e9;" horiz-adv-x="593" d="M67 29v455q0 16 15 16h30q15 0 15 -16v-421h169q-27 13 -27 62v359q0 16 15 16h30q15 0 15 -16v-421h34q124 0 124 147v227h-42q-15 0 -15 16v31q0 16 15 16h86q15 0 15 -17v-254q0 -112 -37 -165q-45 -64 -155 -64h-261q-26 0 -26 29z" />
<glyph unicode="&#x5ea;" horiz-adv-x="500" d="M35 4v43q0 11 10 11h4q55 0 76 35q19 31 19 118v226h-54q-15 0 -15 16v31q0 16 15 16h339q16 0 16 -18l1 -466q0 -16 -15 -16h-31q-14 0 -14 16v421h-210q28 -13 28 -57v-199q0 -186 -143 -188q-26 0 -26 11z" />
<glyph unicode="&#x5f0;" horiz-adv-x="498" d="M292 454v30q0 16 16 16h110q17 0 17 -17l1 -467q0 -16 -16 -16h-29q-16 0 -16 16v421h-67q-16 0 -16 17zM43 454v30q0 16 16 16h110q17 0 17 -17l1 -467q0 -16 -16 -16h-29q-16 0 -16 16v421h-67q-16 0 -16 17z" />
<glyph unicode="&#x5f1;" horiz-adv-x="491" d="M285 454v30q0 16 16 16h110q17 0 17 -17l1 -467q0 -16 -16 -16h-29q-16 0 -16 16v421h-67q-16 0 -16 17zM48 454v29q0 17 15 17h112q16 0 16 -19v-256q0 -17 -15 -17h-30q-15 0 -15 17v212h-68q-15 0 -15 17z" />
<glyph unicode="&#x5f2;" horiz-adv-x="484" d="M290 454v29q0 17 15 17h112q16 0 16 -19v-256q0 -17 -15 -17h-30q-15 0 -15 17v212h-68q-15 0 -15 17zM48 454v29q0 17 15 17h112q16 0 16 -19v-256q0 -17 -15 -17h-30q-15 0 -15 17v212h-68q-15 0 -15 17z" />
<glyph unicode="&#x5f3;" horiz-adv-x="133" d="M20 385l36 172q5 18 21 14l28 -6q16 -4 10 -21l-52 -173q-4 -15 -17 -11l-18 6q-11 5 -8 19z" />
<glyph unicode="&#x5f4;" horiz-adv-x="239" d="M21 385l36 173q5 18 21 14l28 -7q16 -3 11 -21l-53 -172q-4 -16 -16 -12l-19 7q-11 3 -8 18zM117 385l35 172q5 18 21 14l29 -6q15 -4 10 -21l-52 -173q-4 -16 -17 -11l-19 6q-11 5 -7 19z" />
<glyph unicode="&#x2000;" horiz-adv-x="395" />
<glyph unicode="&#x2001;" horiz-adv-x="790" />
<glyph unicode="&#x2002;" horiz-adv-x="395" />
<glyph unicode="&#x2003;" horiz-adv-x="790" />
<glyph unicode="&#x2004;" horiz-adv-x="263" />
<glyph unicode="&#x2005;" horiz-adv-x="197" />
<glyph unicode="&#x2006;" horiz-adv-x="131" />
<glyph unicode="&#x2007;" horiz-adv-x="131" />
<glyph unicode="&#x2008;" horiz-adv-x="98" />
<glyph unicode="&#x2009;" horiz-adv-x="158" />
<glyph unicode="&#x200a;" horiz-adv-x="43" />
<glyph unicode="&#x2010;" horiz-adv-x="399" d="M71 233v24q0 18 15 18h227q15 0 15 -18v-24q0 -18 -15 -18h-227q-15 0 -15 18z" />
<glyph unicode="&#x2011;" horiz-adv-x="399" d="M71 233v24q0 18 15 18h227q15 0 15 -18v-24q0 -18 -15 -18h-227q-15 0 -15 18z" />
<glyph unicode="&#x2012;" horiz-adv-x="399" d="M71 233v24q0 18 15 18h227q15 0 15 -18v-24q0 -18 -15 -18h-227q-15 0 -15 18z" />
<glyph unicode="&#x2013;" horiz-adv-x="434" d="M36 315l29 72q3 3 5 3l327 -11q2 0 4 -2.5t0 -5.5l-22 -69q0 -2 -1 -3q-2 -2 -9 -2l-329 11q-8 0 -4 7z" />
<glyph unicode="&#x2014;" horiz-adv-x="508" d="M36 190l29 72q3 3 5 3l399 -17q2 0 4 -2.5t0 -5.5l-22 -69q0 -2 -1 -3q-2 -2 -9 -2l-401 17q-8 0 -4 7z" />
<glyph unicode="&#x2018;" horiz-adv-x="133" d="M20 385l36 172q5 18 21 14l28 -6q16 -4 10 -21l-52 -173q-4 -15 -17 -11l-18 6q-11 5 -8 19z" />
<glyph unicode="&#x2019;" horiz-adv-x="133" d="M20 385l36 172q5 18 21 14l28 -6q16 -4 10 -21l-52 -173q-4 -15 -17 -11l-18 6q-11 5 -8 19z" />
<glyph unicode="&#x201a;" horiz-adv-x="133" d="M20 385l36 172q5 18 21 14l28 -6q16 -4 10 -21l-52 -173q-4 -15 -17 -11l-18 6q-11 5 -8 19z" />
<glyph unicode="&#x201c;" horiz-adv-x="239" d="M21 385l36 173q5 18 21 14l28 -7q16 -3 11 -21l-53 -172q-4 -16 -16 -12l-19 7q-11 3 -8 18zM117 385l35 172q5 18 21 14l29 -6q15 -4 10 -21l-52 -173q-4 -16 -17 -11l-19 6q-11 5 -7 19z" />
<glyph unicode="&#x201d;" horiz-adv-x="239" d="M21 385l36 173q5 18 21 14l28 -7q16 -3 11 -21l-53 -172q-4 -16 -16 -12l-19 7q-11 3 -8 18zM117 385l35 172q5 18 21 14l29 -6q15 -4 10 -21l-52 -173q-4 -16 -17 -11l-19 6q-11 5 -7 19z" />
<glyph unicode="&#x201e;" horiz-adv-x="390" d="M29 365q-3 1 1 8l39 59q2 2 5 2l101 -20q5 -2 5 -6l-21 -133q0 -3 -2 -6t-6 -3l-75 -12q-6 -2 -6 5l4 81q1 5 0 9q-2 8 -8 9l-33 5q-3 1 -4 2zM202 365q-3 1 1 8l39 59q0 2 4 2l102 -20q5 -2 4 -6l-20 -133q-1 -3 -3 -6t-5 -3l-75 -12q-6 -2 -6 5l4 81q1 5 0 9q-2 8 -8 9 l-33 5q-3 1 -4 2z" />
<glyph unicode="&#x2020;" horiz-adv-x="427" d="M23 417q0 14 11 26t26 10l130 -15l-12 149q-2 14 9.5 25t25.5 11q15 0 26.5 -10.5t9.5 -25.5l-12 -148l131 14q15 2 25.5 -9t10.5 -26t-11 -27t-26 -10l-130 12l12 -441q0 -14 -10.5 -24.5t-25.5 -10.5q-14 0 -25.5 10.5t-10.5 25.5l14 440l-132 -12q-13 -2 -24.5 9.5 t-11.5 26.5z" />
<glyph unicode="&#x2021;" horiz-adv-x="427" d="M23 125q0 15 11 27t26 10l130 -15q-2 31 -8 61.5t-6 61.5q0 32 6.5 62t8.5 61l-132 -12q-13 -2 -24.5 9.5t-11.5 26.5q0 14 11 26t26 10l130 -15l-12 149q-2 14 9.5 25t25.5 11q15 0 26.5 -10.5t9.5 -25.5l-12 -148l131 14q15 2 25.5 -9t10.5 -26t-11 -27t-26 -10 l-130 12q4 -30 9.5 -61t5.5 -62q0 -30 -5.5 -61.5t-9.5 -60.5l131 14q15 2 25.5 -9.5t10.5 -25.5q0 -15 -11 -27t-26 -10l-130 12l12 -150q1 -14 -10 -24.5t-26 -10.5q-14 0 -26 10.5t-10 25.5l14 149l-132 -12q-13 -2 -24.5 9.5t-11.5 25.5z" />
<glyph unicode="&#x2022;" horiz-adv-x="350" d="M55 331q0 51 35 86q34 36 87 36q52 0 87 -36q36 -35 36 -86q0 -26 -9.5 -48.5t-26 -39t-39 -26t-48.5 -9.5t-48 9.5t-38.5 26t-26 39t-9.5 48.5z" />
<glyph unicode="&#x2026;" horiz-adv-x="535" d="M20 31v28q0 44 44 44t44 -44v-28q0 -44 -44 -44t-44 44zM199 31v28q0 45 44 45t44 -45v-28q0 -46 -44 -46t-44 46zM377 31v28q0 44 44 44t44 -44v-28q0 -44 -44 -44t-44 44z" />
<glyph unicode="&#x202f;" horiz-adv-x="158" />
<glyph unicode="&#x2030;" horiz-adv-x="1148" d="M47 465q0 34 8.5 65t26.5 54t45 37t64 14t64 -14t45 -37t26.5 -54t8.5 -65t-8.5 -65t-26 -54t-45 -37t-64.5 -14q-38 0 -65 14t-44.5 37.5t-26 54t-8.5 64.5zM114 465q0 -19 3 -42t12 -43t24 -33.5t39 -13.5t39 13.5t23.5 33.5t11.5 43t3 42q0 18 -3 41t-11.5 43 t-23.5 33.5t-39 13.5q-25 0 -40 -13.5t-23.5 -33.5t-11.5 -42.5t-3 -41.5zM199 13q0 4 2 10q1 3 2 5l357 591q9 16 27 16q11 0 18 -8t7 -18q0 -9 -6 -18l-354 -589q-10 -15 -27 -15q-12 0 -19 8t-7 18zM477 158q0 34 8.5 65t26.5 54t45 37t64 14t64.5 -14t45.5 -37.5 t26.5 -54t8.5 -64.5t-8.5 -65t-26.5 -54t-45.5 -37t-64.5 -14t-64 13.5t-45 37t-26.5 54t-8.5 65.5zM544 158q0 -19 3 -41.5t11.5 -42.5t23.5 -33.5t39 -13.5t39.5 13.5t23.5 33.5t11 42.5t3 41.5t-3 41.5t-11 42.5t-23.5 33.5t-39.5 13.5t-39.5 -13.5t-23.5 -33.5 t-11 -42.5t-3 -41.5zM812 158q0 34 8.5 65t26.5 54t45 37t65 14q37 0 64 -14t44.5 -37.5t26 -54t8.5 -64.5t-8.5 -65t-26 -54t-44.5 -37t-64 -14q-38 0 -65 13.5t-45 37t-26.5 54t-8.5 65.5zM879 158q0 -19 3 -41.5t12 -42.5t24 -33.5t39 -13.5t39 13.5t23.5 33.5t11.5 42.5 t3 41.5q0 18 -3 41t-11.5 43.5t-23.5 34t-39 13.5t-39 -13.5t-24 -34t-12 -43.5t-3 -41z" />
<glyph unicode="&#x2039;" horiz-adv-x="342" d="M66 242v17q0 7 3 12q2 3 4 4l162 143q4 3 8 5.5t9 2.5q15 0 15 -15q0 -9 -5 -16l-124 -144l124 -145q5 -6 5 -16q0 -14 -15 -14q-9 0 -17 8l-162 143q-2 1 -4 4q-3 4 -3 11z" />
<glyph unicode="&#x203a;" horiz-adv-x="342" d="M75 90q0 10 5 16l124 145l-124 144q-5 7 -5 16q0 15 15 15q5 0 9 -2.5t8 -5.5l162 -143q1 -1 3 -4q4 -6 4 -12v-17q0 -5 -4 -11q-2 -3 -3 -4l-162 -143q-8 -8 -17 -8q-15 0 -15 14z" />
<glyph unicode="&#x205f;" horiz-adv-x="197" />
<glyph unicode="&#x20ac;" horiz-adv-x="473" d="M27 278v16q0 9 2 13t13 4h51q17 87 68.5 135t126.5 48q25 0 50.5 -7.5t46.5 -18t34 -20.5t13 -16q0 -2 -1 -4l-2 -4l-21 -39q-4 -6 -6 -6t-10.5 7.5t-23 16.5t-33.5 16.5t-41 7.5q-57 0 -85 -31t-37 -85h166q11 0 13 -4t2 -13v-16q0 -11 -17 -11h-168q-1 -7 -1 -13v-14 v-14q0 -6 1 -13h172q11 0 13 -4t2 -13v-16q0 -11 -17 -11h-166q7 -48 32 -82t78 -34q24 0 45.5 6.5t38 14t27 14t12.5 6.5t6 -6l17 -42l2 -4q1 -2 1 -4q0 -4 -14.5 -12.5t-37 -17.5t-50.5 -15.5t-56 -6.5q-78 0 -125.5 49t-58.5 134h-48q-8 0 -10 2.5t-2 8.5v16q0 9 2 13 t13 4h41v12q0 11 0.5 21.5t1.5 20.5h-48q-8 0 -10 2.5t-2 8.5z" />
<glyph unicode="&#x2122;" horiz-adv-x="1000" d="M110 657v59h325v-59h-130v-339h-66v339h-129zM479 318v398h98l101 -318l97 318h96v-398h-61v334l-102 -334h-61l-106 339v-339h-62z" />
<glyph unicode="&#x2260;" horiz-adv-x="399" d="M71 -11l200 532q6 15 20 10l28 -11q14 -5 8 -20l-200 -532q-5 -15 -19 -9l-29 10q-13 6 -8 20zM71 189v17q0 18 15 18h227q15 0 15 -18v-17q0 -18 -15 -18h-227q-15 0 -15 18zM71 284v17q0 18 15 18h227q15 0 15 -18v-17q0 -17 -15 -17h-227q-15 0 -15 17z" />
<glyph unicode="&#xe000;" horiz-adv-x="365" d="M0 365h365v-365h-365v365z" />
<glyph unicode="&#xfb00;" horiz-adv-x="318" d="M165 314v49h45v38q0 42 9 63.5t27.5 32.5t45.5 11q21 0 47 -6l-7 -53q-16 3 -29 3q-24 0 -33.5 -11.5t-9.5 -44.5v-33h58v-49h-58v-314h-50v314h-45zM6 314v49h45v38q0 42 9 63.5t27.5 32.5t45.5 11q21 0 47 -6l-7 -53q-16 3 -29 3q-24 0 -33.5 -11.5t-9.5 -44.5v-33h58 v-49h-58v-314h-50v314h-45z" />
<glyph unicode="&#xfb01;" horiz-adv-x="570" d="M30 22q0 9 7.5 16t15.5 7h51v354h-50q-9 0 -16 6t-7 16q0 9 7.5 16t15.5 7h50q0 30 1 59t14 57q12 27 31.5 44.5t42.5 27.5t50 14t54 4q39 0 75.5 -5.5t58.5 -13.5q5 -2 10.5 -7.5t5.5 -14.5v-54q0 -6 -4.5 -10t-10.5 -4h-12q-8 0 -10.5 6t-3.5 10q-6 29 -35 40.5 t-67 11.5q-44 0 -69 -12t-37 -34t-14.5 -52.5t-2.5 -66.5h274q9 0 16 -6.5t7 -15.5v-377h51q9 0 16 -6.5t7 -15.5q0 -10 -7 -16.5t-16 -6.5h-178q-10 0 -16.5 6t-6.5 16q0 9 7 16t16 7h50v354h-220v-354h51q9 0 16 -6.5t7 -15.5q0 -10 -7.5 -16.5t-15.5 -6.5h-179 q-9 0 -16 6t-7 16z" />
<glyph unicode="&#xfb02;" horiz-adv-x="570" d="M30 22q0 9 7.5 16t15.5 7h51v354h-50q-9 0 -16 6t-7 16q0 9 7.5 16t15.5 7h50q0 30 1 59t14 57q12 27 31.5 44.5t42.5 27.5t50 14t54 4h152q10 0 16.5 -6.5t6.5 -15.5v-583h50q10 0 16.5 -6.5t6.5 -15.5q0 -10 -7 -16.5t-16 -6.5h-177q-10 0 -16.5 6t-6.5 16q0 9 7 16 t16 7h50v560h-91q-44 0 -69 -10.5t-37 -30.5t-14.5 -50.5t-2.5 -69.5h100q10 0 16.5 -6.5t6.5 -15.5q0 -10 -7 -16.5t-16 -6.5h-100v-354h51q9 0 16 -6.5t7 -15.5q0 -10 -7.5 -16.5t-15.5 -6.5h-179q-9 0 -16 6t-7 16z" />
<glyph unicode="&#xfb03;" horiz-adv-x="445" d="M355 0v363h50v-363h-50zM355 430v71h50v-71h-50zM165 314v49h45v38q0 42 9 63.5t27.5 32.5t45.5 11q21 0 47 -6l-7 -53q-16 3 -29 3q-24 0 -33.5 -11.5t-9.5 -44.5v-33h58v-49h-58v-314h-50v314h-45zM6 314v49h45v38q0 42 9 63.5t27.5 32.5t45.5 11q21 0 47 -6l-7 -53 q-16 3 -29 3q-24 0 -33.5 -11.5t-9.5 -44.5v-33h58v-49h-58v-314h-50v314h-45z" />
<glyph unicode="&#xfb04;" horiz-adv-x="445" d="M354 0v501h50v-501h-50zM165 314v49h45v38q0 42 9 63.5t27.5 32.5t45.5 11q21 0 47 -6l-7 -53q-16 3 -29 3q-24 0 -33.5 -11.5t-9.5 -44.5v-33h58v-49h-58v-314h-50v314h-45zM6 314v49h45v38q0 42 9 63.5t27.5 32.5t45.5 11q21 0 47 -6l-7 -53q-16 3 -29 3 q-24 0 -33.5 -11.5t-9.5 -44.5v-33h58v-49h-58v-314h-50v314h-45z" />
<glyph unicode="&#xfb06;" horiz-adv-x="445" d="M298 314v49h36v89l51 37v-126h49v-49h-49v-211q0 -29 4 -38q6 -13 24 -13q9 0 21 3l8 -54q-21 -6 -38 -6q-26 0 -42 10.5t-22 28.5t-6 72v208h-36zM17 109l51 8q4 -37 24 -55.5t53 -18.5q32 0 50 16t18 41q0 21 -15 33q-11 8 -53 20q-58 19 -77.5 31.5t-30.5 33.5t-11 48 q0 46 30 75.5t83 29.5q32 0 57 -12.5t38.5 -32.5t18.5 -57l-49 -8q-7 59 -64 59q-33 0 -49 -13.5t-16 -32.5q0 -21 15 -32q9 -7 55 -23q62 -19 80 -31t28.5 -32t10.5 -48q0 -52 -33 -84.5t-89 -32.5q-107 0 -125 118z" />
<glyph unicode="&#xfb1d;" horiz-adv-x="242" d="M48 454v29q0 17 15 17h112q16 0 16 -19v-256q0 -17 -15 -17h-30q-15 0 -15 17v212h-68q-15 0 -15 17zM-40 -116q0 17 11.5 28.5t28.5 11.5t28.5 -11.5t11.5 -28.5t-11.5 -28.5t-28.5 -11.5t-28.5 11.5t-11.5 28.5z" />
<glyph unicode="&#xfb1f;" horiz-adv-x="1000" />
<glyph unicode="&#xfb20;" horiz-adv-x="427" d="M41 16v31q0 16 15 16h110l-75 325q-10 50 -29 77q-9 12 4 21l24 14q12 7 22 -3q21 -24 40 -105l65 -276q8 -33 -12 -41l-28 -12q80 0 111 29q32 34 32 126v266q0 16 15 16h31q14 0 14 -16v-293q0 -100 -54 -149q-47 -42 -121 -42h-149q-15 0 -15 16z" />
<glyph unicode="&#xfb21;" horiz-adv-x="465" d="M46 466q-3 5 0 10t9 10t13.5 9.5t13.5 8.5q8 6 15 -2l189 -274q18 10 32 24q12 11 22.5 27.5t10.5 36.5v121h-71q-10 0 -10 11v41q0 11 10 11h122q11 0 11 -13v-165q0 -26 -5.5 -46t-14 -35t-19 -25.5t-20.5 -17.5l-31 -21l96 -141q4 -5 3 -10t-3 -6l-34 -25q-2 -2 -8 -1 t-8 5l-209 303q-33 -29 -41 -66.5t-8 -92.5v-80h61q3 0 6.5 -3.5t3.5 -7.5v-41q0 -4 -3.5 -7.5t-6.5 -3.5h-110q-4 0 -7.5 3.5t-3.5 7.5v159q0 67 16.5 111.5t53.5 76.5z" />
<glyph unicode="&#xfb22;" horiz-adv-x="399" d="M35 453v31q0 16 15 16h297q15 0 15 -16v-31q0 -16 -15 -16h-61v-421q0 -16 -15 -16h-31q-14 0 -14 16v366q0 26 12 43q10 12 18 12h-206q-15 0 -15 16z" />
<glyph unicode="&#xfb23;" horiz-adv-x="422" d="M48 453v31q0 16 15 16h228q79 0 79 -86v-398q0 -16 -15 -16h-30q-15 0 -15 16v421h-247q-15 0 -15 16zM71 16v258q0 17 14 17h31q15 0 15 -17v-258q0 -16 -15 -16h-30q-15 0 -15 16z" />
<glyph unicode="&#xfb24;" horiz-adv-x="388" d="M42 453v31q0 16 15 16h268q16 0 16 -17v-246q0 -115 -37 -170q-46 -67 -155 -67h-87q-16 0 -16 16v31q0 16 16 16h97q57 0 89.5 40.5t32.5 115.5v218h-224q-15 0 -15 16z" />
<glyph unicode="&#xfb25;" horiz-adv-x="397" d="M36 453v59q0 78 25 116q8 14 19 7l8 -4q4 -2 9 -4q11 -5 11 -14q0 -3 -1 -4q-11 -25 -14 -53q-1 -5 -1 -19v-37h240q16 0 16 -17v-298q0 -189 -161 -184q-14 0 -15 16v29q0 14 15 16q62 1 84 37q18 28 18 114v224h-239q-14 0 -14 16z" />
<glyph unicode="&#xfb26;" horiz-adv-x="458" d="M37 454v32q0 14 14 14h297q61 0 61 -67v-369q0 -64 -62 -64h-242q-15 0 -15 14v423h-38q-15 0 -15 17zM129 437q21 -20 21 -68v-306h199l1 374h-221z" />
<glyph unicode="&#xfb27;" horiz-adv-x="380" d="M32 455v29q0 16 14 16h215q62 0 62 -65v-419q0 -16 -14 -16h-31q-14 0 -14 16v421h-217q-15 0 -15 18z" />
<glyph unicode="&#xfb28;" horiz-adv-x="500" d="M35 4v43q0 11 10 11h4q55 0 76 35q19 31 19 118v226h-54q-15 0 -15 16v31q0 16 15 16h339q16 0 16 -18l1 -466q0 -16 -15 -16h-31q-14 0 -14 16v421h-210q28 -13 28 -57v-199q0 -186 -143 -188q-26 0 -26 11z" />
<glyph unicode="&#xfb29;" horiz-adv-x="378" d="M52 233v21q0 17 15 17h97v87q0 17 15 17h23q15 0 15 -17v-87h95q15 0 15 -17v-20q0 -17 -15 -17h-95v-90q0 -16 -15 -16l-23 -1q-15 0 -15 17v90h-97q-15 0 -15 16z" />
<glyph unicode="&#xfb2a;" d="M-40 -116q0 17 11.5 28.5t28.5 11.5t28.5 -11.5t11.5 -28.5t-11.5 -28.5t-28.5 -11.5t-28.5 11.5t-11.5 28.5z" />
<glyph unicode="&#xfb2b;" d="M-40 -116q0 17 11.5 28.5t28.5 11.5t28.5 -11.5t11.5 -28.5t-11.5 -28.5t-28.5 -11.5t-28.5 11.5t-11.5 28.5z" />
<glyph unicode="&#xfb2c;" d="M-40 -116q0 17 11.5 28.5t28.5 11.5t28.5 -11.5t11.5 -28.5t-11.5 -28.5t-28.5 -11.5t-28.5 11.5t-11.5 28.5z" />
<glyph unicode="&#xfb2d;" d="M-40 -116q0 17 11.5 28.5t28.5 11.5t28.5 -11.5t11.5 -28.5t-11.5 -28.5t-28.5 -11.5t-28.5 11.5t-11.5 28.5z" />
<glyph unicode="&#xfb2e;" horiz-adv-x="465" d="M46 466q-3 5 0 10t9 10t13.5 9.5t13.5 8.5q8 6 15 -2l189 -274q18 10 32 24q12 11 22.5 27.5t10.5 36.5v121h-71q-10 0 -10 11v41q0 11 10 11h122q11 0 11 -13v-165q0 -26 -5.5 -46t-14 -35t-19 -25.5t-20.5 -17.5l-31 -21l96 -141q4 -5 3 -10t-3 -6l-34 -25q-2 -2 -8 -1 t-8 5l-209 303q-33 -29 -41 -66.5t-8 -92.5v-80h61q3 0 6.5 -3.5t3.5 -7.5v-41q0 -4 -3.5 -7.5t-6.5 -3.5h-110q-4 0 -7.5 3.5t-3.5 7.5v159q0 67 16.5 111.5t53.5 76.5zM-94 -100q0 9 2.5 11.5t11.5 2.5h160q8 0 11 -2.5t3 -11.5v-22q0 -8 -2.5 -11t-11.5 -3h-160 q-9 0 -11.5 3t-2.5 11v22z" />
<glyph unicode="&#xfb2f;" horiz-adv-x="465" d="M46 466q-3 5 0 10t9 10t13.5 9.5t13.5 8.5q8 6 15 -2l189 -274q18 10 32 24q12 11 22.5 27.5t10.5 36.5v121h-71q-10 0 -10 11v41q0 11 10 11h122q11 0 11 -13v-165q0 -26 -5.5 -46t-14 -35t-19 -25.5t-20.5 -17.5l-31 -21l96 -141q4 -5 3 -10t-3 -6l-34 -25q-2 -2 -8 -1 t-8 5l-209 303q-33 -29 -41 -66.5t-8 -92.5v-80h61q3 0 6.5 -3.5t3.5 -7.5v-41q0 -4 -3.5 -7.5t-6.5 -3.5h-110q-4 0 -7.5 3.5t-3.5 7.5v159q0 67 16.5 111.5t53.5 76.5zM-94 -100q0 9 2.5 11.5t11.5 2.5h160q8 0 11 -2.5t3 -11.5v-22q0 -8 -2.5 -11t-11.5 -3h-58l5 -39v-81 q0 -8 -2.5 -10t-10.5 -2h-28q-8 0 -10.5 2t-2.5 10v81l5 39h-58q-9 0 -11.5 3t-2.5 11v22z" />
<glyph unicode="&#xfb30;" horiz-adv-x="465" d="M46 466q-3 5 0 10t9 10t13.5 9.5t13.5 8.5q8 6 15 -2l189 -274q18 10 32 24q12 11 22.5 27.5t10.5 36.5v121h-71q-10 0 -10 11v41q0 11 10 11h122q11 0 11 -13v-165q0 -26 -5.5 -46t-14 -35t-19 -25.5t-20.5 -17.5l-31 -21l96 -141q4 -5 3 -10t-3 -6l-34 -25q-2 -2 -8 -1 t-8 5l-209 303q-33 -29 -41 -66.5t-8 -92.5v-80h61q3 0 6.5 -3.5t3.5 -7.5v-41q0 -4 -3.5 -7.5t-6.5 -3.5h-110q-4 0 -7.5 3.5t-3.5 7.5v159q0 67 16.5 111.5t53.5 76.5zM-40 240q0 17 11.5 28.5t28.5 11.5t28.5 -11.5t11.5 -28.5t-11.5 -28.5t-28.5 -11.5t-28.5 11.5 t-11.5 28.5z" />
<glyph unicode="&#xfb31;" d="M-40 -116q0 17 11.5 28.5t28.5 11.5t28.5 -11.5t11.5 -28.5t-11.5 -28.5t-28.5 -11.5t-28.5 11.5t-11.5 28.5z" />
<glyph unicode="&#xfb32;" d="M-40 -116q0 17 11.5 28.5t28.5 11.5t28.5 -11.5t11.5 -28.5t-11.5 -28.5t-28.5 -11.5t-28.5 11.5t-11.5 28.5z" />
<glyph unicode="&#xfb33;" d="M-40 -116q0 17 11.5 28.5t28.5 11.5t28.5 -11.5t11.5 -28.5t-11.5 -28.5t-28.5 -11.5t-28.5 11.5t-11.5 28.5z" />
<glyph unicode="&#xfb34;" d="M-40 -116q0 17 11.5 28.5t28.5 11.5t28.5 -11.5t11.5 -28.5t-11.5 -28.5t-28.5 -11.5t-28.5 11.5t-11.5 28.5z" />
<glyph unicode="&#xfb35;" d="M-40 -116q0 17 11.5 28.5t28.5 11.5t28.5 -11.5t11.5 -28.5t-11.5 -28.5t-28.5 -11.5t-28.5 11.5t-11.5 28.5z" />
<glyph unicode="&#xfb36;" d="M-40 -116q0 17 11.5 28.5t28.5 11.5t28.5 -11.5t11.5 -28.5t-11.5 -28.5t-28.5 -11.5t-28.5 11.5t-11.5 28.5z" />
<glyph unicode="&#xfb38;" d="M-40 -116q0 17 11.5 28.5t28.5 11.5t28.5 -11.5t11.5 -28.5t-11.5 -28.5t-28.5 -11.5t-28.5 11.5t-11.5 28.5z" />
<glyph unicode="&#xfb39;" d="M-40 -116q0 17 11.5 28.5t28.5 11.5t28.5 -11.5t11.5 -28.5t-11.5 -28.5t-28.5 -11.5t-28.5 11.5t-11.5 28.5z" />
<glyph unicode="&#xfb3a;" d="M-40 -116q0 17 11.5 28.5t28.5 11.5t28.5 -11.5t11.5 -28.5t-11.5 -28.5t-28.5 -11.5t-28.5 11.5t-11.5 28.5z" />
<glyph unicode="&#xfb3b;" d="M-40 -116q0 17 11.5 28.5t28.5 11.5t28.5 -11.5t11.5 -28.5t-11.5 -28.5t-28.5 -11.5t-28.5 11.5t-11.5 28.5z" />
<glyph unicode="&#xfb3c;" d="M-40 -116q0 17 11.5 28.5t28.5 11.5t28.5 -11.5t11.5 -28.5t-11.5 -28.5t-28.5 -11.5t-28.5 11.5t-11.5 28.5z" />
<glyph unicode="&#xfb3e;" d="M-40 -116q0 17 11.5 28.5t28.5 11.5t28.5 -11.5t11.5 -28.5t-11.5 -28.5t-28.5 -11.5t-28.5 11.5t-11.5 28.5z" />
<glyph unicode="&#xfb40;" d="M-40 -116q0 17 11.5 28.5t28.5 11.5t28.5 -11.5t11.5 -28.5t-11.5 -28.5t-28.5 -11.5t-28.5 11.5t-11.5 28.5z" />
<glyph unicode="&#xfb41;" d="M-40 -116q0 17 11.5 28.5t28.5 11.5t28.5 -11.5t11.5 -28.5t-11.5 -28.5t-28.5 -11.5t-28.5 11.5t-11.5 28.5z" />
<glyph unicode="&#xfb43;" horiz-adv-x="406" d="M37 270v214q0 16 15 16h237q30 0 48 -19.5t18 -47.5v-573q0 -16 -14 -16h-30q-16 0 -16 16v577h-198v-145h67q15 1 15 -15v-34q0 -15 -15 -15h-88q-39 0 -39 42zM-40 240q0 17 11.5 28.5t28.5 11.5t28.5 -11.5t11.5 -28.5t-11.5 -28.5t-28.5 -11.5t-28.5 11.5t-11.5 28.5 z" />
<glyph unicode="&#xfb44;" d="M-40 -116q0 17 11.5 28.5t28.5 11.5t28.5 -11.5t11.5 -28.5t-11.5 -28.5t-28.5 -11.5t-28.5 11.5t-11.5 28.5z" />
<glyph unicode="&#xfb46;" d="M-40 -116q0 17 11.5 28.5t28.5 11.5t28.5 -11.5t11.5 -28.5t-11.5 -28.5t-28.5 -11.5t-28.5 11.5t-11.5 28.5z" />
<glyph unicode="&#xfb47;" d="M-40 -116q0 17 11.5 28.5t28.5 11.5t28.5 -11.5t11.5 -28.5t-11.5 -28.5t-28.5 -11.5t-28.5 11.5t-11.5 28.5z" />
<glyph unicode="&#xfb48;" horiz-adv-x="380" d="M32 455v29q0 16 14 16h215q62 0 62 -65v-419q0 -16 -14 -16h-31q-14 0 -14 16v421h-217q-15 0 -15 18zM-40 240q0 17 11.5 28.5t28.5 11.5t28.5 -11.5t11.5 -28.5t-11.5 -28.5t-28.5 -11.5t-28.5 11.5t-11.5 28.5z" />
<glyph unicode="&#xfb49;" d="M-40 -116q0 17 11.5 28.5t28.5 11.5t28.5 -11.5t11.5 -28.5t-11.5 -28.5t-28.5 -11.5t-28.5 11.5t-11.5 28.5z" />
<glyph unicode="&#xfb4a;" d="M-40 -116q0 17 11.5 28.5t28.5 11.5t28.5 -11.5t11.5 -28.5t-11.5 -28.5t-28.5 -11.5t-28.5 11.5t-11.5 28.5z" />
<glyph unicode="&#xfb4b;" d="M-40 -116q0 17 11.5 28.5t28.5 11.5t28.5 -11.5t11.5 -28.5t-11.5 -28.5t-28.5 -11.5t-28.5 11.5t-11.5 28.5z" />
<glyph unicode="&#xfb4c;" horiz-adv-x="904" d="M523 16v31q0 16 15 16h233q-28 4 -28 68v306h-198q-15 0 -15 16v31q0 16 15 16h241q17 0 17 -17v-420h50q16 0 16 -16v-31q0 -16 -15 -16h-316q-15 0 -15 16zM61 220v27q0 18 15 18h326q15 0 15 -18v-27q0 -18 -15 -18h-327q-14 0 -14 18z" />
<glyph unicode="&#xfb4d;" horiz-adv-x="865" d="M519 453v31q0 16 15 16h268q16 0 16 -17v-246q0 -115 -37 -170q-46 -67 -155 -67h-87q-16 0 -16 16v31q0 16 16 16h97q57 0 89.5 40.5t32.5 115.5v218h-224q-15 0 -15 16zM61 220v27q0 18 15 18h326q15 0 15 -18v-27q0 -18 -15 -18h-327q-14 0 -14 18z" />
<glyph unicode="&#xfb4e;" horiz-adv-x="897" d="M522 265v218q0 17 18 17h231q80 0 80 -84v-187q0 -111 -38 -164q-45 -65 -155 -65h-87q-15 0 -15 16v31q0 16 15 16h97q122 0 122 148v226h-208v-149h67q15 0 15 -16v-35q0 -16 -15 -16h-83q-44 0 -44 44zM61 220v27q0 18 15 18h326q15 0 15 -18v-27q0 -18 -15 -18h-327 q-14 0 -14 18z" />
<glyph unicode="&#xfb4f;" horiz-adv-x="862" d="M443 466q-3 5 0 10t9 10t13.5 9.5t13.5 8.5q8 6 15 -2l189 -274q18 10 32 24q12 11 22.5 27.5t10.5 36.5v121h-71q-10 0 -10 11v41q0 11 10 11h122q11 0 11 -13v-165q0 -26 -5.5 -46t-14 -35t-19 -25.5t-20.5 -17.5l-31 -21l96 -141q4 -5 3 -10t-3 -6l-34 -25 q-2 -2 -8 -1t-8 5l-209 303q-33 -29 -41 -66.5t-8 -92.5v-80h61q3 0 6.5 -3.5t3.5 -7.5v-41q0 -4 -3.5 -7.5t-6.5 -3.5h-110q-4 0 -7.5 3.5t-3.5 7.5v159q0 67 16.5 111.5t53.5 76.5zM36 453v59q0 78 25 116q8 14 19 7l8 -4q4 -2 9 -4q11 -5 11 -14q0 -3 -1 -4 q-11 -25 -14 -53q-1 -5 -1 -19v-37h240q16 0 16 -17v-298q0 -189 -161 -184q-14 0 -15 16v29q0 14 15 16q62 1 84 37q18 28 18 114v224h-239q-14 0 -14 16z" />
</font>
</defs>
</svg>
